<svg width="1104" height="721" viewBox="0 0 1104 721" fill="none" xmlns="http://www.w3.org/2000/svg">
<path d="M135.706 76.4344C185.237 46.9225 213.142 45.6801 263.079 68.5961" stroke="#2FBAE5" stroke-dasharray="9 9"/>
<path d="M498.263 185C543.45 216.556 569.409 218.303 616.685 195.232" stroke="#2FBAE5" stroke-dasharray="9 9"/>
<path d="M840.467 31.3774C909.961 -2.10967 944.577 3.40377 999.11 53.1088" stroke="#2FBAE5" stroke-dasharray="9 9"/>
<path d="M1103.5 268C1045.52 309.149 1002.54 338.403 908.583 351.594C830.116 362.611 739.655 355.706 601.213 344.79C490.26 336.042 293.343 296.189 248.862 296.189C101.424 296.189 -33.0195 370.063 7.96321 407" stroke="#2FBAE5" stroke-dasharray="9 9"/>
<path d="M147.206 608.434C196.737 578.922 224.642 577.68 274.579 600.596" stroke="#2FBAE5" stroke-dasharray="9 9"/>
<path d="M502.763 690C545.387 721.334 569.95 722.961 614.803 699.68" stroke="#2FBAE5" stroke-dasharray="9 9"/>
<path d="M849.001 586.377C907.642 551.404 936.344 556.107 980.621 604.407" stroke="#2FBAE5" stroke-dasharray="9 9"/>
</svg>
