<svg width="346" height="2366" viewBox="0 0 346 2366" fill="none" xmlns="http://www.w3.org/2000/svg">
<path d="M43.5375 718C23.1167 738.421 8 766.71 8 796.155C8 809.195 9.48947 823.372 15.9653 835.029C19.4087 841.227 20.7876 854.289 27.6069 857.699" stroke="#2FBAE5" stroke-linecap="round" stroke-dasharray="10 10"/>
<path d="M40.5375 1485C20.1167 1505.42 5 1533.71 5 1563.16C5 1576.19 6.48947 1590.37 12.9653 1602.03C16.4087 1608.23 17.7876 1621.29 24.6069 1624.7" stroke="#2FBAE5" stroke-linecap="round" stroke-dasharray="10 10"/>
<path d="M298 1253.7C318.42 1233.28 333.537 1204.99 333.537 1175.54C333.537 1162.5 332.048 1148.33 325.572 1136.67C322.128 1130.47 320.75 1117.41 313.93 1114" stroke="#2FBAE5" stroke-linecap="round" stroke-dasharray="10 10"/>
<path d="M309 2077.7C329.42 2057.28 344.537 2028.99 344.537 1999.54C344.537 1986.5 343.048 1972.33 336.572 1960.67C333.128 1954.47 331.75 1941.41 324.93 1938" stroke="#2FBAE5" stroke-linecap="round" stroke-dasharray="10 10"/>
<path d="M37.5375 2225C17.1167 2245.42 2 2273.71 2 2303.16C2 2316.19 3.48947 2330.37 9.9653 2342.03C13.4087 2348.23 14.7876 2361.29 21.6069 2364.7" stroke="#2FBAE5" stroke-linecap="round" stroke-dasharray="10 10"/>
<path d="M36.5375 1C16.1167 21.4207 1 49.7098 1 79.1553C1 92.1948 2.48947 106.372 8.9653 118.029C12.4087 124.227 13.7876 137.289 20.6069 140.699" stroke="#2FBAE5" stroke-linecap="round" stroke-dasharray="10 10"/>
<path d="M309 514.699C329.42 494.278 344.537 465.989 344.537 436.544C344.537 423.504 343.048 409.327 336.572 397.671C333.128 391.472 331.75 378.41 324.93 375" stroke="#2FBAE5" stroke-linecap="round" stroke-dasharray="10 10"/>
</svg>
