<svg width="650" height="503" viewBox="0 0 650 503" fill="none" xmlns="http://www.w3.org/2000/svg">
<path d="M113.23 31.0109C150.858 1.72414 172.295 0.890343 211.046 24.998" stroke="#2FBAE5" stroke-dasharray="9 9"/>
<path d="M302.724 145.189C334.414 174.947 352.99 176.065 387.41 152.498" stroke="#2FBAE5" stroke-dasharray="9 9"/>
<path d="M468.655 31.7528C516.279 -5.202 538.942 -1.3175 572.684 46.0032" stroke="#2FBAE5" stroke-dasharray="9 9"/>
<path d="M649 183.136C614.887 205.056 589.598 220.639 534.312 227.665C488.142 233.534 434.915 229.856 353.457 224.041C288.172 219.381 172.307 198.152 146.135 198.152C59.3831 198.152 -19.7227 237.503 4.39132 257.179" stroke="#2FBAE5" stroke-dasharray="9 9"/>
<path d="M103.23 358.199C145.267 328.641 169.107 327.66 212.025 351.511" stroke="#2FBAE5" stroke-dasharray="9 9"/>
<path d="M315.724 474.378C353.816 504.689 375.88 506.108 416.351 483.063" stroke="#2FBAE5" stroke-dasharray="9 9"/>
<path d="M478.65 365.944C522.303 328.44 542.797 332.024 572.774 378.824" stroke="#2FBAE5" stroke-dasharray="9 9"/>
</svg>
