<svg width="171" height="172" viewBox="0 0 171 172" fill="none" xmlns="http://www.w3.org/2000/svg">
<path d="M83 161.569C125.526 161.569 160 141.646 160 117.069C160 92.4927 125.526 72.5693 83 72.5693C40.4741 72.5693 6 92.4927 6 117.069C6 141.646 40.4741 161.569 83 161.569Z" fill="#F7F7F7"/>
<path d="M41 147.569L140 90.5693" stroke="#DBDBDB" stroke-width="6" stroke-linecap="round" stroke-linejoin="round"/>
<path d="M133.657 84.5383L110.021 98.4744C109.694 98.6709 109.276 98.5513 109.092 98.218C109.033 98.1155 109 97.9873 109 97.8677V49.207C109 48.9592 109.134 48.7285 109.343 48.6003L132.979 34.6643C133.306 34.4678 133.724 34.5874 133.908 34.9206C133.967 35.0232 134 35.1428 134 35.271V83.9317C134 84.188 133.866 84.4187 133.657 84.5383Z" fill="#00BDEA"/>
<path d="M134.657 85.5384L111.021 99.4744C110.694 99.6709 110.276 99.5513 110.092 99.218C110.033 99.1155 110 98.9959 110 98.8677V50.207C110 49.9592 110.134 49.7285 110.343 49.6003L133.979 35.6643C134.306 35.4678 134.724 35.5874 134.908 35.9206C134.967 36.0232 135 36.1428 135 36.271V84.9317C134.992 85.188 134.866 85.4102 134.657 85.5384Z" fill="#3ED4F7"/>
<path d="M127.43 58.5067C129.364 55.159 129.38 51.55 127.467 50.4457C125.553 49.3415 122.435 51.1601 120.501 54.5078C118.568 57.8555 118.551 61.4645 120.464 62.5688C122.378 63.673 125.496 61.8544 127.43 58.5067Z" fill="#00BDEA"/>
<path d="M126.43 58.5067C128.364 55.159 128.38 51.55 126.467 50.4457C124.553 49.3415 121.435 51.1601 119.501 54.5078C117.568 57.8555 117.551 61.4645 119.464 62.5688C121.378 63.673 124.496 61.8544 126.43 58.5067Z" fill="white"/>
<path d="M117 69.5693L128 63.5693" stroke="white" stroke-linecap="round" stroke-linejoin="round"/>
<path d="M117 72.5693L128 66.5693" stroke="white" stroke-linecap="round" stroke-linejoin="round"/>
<path d="M117 76.5693L128 70.5693" stroke="white" stroke-linecap="round" stroke-linejoin="round"/>
<path d="M109 48.8378L110.452 49.5693L135 35.5332L133.142 34.5693L109 48.8378Z" fill="#85E2F7"/>
<path d="M131 82.4726L115 91.5693V84.666L131 75.5693V82.4726Z" fill="white"/>
<path d="M116 84.8586L115 84.5693V91.2801L116 91.5693V84.8586Z" fill="#9E9E9E"/>
<path d="M130.49 75.5693L131 75.8544L115.502 84.5693L115 84.2843L130.49 75.5693Z" fill="#F7F7F7"/>
<path d="M103 18.4778L101.965 20.3117L101.523 20.2775V101.161C101.523 101.461 101.362 101.735 101.108 101.889L74.7257 117.273L73.3679 119.569L71.6453 118.815C71.5435 118.789 71.4502 118.747 71.3653 118.695L71.2974 118.661L71.3059 118.644C71.1107 118.49 70.9919 118.241 71.0004 117.992V35.2492C71.0004 34.9493 71.1617 34.675 71.4162 34.5208L72.3327 33.9894L100.285 17.6893C100.48 17.5693 100.709 17.5436 100.929 17.6036L100.946 17.5693L103 18.4778Z" fill="#009DC2"/>
<path d="M76 35.0202L74.6514 37.5693L71.0092 36.2467L71 34.7477C71 34.4671 71.1743 34.2106 71.4495 34.0663L72.4404 33.5693L76 35.0202Z" fill="#38C1E0"/>
<path d="M103 18.4792L101.954 20.3161L101.508 20.2818V21.2947L75.3263 35.5693L72 34.0157L100.239 17.6895C100.437 17.5693 100.668 17.5436 100.891 17.6037L100.908 17.5693L103 18.4792Z" fill="#3ED4F7"/>
<path d="M103.578 102.667L74.2665 119.457C73.8616 119.688 73.3446 119.551 73.112 119.149C73.0345 119.021 73 118.876 73 118.731V36.1984C73 35.8992 73.1637 35.617 73.4222 35.4717L102.733 18.6814C103.138 18.4506 103.655 18.5874 103.888 18.9892C103.966 19.1174 104 19.2628 104 19.4081V101.949C104 102.24 103.836 102.522 103.578 102.667Z" fill="#00BDEA"/>
<path d="M95.8774 54.6092C99.054 49.1094 98.9148 43.0844 95.5665 41.1519C92.2181 39.2195 86.9285 42.1114 83.7519 47.6111C80.5752 53.1109 80.7144 59.1359 84.0627 61.0684C87.4111 63.0008 92.7007 60.1089 95.8774 54.6092Z" fill="#009DC2"/>
<path d="M94.8774 54.6092C98.054 49.1094 97.9148 43.0844 94.5665 41.1519C91.2181 39.2195 85.9285 42.1114 82.7519 47.6111C79.5752 53.1109 79.7144 59.1359 83.0627 61.0684C86.4111 63.0008 91.7007 60.1089 94.8774 54.6092Z" fill="white"/>
<path d="M99 97.93L76 111.569V101.209L99 87.5693V97.93Z" fill="#00ADD6"/>
<path d="M100 97.93L77 111.569V101.209L100 87.5693V97.93Z" fill="#4BC462"/>
<path d="M79 77.5693L98 66.5693" stroke="white" stroke-linecap="round" stroke-linejoin="round"/>
<path d="M79 83.5693L98 72.5693" stroke="white" stroke-linecap="round" stroke-linejoin="round"/>
<path d="M79 89.5693L98 78.5693" stroke="white" stroke-linecap="round" stroke-linejoin="round"/>
<path d="M77 101.025L76 100.569V111.114L77 111.569V101.025Z" fill="#3EA352"/>
<path d="M99.2381 87.5693L100 88.0141L76.7619 101.569L76 101.125L99.2381 87.5693Z" fill="#ADF0BA"/>
<path d="M96.433 135.343C96.433 137.02 96.8346 142.823 96.8346 142.823C97.1359 143.86 97.7802 144.569 98.232 144.569C98.4998 144.569 98.6922 144.362 98.8428 143.99C99.2027 143.065 99.1106 137.868 99.1106 135.524C99.1106 133.743 99.5039 131.59 99.78 130.474C100.148 129.004 101.445 126.54 102.458 123.989C104.022 120.054 104.508 117.728 103.395 117.218C103.202 117.131 102.658 116.803 101.997 116.457C100.776 115.825 99.1692 115.16 98.6002 115.886C98.3241 116.241 97.412 120.409 96.9434 123.323C96.4414 126.418 96.0815 127.491 96.0062 127.958C95.9393 128.468 96.433 133.976 96.433 135.343Z" fill="#D1D1D1"/>
<path d="M104 136.946C104.042 137.097 104.141 137.231 104.324 137.591C104.507 137.95 104.957 138.569 105.215 138.569C105.747 138.569 105.997 137.49 106.396 135.918C106.687 134.788 107.22 133.533 107.594 132.019C107.802 131.191 109.358 123.863 109.358 122.408C109.358 120.952 110.04 117.932 109.998 116.008C109.998 115.523 109.957 115.046 109.89 114.569L105.581 115.95L104.557 120.358C104.557 120.358 104.69 133.952 104 136.905C104 136.93 104 136.938 104 136.946Z" fill="#9E9E9E"/>
<path d="M97.1627 142.664L97.9216 143.476C97.9216 143.476 99.1626 143.51 99.1715 143.569C99.2519 142.986 99.4215 141.767 99.4662 140.489C99.5019 139.559 99.6001 138.569 99.6001 137.037C99.6001 135.353 99.7429 131.673 100.047 130.581C100.439 129.143 101.823 126.731 102.903 124.235C104.573 120.385 106.859 118.219 105.671 117.72C105.466 117.635 103.118 117.204 102.412 116.865L99.734 116.569C99.734 116.569 97.1717 126.545 97.0377 128.855C96.9128 130.683 97.1359 140.43 97.1627 142.664Z" fill="#9E9E9E"/>
<path d="M106.38 99.4407C106.928 100.271 107.485 101.092 108.034 101.922C108.276 102.281 108.518 102.649 108.76 103.008C109.413 103.983 110.066 104.958 110.712 105.934C110.349 106.823 109.986 107.713 109.631 108.603C109.227 109.595 108.437 110.836 108.292 111.896C108.146 112.957 108.267 113.736 108.8 113.539C108.945 113.479 109.082 113.385 109.195 113.274C109.558 112.949 110.607 111.785 110.865 111.374C111.728 109.989 112.648 108.62 113.463 107.2C114.003 106.276 114.213 105.728 113.729 104.65C113.116 103.299 112.188 102.016 111.438 100.741C110.865 99.7658 110.357 98.6537 109.703 97.7127C109.631 97.61 109.558 97.5073 109.478 97.4047C109.26 97.1138 108.977 96.8829 108.663 96.7374C107.13 96.0445 105.162 97.6014 106.38 99.4407Z" fill="white"/>
<path d="M98.009 89.0789C98 88.9402 98 88.8102 98 88.6803C98 88.5156 98.018 88.3596 98.0359 88.195C98.2965 86.2452 99.9584 85.5693 101.548 85.5693C103.255 85.5693 104.72 86.9298 105.295 88.8449C105.456 89.3735 105.537 89.9194 105.555 90.474C105.555 90.526 105.753 92.0771 105.753 92.1378C105.762 92.6837 105.654 93.2296 105.447 93.7409C105.789 94.9194 105.977 96.1326 105.995 97.3544C106.022 98.4289 105.932 99.5121 105.735 100.569L102.662 100.049C102.869 98.9576 102.923 97.8397 102.842 96.7305C102.806 96.2799 102.393 95.942 101.926 95.9766C101.557 95.9939 101.189 95.9853 100.821 95.942C99.8326 95.8293 100.03 93.9922 99.2128 93.1517C98.8085 92.727 98.5031 92.9697 98.1976 92.753C98.0898 92.6751 98.0719 92.5364 98.1437 92.4324C98.1437 92.4238 98.1527 92.4237 98.1527 92.4151C98.3683 92.1724 98.6648 91.7045 98.4671 91.1413C98.2156 90.4653 98.0629 89.7808 98.009 89.0789Z" fill="white"/>
<path d="M98 88.5693C98 88.6956 98 88.8219 98.009 88.9566C99.0067 89.4533 101.038 90.7415 101.155 91.8359C101.272 92.9473 101.802 94.2522 102.575 94.7321C102.683 94.7995 102.8 94.85 102.926 94.8921C103.124 94.9426 103.339 95.0941 103.546 95.2962C104.337 96.0539 105.101 97.5693 105.101 97.5693L106 96.9968C105.982 95.835 105.811 94.6816 105.479 93.5619C105.389 93.6881 105.326 93.7639 105.308 93.7976C105.308 93.7976 105.308 93.806 105.299 93.806C105.092 93.8565 104.903 93.8902 104.724 93.9155C103.995 94.0249 103.438 93.9744 103.016 93.8228C101.515 93.284 101.82 91.4739 101.973 90.691C101.488 92.1306 100.751 88.8388 100.751 88.8388L98 88.5693Z" fill="#D1D1D1"/>
<path d="M97.3408 90.1003L100.581 90.4491C100.581 90.4491 101.147 93.6951 101.601 92.2554C101.447 93.0334 101.293 94.8844 102.698 95.421C103.093 95.573 103.616 95.6177 104.301 95.5104C104.473 95.4836 104.644 95.4478 104.833 95.4031C105.116 95.3315 109.548 89.1167 104.859 86.8632C104.524 86.7023 104.216 86.5592 103.933 86.434C100.178 84.7529 100.135 85.7365 97.3323 87.5607C97.2037 87.6412 97.0837 87.7217 96.9808 87.8022C94.5806 89.5727 97.3408 90.1003 97.3408 90.1003Z" fill="#333333"/>
<path d="M99.8776 117.991C99.9484 118.016 100.028 118.059 100.108 118.092C103.842 119.618 111 117.22 111 114.644C111 112.373 109.425 109.526 109.425 109.526C109.425 109.526 111.451 98.9524 109.558 97.241C107.664 95.5295 106.204 97.5968 104.063 97.8679C103.744 97.9103 103.426 97.9611 103.116 98.0289C102.099 98.2661 101.594 98.6474 100.594 99.5455C99.3732 100.647 98.9043 102.138 98.8512 104.307C98.8335 105.112 98.8689 106.01 98.9485 107.019C99.0193 107.967 99.1255 109.01 99.2582 110.162C99.7537 114.669 95.7719 116.339 99.8776 117.991Z" fill="white"/>
<path d="M89.9938 105.394V105.054C89.9855 104.938 89.9855 104.83 89.9772 104.714C89.9606 104.489 89.9192 104.265 89.8777 104.05C89.828 103.826 89.7617 103.61 89.6705 103.402C89.629 103.294 89.5793 103.195 89.5213 103.095C89.4798 103.029 89.4384 102.954 89.3969 102.896C89.372 102.863 89.3472 102.83 89.3223 102.797C89.256 102.714 89.1316 102.705 89.0487 102.772C88.9824 102.83 88.9575 102.921 88.999 103.004L89.0156 103.037C89.0322 103.062 89.0487 103.112 89.0653 103.153C89.0819 103.195 89.0985 103.236 89.1151 103.286C89.1482 103.377 89.1648 103.469 89.1897 103.56C89.2311 103.751 89.2477 103.942 89.256 104.141C89.256 104.29 89.256 104.448 89.2394 104.597C89.0902 104.489 88.9244 104.39 88.7586 104.307C88.6674 104.257 88.5679 104.216 88.4684 104.182L88.4436 104.158C88.369 104.099 88.2861 104.033 88.2115 103.958C88.0539 103.826 87.9047 103.685 87.7555 103.535L87.5234 103.311C87.2996 103.087 87.084 102.863 86.8602 102.639C86.769 102.548 86.6198 102.548 86.5203 102.631C86.4374 102.714 86.4208 102.846 86.4872 102.946C86.7276 103.294 86.9763 103.635 87.2333 103.967C87.1338 103.867 87.0426 103.767 86.9514 103.66C86.827 103.519 86.711 103.377 86.5866 103.228L86.5784 103.22C86.512 103.137 86.4043 103.112 86.3048 103.153C86.2799 103.162 86.2633 103.178 86.2385 103.187C86.1473 103.261 86.1224 103.394 86.1804 103.494C86.2219 103.568 86.2633 103.643 86.3048 103.718C86.2302 103.701 86.1473 103.718 86.0892 103.767C85.9981 103.842 85.9732 103.967 86.0312 104.075C86.0892 104.174 86.139 104.274 86.197 104.373C86.1307 104.448 86.1224 104.564 86.1721 104.647L86.3048 104.88C86.3545 104.954 86.4043 105.029 86.4623 105.112C86.5783 105.27 86.7027 105.411 86.8519 105.535C86.9928 105.66 87.1586 105.767 87.3244 105.85C87.3244 105.85 87.3244 105.85 87.3327 105.85C87.341 105.85 87.3327 105.85 87.341 105.859C87.5317 105.992 87.7306 106.108 87.9379 106.207C88.6674 106.572 89.3637 106.755 89.7534 106.299C89.8031 106.24 89.8529 106.166 89.886 106.099C89.9026 106.066 89.9192 106.033 89.9275 106C89.9772 105.859 89.9938 105.709 89.9689 105.56C89.9772 105.535 89.9938 105.502 89.9938 105.469C90.0021 105.46 90.0021 105.427 89.9938 105.394Z" fill="white"/>
<path d="M89.0769 106.455L94.5715 109.535C95.0101 109.821 96.8637 108.234 97.2526 107.921L102.962 103.991C104.129 103.054 104.344 101.302 103.442 100.079C103.434 100.07 103.434 100.061 103.426 100.061C102.507 98.8379 101.382 98.0397 100.215 98.9854C100 99.1589 94.5798 106.455 94.5798 106.455L90.4919 105.284C90.2105 105.579 90.4091 105.596 90.1857 106.108C90.1692 106.143 90.1526 106.169 90.1195 106.195C89.7885 106.507 88.7045 106.204 89.0769 106.455Z" fill="white"/>
<path d="M86.0335 104.085C86.0949 104.184 86.1476 104.283 86.209 104.382C86.1388 104.457 86.13 104.572 86.1827 104.655L86.3231 104.886C86.3757 104.961 86.4284 105.035 86.4898 105.118C86.6127 105.275 86.7443 105.415 86.9023 105.539C87.0514 105.663 87.2269 105.771 87.4025 105.853C87.4025 105.853 87.4025 105.853 87.4112 105.853C87.42 105.853 87.4112 105.853 87.42 105.862C87.6218 105.994 87.8325 106.11 88.0518 106.209C88.8241 106.572 89.5612 106.754 89.9737 106.3L90 106.258C90 106.258 89.298 105.672 88.7188 105.06C88.6486 104.994 88.5871 104.92 88.5257 104.845C88.438 104.746 88.359 104.655 88.2888 104.556C88.2186 104.465 88.1572 104.374 88.0957 104.275C88.0694 104.225 88.0431 104.176 88.0167 104.126C88.008 104.11 87.9992 104.093 87.9992 104.077L87.9816 104.035C87.8763 103.787 87.7535 103.539 87.6043 103.308C87.3673 103.085 87.1392 102.862 86.9023 102.639C86.8057 102.548 86.6478 102.548 86.5425 102.63C86.4547 102.713 86.4372 102.845 86.5074 102.944C86.7618 103.291 87.0251 103.63 87.2972 103.961C87.1918 103.862 87.0953 103.763 86.9988 103.655C86.8671 103.515 86.7443 103.374 86.6127 103.225L86.6039 103.217C86.5337 103.134 86.4196 103.11 86.3143 103.151C86.288 103.159 86.2704 103.176 86.2441 103.184C86.1476 103.258 86.1212 103.391 86.1827 103.49C86.2265 103.564 86.2704 103.639 86.3143 103.713C86.2353 103.696 86.1476 103.713 86.0861 103.763C85.9984 103.853 85.972 103.977 86.0335 104.085Z" fill="#D1D1D1"/>
<path d="M100 117.991C100.07 118.025 100.149 118.059 100.228 118.092C103.92 119.618 111 117.22 111 114.644C111 112.373 109.442 109.526 109.442 109.526C109.442 109.526 111.446 98.9524 109.574 97.241C107.701 95.5295 106.257 97.5968 104.139 97.8679C103.824 97.9103 103.509 97.9611 103.203 98.0289C102.914 98.2323 102.634 98.4441 102.363 98.6813C99.5187 101.147 101.969 113.492 100 117.991Z" fill="#757575"/>
<path d="M89.0794 106.425L94.7537 109.535C95.2066 109.824 97.1208 108.221 97.5224 107.906L103.419 103.938C103.641 103.763 103.838 103.553 104 103.316L102.317 98.5693C102.317 98.5693 95.7278 107.222 95.0955 107.564C94.6596 107.801 91.8225 106.793 90.1561 106.163C89.8143 106.478 88.6948 106.171 89.0794 106.425Z" fill="#757575"/>
<path d="M108 102.169C108 102.169 108.161 102.461 108.758 103.002C109.226 103.422 109.961 103.989 111.09 104.676C113.656 106.229 111.227 106.659 110.009 109.346C109.307 110.899 108.968 112.496 108.799 113.569C108.944 113.509 109.081 113.415 109.194 113.303C109.557 112.977 110.606 111.809 110.864 111.397C111.728 110.007 112.647 108.633 113.462 107.208C114.003 106.281 114.213 105.731 113.729 104.65C113.115 103.293 112.188 102.006 111.437 100.727C110.864 99.7479 110.356 98.6319 109.702 97.6876C109.356 96.8377 108.315 96.5029 108.258 96.5801L108.016 101.894L108 102.169Z" fill="#757575"/>
<path d="M102 92.5693C102.552 92.5693 103 92.1216 103 91.5693C103 91.0171 102.552 90.5693 102 90.5693C101.448 90.5693 101 91.0171 101 91.5693C101 92.1216 101.448 92.5693 102 92.5693Z" fill="#D1D1D1"/>
<path d="M94.0136 141.791C94.1075 141.986 96.2275 143.897 97.6826 144.499C98.0347 144.645 98.5353 144.523 98.6292 144.499C99.0595 144.385 99.0047 142.604 98.9891 142.23C98.9891 142.181 98.9891 142.165 98.9891 142.165L98.5744 142.303L97.8625 142.539C97.62 142.539 97.3775 142.45 97.1976 142.279L97.1585 142.247L96.517 141.661C95.7973 141.141 95.4296 140.726 94.7333 140.572C94.5299 140.531 94.2092 141.019 94.0762 141.409C94.0058 141.572 93.9823 141.718 94.0136 141.791Z" fill="#D1D1D1"/>
<path d="M101.017 136.792C101.111 136.987 103.23 138.897 104.685 139.499C105.037 139.645 105.538 139.523 105.631 139.499C106.116 139.377 105.983 137.166 105.983 137.166L104.849 137.531C104.818 137.531 104.787 137.531 104.755 137.531C104.544 137.507 104.341 137.418 104.184 137.271L103.504 136.654C103.473 136.629 103.434 136.605 103.402 136.58C102.745 136.093 102.386 135.719 101.729 135.573H101.721C101.682 135.564 101.65 135.573 101.619 135.589C101.588 135.605 101.564 135.621 101.533 135.646L101.525 135.654C101.486 135.686 101.447 135.727 101.416 135.768C101.299 135.914 101.205 136.076 101.126 136.247C101.025 136.467 100.97 136.694 101.017 136.792Z" fill="#D1D1D1"/>
<path d="M101.017 137.067C101.111 137.243 103.23 138.964 104.685 139.506C105.037 139.637 105.538 139.528 105.631 139.506C106.116 139.396 105.983 137.404 105.983 137.404L104.849 137.734C104.818 137.734 104.787 137.734 104.755 137.734C104.544 137.712 104.341 137.631 104.184 137.499L103.504 136.943C103.473 136.921 103.434 136.899 103.402 136.877C103.121 136.87 102.824 136.855 102.534 136.826C102.01 136.782 101.502 136.701 101.126 136.569C101.025 136.774 100.97 136.979 101.017 137.067Z" fill="#757575"/>
<path d="M94.0136 140.939C94.1075 141.124 96.2275 142.933 97.6826 143.502C98.0347 143.641 98.5353 143.525 98.6292 143.502C99.0595 143.395 99.0047 141.709 98.9891 141.355C98.8483 141.385 98.7153 141.408 98.5744 141.416C98.1051 141.447 97.6279 141.432 97.1585 141.362C96.384 141.254 95.3748 141.024 94.0762 140.569C94.0058 140.731 93.9823 140.87 94.0136 140.939Z" fill="#757575"/>
<path d="M80 106.569V103.426L81.0373 102.771C81.3029 102.607 81.5104 102.543 81.6597 102.579C81.8091 102.616 81.8838 102.771 81.8838 103.035C81.8838 103.299 81.8091 103.536 81.6681 103.764C81.527 103.991 81.3361 104.173 81.0954 104.319L81.1535 104.164C81.4274 103.991 81.6432 103.928 81.7842 103.973C81.9253 104.019 82 104.173 82 104.447C82 104.72 81.9253 104.975 81.7759 105.212C81.6266 105.458 81.4025 105.667 81.0954 105.859L80 106.569ZM80.2656 104.684L81.029 104.201C81.2199 104.082 81.3693 103.937 81.4689 103.773C81.5685 103.609 81.6266 103.436 81.6266 103.244C81.6266 103.053 81.5768 102.944 81.4689 102.907C81.3693 102.871 81.2199 102.916 81.029 103.044L80.2656 103.527V104.684ZM80.2656 106.141L81.112 105.613C81.3195 105.476 81.4855 105.33 81.5934 105.157C81.7012 104.984 81.7593 104.802 81.7593 104.593C81.7593 104.392 81.7012 104.274 81.5934 104.246C81.4855 104.219 81.3278 104.274 81.112 104.41L80.2656 104.939V106.141Z" fill="white"/>
<path d="M84.1887 102.785C84.5189 102.596 84.783 102.53 84.9528 102.605C85.1321 102.672 85.217 102.88 85.217 103.221C85.217 103.571 85.1226 103.893 84.934 104.187C84.7453 104.48 84.4717 104.727 84.1226 104.925L83 105.569V102.302L83.2925 102.132V103.297L84.1887 102.785ZM84.1226 104.651C84.3868 104.499 84.5849 104.319 84.717 104.102C84.8491 103.893 84.9245 103.656 84.9245 103.391C84.9245 103.136 84.8585 102.984 84.7264 102.937C84.5943 102.889 84.3962 102.946 84.1321 103.098L83.3113 103.571V105.115L84.1226 104.651ZM85.7075 104.007V100.74L86 100.569V103.836L85.7075 104.007Z" fill="white"/>
<path d="M86 102.569V99.6394L87.841 98.5693V98.8326L86.2678 99.7498V100.709L87.0879 100.234C87.3808 100.064 87.6067 99.9961 87.7657 100.047C87.9163 100.098 88 100.259 88 100.531C88 100.811 87.9163 101.075 87.749 101.329C87.5816 101.576 87.3473 101.788 87.0293 101.975L86 102.569ZM86.2594 102.17L87.0209 101.729C87.2552 101.593 87.431 101.44 87.5481 101.261C87.6653 101.092 87.7239 100.905 87.7239 100.701C87.7239 100.302 87.4895 100.242 87.0209 100.514L86.2594 100.956V102.17Z" fill="white"/>
<path d="M89 101.569V98.3905L89.9532 97.7916C90.166 97.6534 90.3532 97.5797 90.5149 97.5705C90.6681 97.5613 90.7872 97.6073 90.8723 97.7179C90.9574 97.8285 91 97.9943 91 98.2247C91 98.4458 90.9574 98.6669 90.8723 98.8789C90.7872 99.0908 90.6681 99.2935 90.5149 99.4778C90.3617 99.6621 90.1745 99.8187 89.9532 99.9569L89.1447 100.454L89.2638 100.224V101.385L89 101.569ZM89.2723 100.27L89.1532 100.178L89.9532 99.6805C90.2085 99.5238 90.4043 99.3304 90.5319 99.1092C90.6681 98.8881 90.7277 98.6577 90.7277 98.3997C90.7277 98.1417 90.6596 97.9943 90.5319 97.9298C90.3957 97.8745 90.2085 97.9206 89.9532 98.0865L89.1532 98.584L89.2723 98.3537V100.27Z" fill="white"/>
<path d="M91 99.5693L92.3475 95.7322L92.6525 95.5693L94 97.9766L93.6754 98.1485L92.4361 95.877L92.5639 95.8137L91.3246 99.3974L91 99.5693ZM91.5311 98.4562L91.6197 98.1395L93.3311 97.2345L93.4197 97.4517L91.5311 98.4562Z" fill="white"/>
<path d="M94.8678 97.5693V94.5127L94.9421 94.5599L94 95.1825V94.8807L96 93.5693V93.8712L95.0579 94.4844L95.124 94.3429V97.3901L94.8678 97.5693Z" fill="white"/>
<path d="M98.0723 94.1396C98.3702 93.9743 98.6085 93.9164 98.7617 93.9826C98.9149 94.0487 99 94.2222 99 94.5197C99 94.8255 98.9149 95.1065 98.7447 95.3627C98.5745 95.6189 98.3277 95.8338 98.0128 96.0073L97 96.5693V93.7181L97.2638 93.5693V94.5859L98.0723 94.1396ZM98.0042 95.7677C98.2425 95.6354 98.4213 95.4784 98.5404 95.2883C98.6596 95.1065 98.7277 94.8999 98.7277 94.6685C98.7277 94.4454 98.6681 94.3131 98.5489 94.2718C98.4298 94.2305 98.2511 94.2801 98.0128 94.4123L97.2723 94.8255V96.1726L98.0042 95.7677Z" fill="white"/>
<path d="M88.7078 56.5693V45.8918L88.8441 45.9441L86 47.4085V47.1121L89 45.5693V56.4212L88.7078 56.5693Z" fill="#333333"/>
<path d="M63.5459 123.156L32.3456 141.445C31.9167 141.701 31.3616 141.548 31.1177 141.112C31.0421 140.975 31 140.813 31 140.651V76.7766C31 76.4521 31.1682 76.1447 31.4541 75.9825L62.6544 57.6936C63.0833 57.4375 63.6384 57.5912 63.8823 58.0266C63.9579 58.1632 64 58.3255 64 58.4877V122.362C64 122.687 63.8234 122.994 63.5459 123.156Z" fill="#57C0D9"/>
<path d="M65.5459 124.156L34.3456 142.445C33.9167 142.701 33.3616 142.547 33.1177 142.112C33.042 141.975 33 141.813 33 141.651V77.7766C33 77.4521 33.1682 77.1447 33.4541 76.9825L64.6544 58.6936C65.0833 58.4375 65.6384 58.5912 65.8823 59.0266C65.9579 59.1632 66 59.3255 66 59.4877V123.362C65.9916 123.687 65.8234 123.994 65.5459 124.156Z" fill="#3ED4F7"/>
<path d="M54.1625 88.7745C56.6486 84.4704 56.7251 79.8622 54.3335 78.4819C51.9418 77.1015 47.9876 79.4718 45.5015 83.776C43.0154 88.0801 42.9388 92.6883 45.3305 94.0686C47.7222 95.449 51.6764 93.0787 54.1625 88.7745Z" fill="#00BDEA"/>
<path d="M53.1625 88.7745C55.6486 84.4704 55.7251 79.8622 53.3335 78.4819C50.9418 77.1015 46.9876 79.4718 44.5015 83.776C42.0154 88.0801 41.9388 92.6883 44.3305 94.0686C46.7222 95.449 50.6764 93.0787 53.1625 88.7745Z" fill="white"/>
<path d="M43 104.569L58 95.5693" stroke="white" stroke-linecap="round" stroke-linejoin="round"/>
<path d="M43 109.569L58 100.569" stroke="white" stroke-linecap="round" stroke-linejoin="round"/>
<path d="M43 113.569L58 104.569" stroke="white" stroke-linecap="round" stroke-linejoin="round"/>
<path d="M32 76.5907L33.9642 77.5693L67 58.8537L64.4907 57.5693L32 76.5907Z" fill="#85E2F7"/>
<path d="M31 77.5693L33 78.3985V141.569L31.0708 140.603L31 77.5693Z" fill="#00BDEA"/>
<path d="M62 119.638L41 131.569V122.509L62 110.569V119.638Z" fill="white"/>
<path d="M42 121.941L41 121.569V130.197L42 130.569V121.941Z" fill="#9E9E9E"/>
<path d="M61.3317 109.569L62 109.949L41.6683 121.569L41 121.189L61.3317 109.569Z" fill="#F7F7F7"/>
<path d="M47.1299 90.5693V90.4485L49.645 86.6478C49.8956 86.2774 50.0812 85.9633 50.2111 85.7137C50.3411 85.4641 50.4246 85.2467 50.471 85.0614C50.5174 84.8762 50.536 84.7071 50.536 84.5461C50.536 84.1354 50.3968 83.8858 50.1183 83.7811C49.8399 83.6764 49.4408 83.757 48.9118 84.0227C48.5128 84.224 48.1694 84.4495 47.8724 84.7152C47.5754 84.9809 47.3248 85.2789 47.1206 85.6251L47 85.5688C47.2135 85.2145 47.4826 84.9004 47.7981 84.6105C48.1137 84.3287 48.4849 84.079 48.9118 83.8697C49.2738 83.6845 49.5986 83.5878 49.8585 83.5717C50.1276 83.5556 50.3318 83.6201 50.4803 83.7731C50.6288 83.9261 50.6937 84.1515 50.6937 84.4575C50.6937 84.6427 50.6659 84.836 50.6102 85.0373C50.5545 85.2386 50.4617 85.4721 50.3318 85.7379C50.2019 86.0036 50.007 86.3257 49.7471 86.7042L47.3063 90.3922L47.2042 90.3761L51 88.4837V88.6448L47.1299 90.5693Z" fill="#333333"/>
<path d="M123.542 59.2594C123.204 59.4487 122.903 59.5479 122.621 59.566C122.348 59.584 122.141 59.5299 122 59.4036L122.085 59.2684C122.207 59.3856 122.395 59.4307 122.658 59.4217C122.912 59.4036 123.213 59.3045 123.542 59.1241C123.984 58.8806 124.323 58.5831 124.549 58.2314C124.774 57.8797 124.887 57.519 124.887 57.1403C124.887 56.7615 124.774 56.5271 124.539 56.4279C124.304 56.3287 123.947 56.4189 123.448 56.6894L123.213 56.8156V56.7074L124.699 53.7317L124.708 53.7767L122.122 55.2015V55.0662L124.831 53.5693V53.6775L123.345 56.6533L123.335 56.6082L123.429 56.5541C123.956 56.2656 124.351 56.1754 124.614 56.2836C124.868 56.3918 125 56.6533 125 57.0681C125 57.3386 124.944 57.6092 124.831 57.8797C124.718 58.1502 124.549 58.4027 124.332 58.6372C124.135 58.8806 123.862 59.088 123.542 59.2594Z" fill="#333333"/>
</svg>
