<svg width="256" height="255" viewBox="0 0 256 255" fill="none" xmlns="http://www.w3.org/2000/svg">
<path d="M130.953 223.709C194.49 223.709 245.997 193.971 245.997 157.288C245.997 120.604 194.49 90.8667 130.953 90.8667C67.4155 90.8667 15.9083 120.604 15.9083 157.288C15.9083 193.971 67.4155 223.709 130.953 223.709Z" fill="#F7F7F7"/>
<path d="M16.6377 147.466L111.677 203.165L151.422 198.873L56.382 144.874L16.6377 147.466Z" fill="#59CEEA"/>
<path d="M151.422 198.873L182.237 161.866L86.6224 108.299L56.382 144.874L151.422 198.873Z" fill="#00BDEA"/>
<path d="M86.6224 108.299L134.43 100.522L225.726 153.586L182.237 161.866L86.6224 108.299Z" fill="#59CEEA"/>
<path d="M134.43 100.522L149.118 73.162L240.414 125.865L225.726 153.586L134.43 100.522Z" fill="#00BDEA"/>
<path d="M232.638 127.443L221.305 151.016L153.105 111.376L138.66 102.98L151.422 79.4975L161.918 85.694L232.638 127.443Z" fill="white"/>
<path d="M221.305 151.016L176.968 158.913L91.5503 111.059L129.795 104.5L138.66 102.98L153.105 111.376L221.305 151.016Z" fill="#E0E0E0"/>
<path d="M176.968 158.913L146.734 196.21L98.4277 168.763L61.4144 147.733L91.5503 111.059L125.965 130.339L176.968 158.913Z" fill="white"/>
<path d="M146.734 196.21L128.773 197.74L115.422 198.876L82.6101 179.512L48.9654 159.667L32.3011 149.835L32.1902 149.77H32.2629L46.1769 148.793L61.4145 147.73L78.2317 157.285C76.1649 158.934 69.0517 154.99 68.1898 161.864C67.3266 168.776 84.0304 174.017 84.0304 174.017C87.4512 169.701 81.497 173.114 84.0304 165.206C84.5519 163.577 85.2123 162.454 86.0105 161.706L146.734 196.21Z" fill="#E0E0E0"/>
<path d="M226.234 127.486C230.128 121.347 239.023 105.698 238.007 92.4911C236.712 75.6432 213.527 76.2182 210.791 92.4911C208.055 108.764 224.472 130.147 224.472 130.147L227.352 131.194L226.776 127.486H226.234ZM215.779 94.4341C215.779 92.7141 216.289 91.0327 217.244 89.6025C218.2 88.1723 219.558 87.0576 221.147 86.3994C222.736 85.7411 224.485 85.5689 226.172 85.9045C227.859 86.24 229.409 87.0683 230.625 88.2846C231.841 89.5009 232.67 91.0505 233.005 92.7375C233.341 94.4245 233.168 96.1731 232.51 97.7623C231.852 99.3514 230.737 100.71 229.307 101.665C227.877 102.621 226.196 103.131 224.475 103.131C223.333 103.131 222.202 102.907 221.146 102.47C220.091 102.033 219.131 101.393 218.323 100.585C217.515 99.7774 216.875 98.8185 216.437 97.7631C216 96.7078 215.775 95.5765 215.775 94.4341H215.779Z" fill="#E8AF07"/>
<path d="M240.887 93.5378C239.592 76.69 216.407 77.2663 213.671 93.5378C210.935 109.809 227.352 131.197 227.352 131.197C227.352 131.197 242.184 110.386 240.887 93.5378ZM218.653 95.4822C218.652 93.7621 219.162 92.0805 220.118 90.6502C221.073 89.2198 222.431 88.105 224.02 87.4465C225.609 86.7881 227.358 86.6157 229.045 86.9511C230.732 87.2865 232.282 88.1147 233.498 89.3309C234.715 90.5471 235.543 92.0968 235.879 93.7838C236.215 95.4708 236.042 97.2195 235.384 98.8087C234.726 100.398 233.611 101.756 232.181 102.712C230.751 103.668 229.069 104.178 227.349 104.178C225.043 104.178 222.831 103.262 221.2 101.631C219.569 100 218.653 97.7885 218.653 95.4822Z" fill="#FFD24D"/>
<path d="M53.9607 101.823C53.9607 101.823 87.7227 52.2253 135.051 45.8834C182.379 39.5416 214.899 77.6475 214.899 77.6475" stroke="#00BDEA" stroke-width="5" stroke-linecap="round" stroke-linejoin="round"/>
<path d="M52.9255 154.986C52.0151 156.576 50.5565 158.191 48.9653 159.667L32.3011 149.835L32.2628 149.765L46.1769 148.792C50.735 150.745 54.087 152.957 52.9255 154.986Z" fill="#3EA352"/>
<path d="M47.0834 151.279C50.9734 145.138 59.8742 129.494 58.858 116.283C57.5613 99.4347 34.378 100.011 31.6419 116.283C28.9057 132.554 45.3213 153.938 45.3213 153.938L48.2016 154.986L47.6253 151.279H47.0834ZM36.6284 118.227C36.6284 116.507 37.1384 114.826 38.0938 113.396C39.0493 111.966 40.4074 110.851 41.9963 110.193C43.5852 109.535 45.3335 109.363 47.0203 109.699C48.7071 110.034 50.2564 110.862 51.4725 112.078C52.6886 113.294 53.5168 114.844 53.8523 116.531C54.1878 118.217 54.0156 119.966 53.3575 121.555C52.6993 123.143 51.5848 124.502 50.1549 125.457C48.7249 126.412 47.0437 126.922 45.3239 126.922C44.1817 126.923 43.0506 126.698 41.9953 126.262C40.9399 125.825 39.981 125.184 39.1732 124.377C38.3655 123.569 37.7247 122.611 37.2876 121.555C36.8506 120.5 36.6257 119.369 36.6258 118.227H36.6284Z" fill="#E8AF07"/>
<path d="M61.737 117.331C60.4416 100.483 37.257 101.059 34.5221 117.331C31.7872 133.602 48.2016 154.986 48.2016 154.986C48.2016 154.986 63.0337 134.178 61.737 117.331ZM39.5061 119.275C39.5061 117.555 40.0161 115.874 40.9715 114.444C41.927 113.014 43.2851 111.9 44.874 111.241C46.4629 110.583 48.2112 110.411 49.898 110.747C51.5848 111.082 53.1341 111.91 54.3502 113.126C55.5663 114.342 56.3945 115.892 56.73 117.579C57.0655 119.265 56.8933 121.014 56.2352 122.603C55.577 124.191 54.4625 125.55 53.0325 126.505C51.6026 127.46 49.9214 127.97 48.2016 127.97C45.8954 127.97 43.6837 127.054 42.0529 125.424C40.4222 123.793 39.5061 121.581 39.5061 119.275Z" fill="#FFD24D"/>
<path d="M84.0303 165.208C81.4969 173.113 87.4511 169.704 84.0303 174.02C84.0303 174.02 67.3278 168.778 68.1897 161.866C69.0491 154.997 76.1648 158.934 78.2316 157.288L86.0091 161.708C85.2122 162.457 84.5518 163.583 84.0303 165.208Z" fill="#00BDEA"/>
<path d="M101.31 162.443C94.2201 161.527 89.0908 158.823 86.0104 161.708L78.2329 157.288L78.2712 157.257C80.2869 155.53 77.4373 150.543 82.6062 144.829C87.775 139.114 116.863 133.056 122.623 145.302C128.384 157.547 110.238 163.595 101.31 162.443Z" fill="#59CEEA"/>
<path d="M202.297 109.531L193.685 134.964" stroke="#C2C2C2" stroke-miterlimit="10"/>
<path d="M191.727 103.353L183.116 128.784L154.302 136.522L141.45 124.123" stroke="#C2C2C2" stroke-miterlimit="10"/>
<path d="M55.4321 163.482C57.3306 159.684 62.0239 154.086 68.3377 151.654C90.3748 118.854 123.73 138.176 123.73 138.176L130.953 133.133L172.662 122.783L181.273 97.3501" stroke="#C2C2C2" stroke-miterlimit="10"/>
<path d="M174.247 93.3121L165.635 118.745L137.022 125.107C137.022 125.107 125.718 111.444 133.962 108.244" stroke="#C2C2C2" stroke-miterlimit="10"/>
<path d="M153.105 111.376C152.564 111.729 152.002 112.047 151.422 112.33C143.67 116.119 135.284 110.017 129.795 104.5L138.66 102.98L153.105 111.376Z" fill="#3EA352"/>
<path d="M153.105 111.376L138.66 102.98L151.422 79.4975L161.918 85.694C161.918 85.694 164.162 104.18 153.105 111.376Z" fill="#4BC462"/>
<path d="M178.026 106.942L221.304 133.354L215.775 147.733L201.527 149.769" stroke="#C2C2C2" stroke-miterlimit="10"/>
<path d="M156.174 127.715L180.234 153.586L201.527 149.769L156.174 120.848" stroke="#C2C2C2" stroke-miterlimit="10"/>
<path d="M123.73 138.176C123.73 138.176 169.854 159.667 143.858 194.576L125.052 192.584" stroke="#C2C2C2" stroke-miterlimit="10"/>
<path d="M128.773 197.737L115.422 198.873L82.61 179.512C91.0926 181.209 100.785 182.477 106.5 181.014C114.732 178.907 123.951 190.521 128.773 197.737Z" fill="#3EA352"/>
<path d="M115.557 106.942L139.952 138.176L171.726 165.379" stroke="#C2C2C2" stroke-miterlimit="10"/>
<path d="M119.31 173.627C119.31 173.627 115.111 163.719 122.021 159.555C128.932 155.391 144.867 155.938 143.809 170.01C142.75 184.082 142.001 191.167 136.131 183.109C130.261 175.051 119.31 173.627 119.31 173.627Z" fill="#4BC462"/>
</svg>
