<svg width="256" height="255" viewBox="0 0 256 255" fill="none" xmlns="http://www.w3.org/2000/svg">
<path d="M124.71 239.866C188.247 239.866 239.754 210.131 239.754 173.451C239.754 136.771 188.247 107.036 124.71 107.036C61.1739 107.036 9.66724 136.771 9.66724 173.451C9.66724 210.131 61.1739 239.866 124.71 239.866Z" fill="#F7F7F7"/>
<path d="M61.9423 219.249L209.766 133.709" stroke="#DBDBDB" stroke-width="6" stroke-linecap="round" stroke-linejoin="round"/>
<path d="M200.458 124.287L164.44 145.082C163.942 145.376 163.305 145.197 163.024 144.7C162.935 144.547 162.884 144.356 162.884 144.177V71.5657C162.884 71.196 163.088 70.8518 163.407 70.6605L199.426 49.8653C199.923 49.572 200.56 49.7505 200.841 50.2478C200.93 50.4008 200.981 50.5793 200.981 50.7705V123.382C200.981 123.764 200.777 124.108 200.458 124.287Z" fill="#00BDEA"/>
<path d="M202.664 125.384L166.645 146.179C166.148 146.472 165.51 146.294 165.23 145.796C165.141 145.643 165.09 145.465 165.09 145.274V72.6623C165.09 72.2925 165.294 71.9482 165.612 71.757L201.631 50.9618C202.128 50.6685 202.766 50.847 203.046 51.3443C203.136 51.4973 203.187 51.6757 203.187 51.867V124.478C203.174 124.861 202.983 125.192 202.664 125.384Z" fill="#3ED4F7"/>
<path d="M190.289 86.1247C193.124 81.2157 193.122 75.9091 190.287 74.2719C187.451 72.6347 182.855 75.287 180.021 80.1959C177.186 85.1049 177.187 90.4115 180.023 92.0487C182.859 93.6859 187.455 91.0336 190.289 86.1247Z" fill="#00BDEA"/>
<path d="M189.264 85.9198C192.098 81.0109 192.097 75.7042 189.261 74.067C186.426 72.4298 181.829 75.0821 178.995 79.991C176.161 84.9 176.162 90.2066 178.998 91.8438C181.833 93.481 186.429 90.8287 189.264 85.9198Z" fill="white"/>
<path d="M175.736 102.982L192.528 93.2918" stroke="white" stroke-width="6" stroke-linecap="round" stroke-linejoin="round"/>
<path d="M175.736 107.827L192.528 98.1368" stroke="white" stroke-width="6" stroke-linecap="round" stroke-linejoin="round"/>
<path d="M175.736 112.889L192.528 103.186" stroke="white" stroke-width="6" stroke-linecap="round" stroke-linejoin="round"/>
<path d="M163.407 70.6732L165.6 71.757L202.664 50.9618L199.859 49.5338L163.407 70.6732Z" fill="#85E2F7"/>
<path d="M196.327 122.285L172.701 135.928V125.575L196.327 111.932V122.285Z" fill="white"/>
<path d="M172.702 125.575L171.937 125.128V135.481L172.702 135.928V125.575Z" fill="#9E9E9E"/>
<path d="M195.55 111.486L196.327 111.932L172.702 125.575L171.937 125.129L195.55 111.486Z" fill="#F7F7F7"/>
<path d="M154.443 25.9845L152.888 28.713L152.225 28.662V148.996C152.225 149.443 151.983 149.851 151.6 150.08L111.96 172.966L109.92 176.384L107.332 175.261C107.179 175.223 107.039 175.159 106.911 175.083L106.809 175.032L106.822 175.006C106.529 174.777 106.35 174.407 106.363 174.038V50.9362C106.363 50.49 106.605 50.082 106.988 49.8525L108.365 49.062L150.363 24.8115C150.657 24.633 151.001 24.5948 151.332 24.684L151.358 24.633L154.443 25.9845Z" fill="#009DC2"/>
<path d="M113.287 51.3697L111.412 55.4243L106.351 53.3205L106.338 50.9362C106.338 50.49 106.58 50.082 106.963 49.8525L108.34 49.062L113.287 51.3697Z" fill="#38C1E0"/>
<path d="M154.443 25.9845L152.888 28.713L152.225 28.662V30.1665L113.286 51.3697L108.339 49.062L150.338 24.8115C150.631 24.633 150.975 24.5948 151.307 24.684L151.332 24.633L154.443 25.9845Z" fill="#3ED4F7"/>
<path d="M154.482 151.266L111.106 176.307C110.507 176.651 109.742 176.447 109.398 175.848C109.283 175.657 109.232 175.44 109.232 175.223V52.1347C109.232 51.6885 109.474 51.2677 109.857 51.051L153.232 26.01C153.831 25.6657 154.596 25.8698 154.941 26.469C155.055 26.6603 155.106 26.877 155.106 27.0937V150.195C155.106 150.628 154.864 151.049 154.482 151.266Z" fill="#00BDEA"/>
<path d="M143.321 79.2335C148.148 70.873 148.146 61.8351 143.317 59.0466C138.487 56.2581 130.659 60.775 125.832 69.1355C121.005 77.4959 121.007 86.5339 125.836 89.3224C130.666 92.1108 138.494 87.5939 143.321 79.2335Z" fill="#009DC2"/>
<path d="M141.693 78.811C146.52 70.4506 146.517 61.4126 141.688 58.6241C136.858 55.8356 129.03 60.3526 124.203 68.713C119.376 77.0734 119.378 86.1114 124.208 88.8999C129.037 91.6884 136.865 87.1714 141.693 78.811Z" fill="white"/>
<path d="M149.305 144.279L114.307 164.488V149.137L149.305 128.928V144.279Z" fill="#00ADD6"/>
<path d="M150.453 144.942L115.454 165.151V149.8L150.453 129.591V144.942Z" fill="#4BC462"/>
<path d="M118.514 115.184L147.393 98.5193" stroke="white" stroke-width="6" stroke-linecap="round" stroke-linejoin="round"/>
<path d="M118.514 123.522L147.393 106.845" stroke="white" stroke-width="6" stroke-linecap="round" stroke-linejoin="round"/>
<path d="M118.514 132.218L147.393 115.553" stroke="white" stroke-width="6" stroke-linecap="round" stroke-linejoin="round"/>
<path d="M115.454 149.8L114.307 149.137V164.488L115.454 165.151V149.8Z" fill="#3EA352"/>
<path d="M149.305 128.928L150.453 129.591L115.454 149.8L114.307 149.137L149.305 128.928Z" fill="#ADF0BA"/>
<path d="M144.868 200.188C144.868 202.661 145.48 211.216 145.48 211.216C145.939 212.746 146.921 213.792 147.61 213.792C148.018 213.792 148.311 213.486 148.54 212.938C149.089 211.573 148.948 203.911 148.948 200.455C148.948 197.829 149.548 194.654 149.968 193.009C150.529 190.842 152.506 187.208 154.048 183.447C156.433 177.646 157.172 174.216 155.476 173.464C155.183 173.336 154.354 172.852 153.347 172.342C151.486 171.411 149.038 170.429 148.171 171.5C147.75 172.023 146.36 178.168 145.646 182.465C144.881 187.03 144.333 188.611 144.218 189.299C144.116 190.051 144.868 198.173 144.868 200.188Z" fill="#D1D1D1"/>
<path d="M155.591 203.872C155.655 204.102 155.808 204.306 156.088 204.854C156.369 205.402 157.057 206.346 157.452 206.346C158.268 206.346 158.651 204.701 159.263 202.304C159.709 200.583 160.525 198.67 161.099 196.363C161.418 195.1 163.802 183.931 163.802 181.713C163.802 179.494 164.847 174.892 164.784 171.959C164.784 171.22 164.72 170.493 164.618 169.766L158.013 171.87L156.445 178.589C156.445 178.589 156.649 199.308 155.591 203.809C155.591 203.847 155.591 203.86 155.591 203.872Z" fill="#9E9E9E"/>
<path d="M145.875 211.216L146.959 212.44C146.959 212.44 148.731 212.492 148.744 212.581C148.859 211.701 149.101 209.865 149.165 207.94C149.216 206.537 149.356 205.045 149.356 202.738C149.356 200.2 149.56 194.654 149.994 193.01C150.555 190.842 152.531 187.208 154.074 183.447C156.458 177.646 159.722 174.382 158.026 173.63C157.733 173.502 154.38 172.852 153.372 172.342L149.547 171.895C149.547 171.895 145.888 186.928 145.697 190.409C145.518 193.163 145.837 207.85 145.875 211.216Z" fill="#9E9E9E"/>
<path d="M160.028 146.969C160.895 148.206 161.775 149.43 162.642 150.667C163.024 151.202 163.407 151.751 163.789 152.286C164.822 153.74 165.855 155.193 166.875 156.646C166.301 157.972 165.727 159.299 165.166 160.625C164.529 162.104 163.279 163.952 163.05 165.533C162.82 167.114 163.012 168.274 163.853 167.981C164.083 167.892 164.299 167.752 164.478 167.586C165.052 167.102 166.709 165.367 167.117 164.755C168.481 162.69 169.935 160.65 171.223 158.534C172.077 157.157 172.408 156.34 171.643 154.734C170.674 152.719 169.208 150.807 168.022 148.907C167.117 147.454 166.314 145.796 165.281 144.394C165.166 144.241 165.052 144.088 164.924 143.935C164.58 143.501 164.134 143.157 163.636 142.94C161.214 141.907 158.103 144.228 160.028 146.969Z" fill="white"/>
<path d="M147.584 131.86C147.571 131.656 147.571 131.465 147.571 131.274C147.571 131.032 147.597 130.802 147.622 130.56C147.992 127.691 150.351 126.697 152.608 126.697C155.03 126.697 157.108 128.698 157.924 131.516C158.154 132.294 158.269 133.097 158.294 133.913C158.294 133.99 158.575 136.272 158.575 136.361C158.587 137.164 158.434 137.968 158.141 138.72C158.626 140.454 158.893 142.239 158.919 144.037C158.957 145.618 158.83 147.212 158.549 148.767L154.189 148.002C154.482 146.396 154.558 144.751 154.444 143.119C154.393 142.456 153.806 141.959 153.143 142.01C152.62 142.035 152.098 142.022 151.575 141.958C150.172 141.793 150.453 139.09 149.293 137.853C148.719 137.228 148.285 137.585 147.852 137.266C147.699 137.152 147.673 136.948 147.775 136.795C147.775 136.782 147.788 136.782 147.788 136.769C148.094 136.412 148.515 135.724 148.234 134.895C147.877 133.9 147.661 132.893 147.584 131.86Z" fill="white"/>
<path d="M147.558 131.274C147.558 131.465 147.558 131.656 147.571 131.86C148.986 132.613 151.868 134.564 152.034 136.221C152.199 137.904 152.952 139.88 154.048 140.607C154.201 140.709 154.367 140.785 154.545 140.849C154.826 140.926 155.132 141.155 155.425 141.461C156.547 142.609 157.631 144.904 157.631 144.904L158.906 144.037C158.88 142.277 158.638 140.531 158.166 138.835C158.039 139.026 157.95 139.141 157.924 139.192C157.924 139.192 157.924 139.205 157.911 139.205C157.618 139.281 157.35 139.332 157.095 139.37C156.063 139.536 155.272 139.46 154.673 139.23C152.544 138.414 152.977 135.673 153.194 134.487C152.505 136.667 151.46 131.682 151.46 131.682L147.558 131.274Z" fill="#D1D1D1"/>
<path d="M146.806 132.077L151.626 132.575C151.626 132.575 152.467 137.203 153.143 135.15C152.913 136.259 152.684 138.899 154.775 139.664C155.361 139.88 156.139 139.944 157.159 139.791C157.414 139.753 157.669 139.702 157.95 139.638C158.37 139.536 164.962 130.675 157.988 127.462C157.491 127.232 157.032 127.028 156.611 126.85C151.026 124.453 150.963 125.855 146.793 128.456C146.602 128.571 146.424 128.686 146.271 128.8C142.701 131.325 146.806 132.077 146.806 132.077Z" fill="#333333"/>
<path d="M150.045 174.573C150.147 174.611 150.261 174.675 150.376 174.726C155.757 177.021 166.071 173.413 166.071 169.537C166.071 166.12 163.802 161.836 163.802 161.836C163.802 161.836 166.722 145.924 163.993 143.348C161.265 140.773 159.161 143.884 156.075 144.292C155.616 144.355 155.157 144.432 154.711 144.534C153.245 144.891 152.518 145.465 151.077 146.816C149.318 148.474 148.642 150.718 148.566 153.982C148.54 155.193 148.591 156.544 148.706 158.062C148.808 159.49 148.961 161.058 149.152 162.792C149.866 169.575 144.129 172.087 150.045 174.573Z" fill="white"/>
<path d="M135.216 155.512V154.989C135.204 154.811 135.204 154.645 135.191 154.466C135.165 154.122 135.102 153.778 135.038 153.446C134.961 153.102 134.859 152.771 134.719 152.452C134.655 152.286 134.579 152.133 134.49 151.98C134.426 151.878 134.362 151.763 134.298 151.674C134.26 151.623 134.222 151.572 134.184 151.521C134.082 151.394 133.89 151.381 133.763 151.483C133.661 151.572 133.623 151.712 133.686 151.84L133.712 151.891C133.737 151.929 133.763 152.006 133.788 152.069C133.814 152.133 133.839 152.197 133.865 152.273C133.916 152.414 133.941 152.554 133.98 152.694C134.043 152.987 134.069 153.281 134.082 153.587C134.082 153.816 134.082 154.058 134.056 154.288C133.827 154.122 133.572 153.969 133.317 153.842C133.176 153.765 133.023 153.701 132.87 153.65L132.832 153.612C132.717 153.523 132.59 153.421 132.475 153.306C132.233 153.102 132.003 152.885 131.774 152.656L131.417 152.312C131.073 151.967 130.741 151.623 130.397 151.279C130.257 151.139 130.027 151.139 129.874 151.266C129.747 151.394 129.721 151.598 129.823 151.751C130.193 152.286 130.575 152.809 130.971 153.319C130.818 153.166 130.677 153.013 130.537 152.847C130.346 152.63 130.167 152.414 129.976 152.184L129.963 152.171C129.861 152.044 129.696 152.006 129.543 152.069C129.504 152.082 129.479 152.108 129.441 152.12C129.3 152.235 129.262 152.439 129.351 152.592C129.415 152.707 129.479 152.822 129.543 152.936C129.428 152.911 129.3 152.936 129.211 153.013C129.071 153.128 129.033 153.319 129.122 153.485C129.211 153.638 129.288 153.791 129.377 153.944C129.275 154.058 129.262 154.237 129.339 154.364L129.543 154.721C129.619 154.836 129.696 154.951 129.785 155.078C129.963 155.321 130.155 155.537 130.384 155.729C130.601 155.92 130.856 156.086 131.111 156.213C131.111 156.213 131.111 156.213 131.124 156.213C131.136 156.213 131.124 156.213 131.136 156.226C131.43 156.43 131.736 156.608 132.054 156.761C133.176 157.322 134.247 157.603 134.847 156.902C134.923 156.812 135 156.698 135.051 156.596C135.076 156.545 135.102 156.494 135.114 156.443C135.191 156.226 135.216 155.996 135.178 155.767C135.191 155.729 135.216 155.678 135.216 155.627C135.229 155.614 135.229 155.563 135.216 155.512Z" fill="white"/>
<path d="M133.266 157.297L141.732 161.823C142.408 162.244 145.264 159.91 145.863 159.451L154.66 153.676C156.458 152.299 156.79 149.723 155.4 147.925C155.387 147.913 155.387 147.9 155.374 147.9C153.959 146.102 152.225 144.929 150.427 146.319C150.096 146.574 141.745 157.297 141.745 157.297L135.446 155.575C135.013 156.009 135.319 156.034 134.974 156.787C134.949 156.838 134.923 156.876 134.872 156.914C134.362 157.373 132.692 156.927 133.266 157.297Z" fill="white"/>
<path d="M129.122 153.497C129.211 153.65 129.288 153.803 129.377 153.956C129.275 154.071 129.262 154.25 129.339 154.377L129.543 154.734C129.619 154.849 129.696 154.964 129.785 155.091C129.964 155.333 130.155 155.55 130.384 155.741C130.601 155.932 130.856 156.098 131.111 156.226C131.111 156.226 131.111 156.226 131.124 156.226C131.137 156.226 131.124 156.226 131.137 156.239C131.43 156.443 131.736 156.621 132.055 156.774C133.177 157.335 134.247 157.615 134.847 156.914L134.885 156.85C134.885 156.85 133.865 155.945 133.024 155.002C132.922 154.9 132.832 154.785 132.743 154.67C132.615 154.517 132.501 154.377 132.399 154.224C132.297 154.084 132.208 153.943 132.118 153.79C132.08 153.714 132.042 153.638 132.004 153.561C131.991 153.536 131.978 153.51 131.978 153.485L131.953 153.421C131.8 153.038 131.621 152.656 131.404 152.299C131.06 151.954 130.729 151.61 130.384 151.266C130.244 151.126 130.015 151.126 129.862 151.253C129.734 151.381 129.709 151.585 129.811 151.738C130.18 152.273 130.563 152.796 130.958 153.306C130.805 153.153 130.665 153 130.525 152.834C130.333 152.617 130.155 152.401 129.964 152.171L129.951 152.159C129.849 152.031 129.683 151.993 129.53 152.056C129.492 152.069 129.466 152.095 129.428 152.107C129.288 152.222 129.25 152.426 129.339 152.579C129.403 152.694 129.466 152.809 129.53 152.924C129.415 152.898 129.288 152.923 129.199 153C129.071 153.14 129.033 153.332 129.122 153.497Z" fill="#D1D1D1"/>
<path d="M150.045 174.573C150.147 174.624 150.261 174.675 150.376 174.726C155.757 177.021 166.071 173.413 166.071 169.537C166.071 166.12 163.802 161.836 163.802 161.836C163.802 161.836 166.722 145.924 163.993 143.348C161.265 140.773 159.161 143.884 156.075 144.292C155.616 144.355 155.157 144.432 154.711 144.534C154.29 144.84 153.882 145.159 153.487 145.516C149.343 149.226 152.913 167.803 150.045 174.573Z" fill="#757575"/>
<path d="M133.266 157.297L141.732 161.823C142.408 162.244 145.264 159.91 145.863 159.451L154.66 153.676C154.992 153.421 155.285 153.115 155.527 152.77L153.016 145.86C153.016 145.86 143.185 158.457 142.242 158.954C141.592 159.298 137.359 157.832 134.872 156.914C134.362 157.373 132.692 156.927 133.266 157.297Z" fill="#757575"/>
<path d="M162.591 151.049C162.591 151.049 162.846 151.483 163.789 152.286C164.529 152.911 165.689 153.752 167.474 154.772C171.528 157.08 167.691 157.718 165.765 161.708C164.656 164.016 164.121 166.388 163.853 167.981C164.082 167.892 164.299 167.752 164.478 167.586C165.051 167.102 166.709 165.367 167.117 164.755C168.481 162.69 169.935 160.65 171.222 158.534C172.077 157.157 172.408 156.34 171.643 154.734C170.674 152.719 169.208 150.807 168.022 148.907C167.117 147.454 166.314 145.796 165.281 144.394C164.733 143.132 163.088 142.634 162.999 142.749L162.616 150.641L162.591 151.049Z" fill="#757575"/>
<path d="M153.105 135.979C153.879 135.979 154.507 135.351 154.507 134.576C154.507 133.802 153.879 133.174 153.105 133.174C152.33 133.174 151.702 133.802 151.702 134.576C151.702 135.351 152.33 135.979 153.105 135.979Z" fill="#D1D1D1"/>
<path d="M141.234 209.674C141.387 209.98 144.843 212.976 147.214 213.92C147.788 214.149 148.604 213.958 148.757 213.92C149.458 213.741 149.369 210.949 149.343 210.362C149.343 210.286 149.343 210.26 149.343 210.26L148.668 210.477L147.507 210.847C147.112 210.847 146.717 210.707 146.424 210.439L146.36 210.388L145.314 209.47C144.141 208.654 143.542 208.004 142.407 207.761C142.076 207.698 141.553 208.463 141.336 209.075C141.222 209.33 141.183 209.559 141.234 209.674Z" fill="#D1D1D1"/>
<path d="M151.46 203.12C151.613 203.426 155.068 206.423 157.44 207.366C158.013 207.596 158.829 207.404 158.982 207.366C159.773 207.175 159.556 203.707 159.556 203.707L157.707 204.281C157.656 204.281 157.605 204.281 157.554 204.281C157.21 204.242 156.879 204.102 156.624 203.873L155.514 202.904C155.463 202.865 155.4 202.827 155.349 202.789C154.278 202.024 153.691 201.437 152.62 201.208H152.607C152.544 201.195 152.493 201.208 152.442 201.233C152.391 201.259 152.352 201.284 152.301 201.323L152.289 201.335C152.225 201.386 152.161 201.45 152.11 201.514C151.919 201.743 151.766 201.998 151.638 202.266C151.473 202.61 151.383 202.967 151.46 203.12Z" fill="#D1D1D1"/>
<path d="M151.46 203.12C151.613 203.426 155.068 206.423 157.44 207.366C158.013 207.596 158.829 207.404 158.982 207.366C159.773 207.175 159.556 203.707 159.556 203.707L157.707 204.281C157.656 204.281 157.605 204.281 157.554 204.281C157.21 204.242 156.879 204.102 156.624 203.873L155.514 202.904C155.463 202.865 155.4 202.827 155.349 202.789C154.89 202.776 154.405 202.751 153.933 202.7C153.079 202.623 152.25 202.483 151.638 202.253C151.473 202.61 151.383 202.967 151.46 203.12Z" fill="#757575"/>
<path d="M141.234 209.674C141.387 209.98 144.843 212.976 147.214 213.92C147.788 214.149 148.604 213.958 148.757 213.92C149.458 213.741 149.369 210.949 149.343 210.362C149.114 210.413 148.897 210.452 148.668 210.464C147.903 210.515 147.125 210.49 146.36 210.375C145.098 210.197 143.453 209.814 141.336 209.062C141.222 209.33 141.183 209.559 141.234 209.674Z" fill="#757575"/>
<path d="M120.682 156.965V152.566L122.275 151.649C122.683 151.419 123.002 151.33 123.232 151.381C123.461 151.432 123.576 151.649 123.576 152.018C123.576 152.388 123.461 152.72 123.244 153.038C123.028 153.357 122.734 153.612 122.365 153.816L122.454 153.599C122.875 153.357 123.206 153.268 123.423 153.331C123.64 153.395 123.754 153.612 123.754 153.995C123.754 154.377 123.64 154.734 123.41 155.065C123.181 155.41 122.836 155.703 122.365 155.971L120.682 156.965ZM121.09 154.326L122.263 153.65C122.556 153.484 122.785 153.281 122.938 153.051C123.091 152.822 123.181 152.579 123.181 152.311C123.181 152.044 123.104 151.891 122.938 151.84C122.785 151.789 122.556 151.853 122.263 152.031L121.09 152.707V154.326ZM121.09 156.366L122.39 155.626C122.709 155.435 122.964 155.231 123.13 154.989C123.295 154.747 123.385 154.492 123.385 154.199C123.385 153.918 123.295 153.752 123.13 153.714C122.964 153.676 122.722 153.752 122.39 153.944L121.09 154.683V156.366Z" fill="white"/>
<path d="M126.381 150.858C126.827 150.603 127.184 150.514 127.414 150.616C127.656 150.705 127.771 150.986 127.771 151.445C127.771 151.916 127.643 152.35 127.388 152.745C127.133 153.14 126.763 153.472 126.292 153.74L124.774 154.607V150.208L125.17 149.978V151.547L126.381 150.858ZM126.292 153.37C126.649 153.166 126.916 152.924 127.095 152.63C127.273 152.35 127.375 152.031 127.375 151.674C127.375 151.33 127.286 151.126 127.108 151.062C126.929 150.998 126.661 151.075 126.304 151.279L125.195 151.916V153.995L126.292 153.37ZM128.434 152.503V148.104L128.829 147.875V152.273L128.434 152.503Z" fill="white"/>
<path d="M130.129 151.534V147.135L132.934 145.529V145.924L130.537 147.301V148.741L131.787 148.028C132.233 147.773 132.577 147.671 132.82 147.747C133.049 147.824 133.177 148.066 133.177 148.474C133.177 148.895 133.049 149.29 132.794 149.672C132.539 150.042 132.182 150.361 131.698 150.641L130.129 151.534ZM130.525 150.935L131.685 150.271C132.042 150.067 132.31 149.838 132.488 149.57C132.667 149.315 132.756 149.035 132.756 148.729C132.756 148.13 132.399 148.04 131.685 148.448L130.525 149.111V150.935Z" fill="white"/>
<path d="M134.094 149.251V144.853L135.522 144.024C135.841 143.833 136.122 143.731 136.364 143.718C136.593 143.705 136.772 143.769 136.899 143.922C137.027 144.075 137.091 144.304 137.091 144.623C137.091 144.929 137.027 145.235 136.899 145.528C136.772 145.822 136.593 146.102 136.364 146.357C136.134 146.612 135.854 146.829 135.522 147.02L134.311 147.709L134.49 147.39V148.996L134.094 149.251ZM134.502 147.454L134.324 147.326L135.522 146.638C135.905 146.421 136.198 146.153 136.389 145.847C136.593 145.541 136.683 145.222 136.683 144.865C136.683 144.508 136.581 144.304 136.389 144.215C136.185 144.139 135.905 144.202 135.522 144.432L134.324 145.12L134.502 144.802V147.454Z" fill="white"/>
<path d="M137.167 147.492L138.914 142.086L139.309 141.856L141.056 145.248L140.635 145.49L139.029 142.29L139.194 142.201L137.588 147.25L137.167 147.492ZM137.856 145.924L137.97 145.477L140.189 144.202L140.304 144.508L137.856 145.924Z" fill="white"/>
<path d="M142.369 144.508V140.377L142.484 140.441L141.031 141.283V140.875L144.116 139.102V139.51L142.663 140.339L142.765 140.148V144.266L142.369 144.508Z" fill="white"/>
<path d="M146.424 139.345C146.87 139.09 147.227 139 147.457 139.102C147.686 139.204 147.814 139.472 147.814 139.931C147.814 140.403 147.686 140.836 147.431 141.232C147.176 141.627 146.806 141.958 146.335 142.226L144.817 143.093V138.695L145.213 138.465V140.033L146.424 139.345ZM146.322 141.856C146.679 141.652 146.947 141.41 147.125 141.117C147.304 140.837 147.406 140.518 147.406 140.161C147.406 139.817 147.316 139.612 147.138 139.549C146.959 139.485 146.692 139.561 146.335 139.765L145.225 140.403V142.481L146.322 141.856Z" fill="white"/>
<path d="M133.457 82.0972V66.4785L133.635 66.555L129.912 68.697V68.2635L133.839 66.0067V81.8805L133.457 82.0972Z" fill="#333333"/>
<path d="M96.737 182.325L49.4345 209.635C48.7843 210.018 47.9428 209.789 47.573 209.138C47.4583 208.934 47.3945 208.692 47.3945 208.45V113.067C47.3945 112.582 47.6495 112.123 48.083 111.881L95.3855 84.5707C96.0358 84.1882 96.8773 84.4177 97.247 85.068C97.3618 85.272 97.4255 85.5142 97.4255 85.7565V181.139C97.4255 181.624 97.1578 182.083 96.737 182.325Z" fill="#57C0D9"/>
<path d="M99.6312 183.753L52.3287 211.063C51.6784 211.446 50.8369 211.216 50.4672 210.566C50.3524 210.362 50.2887 210.12 50.2887 209.878V114.495C50.2887 114.01 50.5437 113.551 50.9772 113.309L98.2797 85.9987C98.9299 85.6162 99.7714 85.8458 100.141 86.496C100.256 86.7 100.32 86.9422 100.32 87.1845V182.567C100.307 183.052 100.052 183.511 99.6312 183.753Z" fill="#3ED4F7"/>
<path d="M82.0376 131.902C85.7591 125.457 85.7555 118.488 82.0296 116.336C78.3037 114.185 72.2664 117.667 68.5449 124.112C64.8234 130.558 64.827 137.527 68.5529 139.678C72.2788 141.829 78.3161 138.348 82.0376 131.902Z" fill="#00BDEA"/>
<path d="M80.5851 131.792C84.3066 125.347 84.308 118.38 80.5882 116.233C76.8684 114.085 70.836 117.569 67.1145 124.015C63.393 130.461 63.3916 137.427 67.1114 139.575C70.8312 141.722 76.8636 138.238 80.5851 131.792Z" fill="white"/>
<path d="M64.2627 154.326L86.3074 141.589" stroke="white" stroke-width="6" stroke-linecap="round" stroke-linejoin="round"/>
<path d="M64.2627 160.688L86.3074 147.951" stroke="white" stroke-width="6" stroke-linecap="round" stroke-linejoin="round"/>
<path d="M64.2627 167.331L86.3074 154.606" stroke="white" stroke-width="6" stroke-linecap="round" stroke-linejoin="round"/>
<path d="M48.0575 111.881L50.9517 113.309L99.6312 85.9987L95.9337 84.1245L48.0575 111.881Z" fill="#85E2F7"/>
<path d="M47.3817 114.941L50.2632 116.178V210.4L47.4837 208.96L47.3817 114.941Z" fill="#00BDEA"/>
<path d="M93.3582 176.868L62.3247 194.782V181.178L93.3582 163.251V176.868Z" fill="white"/>
<path d="M62.3247 181.178L61.3047 180.591V194.195L62.3247 194.782V181.178Z" fill="#9E9E9E"/>
<path d="M92.3382 162.665L93.3582 163.251L62.3247 181.177L61.3047 180.591L92.3382 162.665Z" fill="#F7F7F7"/>
<path d="M71.4793 134.194V134.002L74.9345 127.984C75.2788 127.398 75.5338 126.901 75.7123 126.506C75.8908 126.11 76.0055 125.766 76.0693 125.473C76.133 125.179 76.1585 124.912 76.1585 124.657C76.1585 124.007 75.9673 123.611 75.5848 123.446C75.2023 123.28 74.654 123.407 73.9273 123.828C73.379 124.147 72.9073 124.504 72.4993 124.924C72.0913 125.345 71.747 125.817 71.4665 126.365L71.3008 126.276C71.594 125.715 71.9638 125.218 72.3973 124.759C72.8308 124.312 73.3408 123.917 73.9273 123.586C74.4245 123.292 74.8708 123.139 75.2278 123.114C75.5975 123.088 75.878 123.19 76.082 123.433C76.286 123.675 76.3753 124.032 76.3753 124.516C76.3753 124.81 76.337 125.116 76.2605 125.434C76.184 125.753 76.0565 126.123 75.878 126.544C75.6995 126.964 75.4318 127.474 75.0748 128.074L71.7215 133.913L71.5813 133.888L76.796 130.891V131.146L71.4793 134.194Z" fill="#333333"/>
<path d="M184.457 87.108C183.998 87.3757 183.59 87.516 183.207 87.5415C182.838 87.567 182.557 87.4905 182.366 87.312L182.481 87.1207C182.646 87.2865 182.901 87.3502 183.258 87.3375C183.603 87.312 184.011 87.1717 184.457 86.9167C185.056 86.5725 185.515 86.1517 185.821 85.6545C186.127 85.1572 186.28 84.6472 186.28 84.1117C186.28 83.5762 186.127 83.2447 185.808 83.1045C185.49 82.9642 185.005 83.0917 184.329 83.4742L184.011 83.6527V83.4998L186.025 79.2923L186.038 79.356L182.532 81.3705V81.1792L186.204 79.0627V79.2157L184.189 83.4232L184.176 83.3595L184.304 83.283C185.018 82.875 185.553 82.7475 185.91 82.9005C186.255 83.0535 186.433 83.4233 186.433 84.0098C186.433 84.3923 186.357 84.7748 186.204 85.1573C186.051 85.5398 185.821 85.8967 185.528 86.2282C185.26 86.5725 184.89 86.8657 184.457 87.108Z" fill="#333333"/>
</svg>
