<svg width="255" height="255" viewBox="0 0 255 255" fill="none" xmlns="http://www.w3.org/2000/svg">
<path d="M127.784 222.593C191.322 222.593 242.829 192.856 242.829 156.172C242.829 119.489 191.322 89.7511 127.784 89.7511C64.2469 89.7511 12.7397 119.489 12.7397 156.172C12.7397 192.856 64.2469 222.593 127.784 222.593Z" fill="#F7F7F7"/>
<path d="M84.122 152.773L77.5481 156.569V151.035L84.122 147.241V152.773Z" fill="#B5BEC6"/>
<path d="M135.796 140.323L149.244 151.688L152.299 149.922V126.152L135.796 116.627V140.323Z" fill="#F2F3F4"/>
<path d="M149.244 127.999V148.628L101.294 120.944V111.401L102.291 100.891L149.244 127.999Z" fill="#B5BEC6"/>
<path d="M132.743 142.164L149.244 151.688V127.995L132.743 118.47V142.164Z" fill="#B5BEC6"/>
<path d="M117.73 101.357L117.728 133.494L101.232 123.971V112.116L101.294 111.401L102.291 99.9383L103.307 93.0278L117.73 101.357Z" fill="#CAD2DA"/>
<path d="M103.307 93.0278L106.363 91.1893L120.783 99.5137L117.73 101.357L103.307 93.0278Z" fill="#E4E4EA"/>
<path d="M117.75 109.814L120.783 107.961L152.299 126.152L149.244 127.995L117.75 109.814Z" fill="#E4E4EA"/>
<path d="M110.402 135.512L112.709 144.73L110.402 150.774L74.1132 130.166V114.904L110.402 135.512Z" fill="#B5BEC6"/>
<path d="M101.617 99.2256L74.1183 114.908L110.402 135.511L137.912 119.841L101.617 99.2256Z" fill="#E4E4EA"/>
<path d="M133.763 89.1344C140.471 85.2615 140.471 72.7034 133.763 61.085C127.055 49.4667 116.18 43.1877 109.472 47.0606C102.764 50.9335 102.763 63.4917 109.471 75.11C116.179 86.7284 127.055 93.0073 133.763 89.1344Z" fill="#FFC61E"/>
<path d="M137.912 119.836L110.404 135.512V150.762L137.913 135.089L137.912 119.836Z" fill="#CAD2DA"/>
<path d="M129.739 38.1646C124.001 34.8559 118.797 34.4097 114.909 36.3413L114.869 36.3337L106.59 41.1277C110.499 39.0775 115.789 39.4906 121.617 42.8566C133.648 49.8053 143.407 66.6991 143.407 80.5966C143.407 87.2801 141.146 92.0524 137.463 94.4163L144.688 90.2407C144.807 90.1756 144.943 90.1208 145.071 90.0481C149.059 87.7888 151.524 82.8941 151.524 75.8956C151.517 62.002 141.76 45.1095 129.739 38.1646Z" fill="#E4E4EA"/>
<path d="M137.172 93.5786C145.544 88.7452 145.544 73.0721 137.172 58.5718C128.8 44.0714 115.227 36.2347 106.855 41.0681C98.4836 45.9015 98.4837 61.5746 106.855 76.075C115.227 90.5753 128.801 98.412 137.172 93.5786Z" fill="#5E5E5E"/>
<path d="M135.25 92.2612C142.912 87.838 142.912 73.4955 135.251 60.2263C127.59 46.9572 115.169 39.7861 107.508 44.2093C99.8465 48.6325 99.8463 62.975 107.507 76.2442C115.168 89.5133 127.589 96.6844 135.25 92.2612Z" fill="#CAD2DA"/>
<path d="M100.124 96.3696L77.8821 83.7331V115.343L100.124 127.974V96.3696Z" fill="#B5BEC6"/>
<path d="M121.794 84.02L100.125 96.3696V127.965L121.798 115.621L121.794 84.02Z" fill="#E4E4EA"/>
<path d="M116.07 118.83L110.752 115.762V65.3029L116.071 68.3744L116.07 118.83Z" fill="#00BDEA"/>
<path d="M133.036 62.2404C133.036 64.4474 131.486 65.3425 129.573 64.2383C127.661 63.1342 126.112 60.449 126.112 58.2458C126.112 56.0426 127.662 55.1425 129.573 56.2479C131.484 57.3533 133.036 60.0308 133.036 62.2404Z" fill="#E58800"/>
<path d="M133.365 61.9497C133.365 64.1567 131.815 65.0518 129.902 63.9476C127.99 62.8435 126.44 60.1583 126.44 57.9551C126.44 55.7519 127.991 54.8518 129.902 55.9572C131.813 57.0626 133.365 59.7401 133.365 61.9497Z" fill="#FFC61E"/>
<path d="M105.429 118.83L110.752 115.762V65.3029L105.427 68.3744L105.429 118.83Z" fill="#0088A8"/>
<path d="M105.428 118.83V124.942L116.07 118.83L110.752 115.762L105.428 118.83Z" fill="#B5BEC6"/>
<path d="M129.4 88.2976C129.4 90.5046 127.848 91.4009 125.937 90.2968C124.026 89.1926 122.474 86.5062 122.475 84.3043C122.476 82.1024 124.024 81.2009 125.937 82.3051C127.849 83.4092 129.4 86.0893 129.4 88.2976Z" fill="#E58800"/>
<path d="M129.733 88.0082C129.733 90.2139 128.181 91.1102 126.27 90.0061C124.358 88.9019 122.807 86.2168 122.808 84.0136C122.809 81.8104 124.357 80.9102 126.27 82.0144C128.182 83.1185 129.733 85.7986 129.733 88.0082Z" fill="#FFC61E"/>
<path d="M111.413 56.8076C111.413 59.0146 109.863 59.9097 107.952 58.8068C106.04 57.704 104.489 55.0163 104.489 52.8143C104.489 50.6124 106.039 49.711 107.952 50.8164C109.864 51.9218 111.413 54.5993 111.413 56.8076Z" fill="#E58800"/>
<path d="M111.746 56.5169C111.746 58.724 110.196 59.619 108.284 58.5161C106.373 57.4133 104.822 54.7256 104.822 52.5236C104.822 50.3217 106.372 49.4216 108.284 50.5257C110.197 51.6299 111.746 54.315 111.746 56.5169Z" fill="#FFC61E"/>
<path d="M117.424 59.684L125.339 73.4017L124.207 74.0762L116.286 60.3623L117.424 59.684Z" fill="url(#paint0_linear_465_3590)"/>
<path d="M121.019 73.2029C117.918 71.4102 115.409 67.0701 115.421 63.4963C115.432 59.9225 117.925 58.4894 121.005 60.2705C124.086 62.0517 126.6 66.3969 126.608 69.9695C126.615 73.542 124.105 74.9828 121.019 73.2029Z" fill="url(#paint1_linear_465_3590)"/>
<path d="M120.069 73.7945C116.984 71.9929 114.481 67.6579 114.472 64.0955C114.463 60.5332 116.975 59.0797 120.082 60.8545C123.189 62.6293 125.675 66.9745 125.683 70.5521C125.661 74.131 123.165 75.568 120.069 73.7945Z" fill="#E6E6E8"/>
<path d="M120.074 73.0116C117.347 71.4293 115.148 67.6235 115.145 64.478C115.163 61.3364 117.354 60.0665 120.078 61.6361C122.803 63.2056 124.984 67.0217 124.998 70.1658C124.992 73.3125 122.804 74.5697 120.074 73.0116Z" fill="#CAD2DA"/>
<path d="M104.43 73.5152V99.0229L74.177 82.0756V56.5679L104.43 73.5152Z" fill="#B5BEC6"/>
<path d="M95.8418 44.2157L74.177 56.5679L104.43 73.514L126.105 61.1694L95.8418 44.2157Z" fill="#E4E4EA"/>
<path d="M111.547 94.7312L112.282 97.6599L111.547 105.022L104.774 101.28V90.9878L111.547 94.7312Z" fill="#B5BEC6"/>
<path d="M113.517 86.0038L104.774 90.9878L111.547 94.7325L120.292 89.746L113.517 86.0038Z" fill="#E4E4EA"/>
<path d="M120.292 89.7447L111.547 94.7312V105.02L120.292 100.038V89.7447Z" fill="#F2F3F4"/>
<path d="M126.104 61.1681L104.433 73.5152V99.0152L126.104 86.6694V61.1681Z" fill="#F2F3F4"/>
<path d="M122.014 66.0845L108.944 73.5331V93.9433L122.014 86.4947V66.0845Z" fill="#E4E4EA"/>
<path d="M92.5255 54.4846V43.0198H86.0765V54.4871C86.0765 54.964 86.3889 55.4434 87.0213 55.8055C88.281 56.5309 90.3159 56.5348 91.5833 55.8055C92.2157 55.4434 92.5293 54.964 92.5255 54.4846Z" fill="#B5BEC6"/>
<path d="M91.5819 41.6173C90.3248 40.8943 88.2822 40.8943 87.0225 41.6173C85.7628 42.3402 85.7641 43.5221 87.0225 44.254C88.281 44.9858 90.3248 44.9794 91.5819 44.254C92.8391 43.5285 92.8404 42.3478 91.5819 41.6173Z" fill="#E4E4EA"/>
<path d="M98.3471 100.388V118.14L92.7206 121.385L92.5994 121.459L91.9148 121.849L91.8179 104.097L92.5994 103.341L92.7206 103.22L96.3199 99.742L98.3471 100.388Z" fill="#F2F3F4"/>
<path d="M73.811 111.32L91.916 121.849V104.097L73.811 93.5646V111.32Z" fill="#CAD2DA"/>
<path d="M98.3471 100.388L92.732 103.623L92.6109 103.693L91.9148 104.097L73.811 93.5697L74.5697 93.1426L74.6895 93.0673L80.3365 89.8607L98.3471 100.388Z" fill="#E4E4EA"/>
<path d="M97.3832 116.182L93.469 118.44V110.828L97.3832 108.569V116.182Z" fill="#757575"/>
<path d="M96.6412 113.188L94.3998 114.481V111.891L96.6412 110.596V113.188Z" fill="#FFD24D"/>
<path d="M95.8941 111.842L96.1899 112.011L96.0318 112.285C95.983 112.549 95.8447 112.788 95.6403 112.962L95.481 113.237L95.1864 113.068C95.1358 113.031 95.0955 112.982 95.0696 112.925C95.0437 112.868 95.033 112.806 95.0385 112.743C95.0485 112.569 95.099 112.4 95.1861 112.25C95.2731 112.099 95.3941 111.97 95.5396 111.875C95.5901 111.838 95.6497 111.815 95.7122 111.809C95.7747 111.803 95.8376 111.814 95.8941 111.842Z" fill="#D83232"/>
<path d="M96.3352 112.334C96.3352 112.015 96.1133 111.888 95.8354 112.048C95.6892 112.142 95.5675 112.27 95.4802 112.42C95.3929 112.57 95.3424 112.739 95.333 112.913C95.333 113.233 95.5587 113.363 95.8354 113.201C95.9815 113.106 96.103 112.978 96.1899 112.828C96.2768 112.677 96.3266 112.508 96.3352 112.334Z" fill="#F93D3D"/>
<path d="M98.88 87.0927C98.88 80.1299 93.9929 71.6652 87.9609 68.1832L73.6337 59.911C72.2312 59.1039 70.9741 59.0784 70.0982 59.6815V59.67L66.4772 61.7228L68.8499 62.7428C68.8703 64.6859 69.7424 66.8776 71.0633 68.6078V68.6167L78.8039 82.3599C79.5749 84.1696 80.5429 85.8889 81.6905 87.4867L81.7096 87.5211C83.4818 89.978 85.6353 92.0678 87.9571 93.4103C89.4195 94.2557 90.8156 94.721 92.0906 94.8549L91.8063 96.3773L95.5395 94.2493H95.5268C97.5923 93.1286 98.88 90.6614 98.88 87.0927Z" fill="#F2F3F4"/>
<path d="M84.1896 70.3315L69.8611 62.0568C67.218 60.5268 65.076 61.7712 65.076 64.821C65.076 66.7794 65.9685 69.003 67.2933 70.751V70.7625L75.0325 84.5083C75.8028 86.317 76.77 88.0355 77.9166 89.6325L77.9395 89.6707C79.7105 92.1238 81.8627 94.2123 84.187 95.5549C90.2165 99.0369 95.1048 96.2141 95.1048 89.2525C95.1048 82.291 90.219 73.811 84.1896 70.3315Z" fill="#CAD2DA"/>
<path d="M90.6525 87.6677C90.6525 92.2258 87.4497 94.0746 83.5023 91.7962C79.5549 89.5177 76.3521 83.9689 76.3534 79.4121C76.3547 74.8552 79.5536 73.0039 83.5023 75.2849C87.451 77.5659 90.6525 83.107 90.6525 87.6677Z" fill="#E58800"/>
<path d="M91.3398 87.0685C91.3398 91.6253 88.137 93.4741 84.1896 91.1957C80.2422 88.9172 77.0394 83.3684 77.0406 78.8116C77.0419 74.2547 80.2409 72.4034 84.1896 74.6857C88.1383 76.9679 91.3398 82.5065 91.3398 87.0685Z" fill="#FFC61E"/>
<path d="M121.046 52.4828C121.046 54.6899 119.494 55.5849 117.583 54.4808C115.672 53.3766 114.12 50.6915 114.12 48.4883C114.12 46.2851 115.671 45.3849 117.583 46.4903C119.496 47.5958 121.046 50.2733 121.046 52.4828Z" fill="#E58800"/>
<path d="M121.38 52.1921C121.38 54.3991 119.828 55.2942 117.917 54.19C116.006 53.0859 114.454 50.4007 114.455 48.1975C114.457 45.9943 116.005 45.0942 117.917 46.1996C119.83 47.305 121.38 49.98 121.38 52.1921Z" fill="#FFC61E"/>
<path d="M136.665 78.6471C136.665 80.8541 135.114 81.7492 133.202 80.6463C131.289 79.5434 129.74 76.8557 129.74 74.6538C129.74 72.4519 131.291 71.5505 133.202 72.6559C135.113 73.7613 136.665 76.4388 136.665 78.6471Z" fill="#E58800"/>
<path d="M136.998 78.3564C136.998 80.5634 135.447 81.4585 133.536 80.3556C131.625 79.2527 130.073 76.565 130.073 74.3631C130.073 72.1612 131.623 71.2597 133.536 72.3652C135.448 73.4706 136.998 76.1481 136.998 78.3564Z" fill="#FFC61E"/>
<path d="M99.5609 73.4043C98.7474 72.9325 98.0067 72.8701 97.4559 73.1429H97.4482L95.1532 74.5021L95.1698 74.4944L95.0155 74.5849C95.0442 74.9042 95.0493 75.2251 95.0308 75.545C95.2075 75.6087 95.3782 75.6881 95.5408 75.7822C97.2519 76.769 98.6378 79.1711 98.6378 81.1461C98.6384 81.3776 98.6162 81.6087 98.5715 81.8359C98.7219 81.8818 98.8737 81.9353 99.0254 81.9812C99.1771 82.0271 99.3135 82.0756 99.4563 82.1227L99.5456 82.0705H99.5379L99.96 81.8295L100.002 81.8091C100.04 81.7874 100.077 81.7632 100.113 81.739L101.691 80.8031C101.708 80.7916 101.727 80.784 101.745 80.7738C102.311 80.4512 102.663 79.7538 102.663 78.7644C102.658 76.7907 101.271 74.3911 99.5609 73.4043Z" fill="#F2F3F4"/>
<path d="M84.8767 80.7585C84.3846 80.4742 83.9358 80.4372 83.6017 80.6017L82.2133 81.4253C82.5486 81.2494 83.0038 81.2838 83.5036 81.5758C84.5389 82.1712 85.3778 83.6221 85.3778 84.8155C85.3778 85.3931 85.1827 85.8024 84.8678 86.0038L86.1696 85.2388C86.1804 85.2345 86.1907 85.229 86.2002 85.2223C86.5419 85.0297 86.7535 84.609 86.7535 84.0085C86.7484 82.8061 85.912 81.3565 84.8767 80.7585Z" fill="#E4E4EA"/>
<path d="M83.501 81.5758C82.4682 80.9752 81.6318 81.4585 81.6318 82.6531C81.6318 83.8478 82.4682 85.2988 83.501 85.898C84.5337 86.4973 85.374 86.0102 85.374 84.8155C85.374 83.6209 84.5325 82.1712 83.501 81.5758Z" fill="#CAD2DA"/>
<path d="M97.2825 74.7481C95.574 73.7626 94.1881 74.5633 94.1881 76.5331C94.1881 78.503 95.574 80.9089 97.2825 81.8971C98.991 82.8852 100.377 82.0845 100.377 80.1121C100.377 78.1396 98.9987 75.735 97.2825 74.7481Z" fill="#CAD2DA"/>
<path d="M97.2825 75.4456C95.9055 74.6525 94.7911 75.2951 94.7911 76.8851C94.7911 78.475 95.9055 80.4066 97.2825 81.2009C98.6595 81.9953 99.7738 81.3514 99.7738 79.7615C99.7738 78.1715 98.6633 76.245 97.2825 75.4456Z" fill="#CAD2DA"/>
<path d="M97.2825 75.48C95.9221 74.6933 94.8167 75.3334 94.8167 76.9029C94.8167 78.4724 95.9221 80.3849 97.2825 81.1742C98.6429 81.9634 99.7484 81.3208 99.7484 79.75C99.7484 78.1792 98.6493 76.2629 97.2825 75.48Z" fill="#FFC127"/>
<path d="M98.2031 79.5638L96.6667 76.9016L95.8762 77.3606L97.4139 80.0164L98.2031 79.5638Z" fill="url(#paint2_linear_465_3590)"/>
<path d="M96.3505 77.6041C96.3505 78.2977 96.8363 79.1341 97.4368 79.4848C98.0373 79.8354 98.5205 79.5498 98.5193 78.8575C98.518 78.1651 98.0347 77.3275 97.4342 76.9794C96.8337 76.6313 96.3479 76.9144 96.3505 77.6041Z" fill="url(#paint3_linear_465_3590)"/>
<path d="M95.5269 78.081C95.5269 78.7733 96.0126 79.611 96.6093 79.9616C97.206 80.3122 97.6944 80.0292 97.6969 79.333C97.6995 78.6369 97.2137 77.803 96.6119 77.4537C96.0101 77.1043 95.5269 77.3925 95.5269 78.081Z" fill="#CAD2DA"/>
<path d="M95.9897 104.857C95.9774 105.15 95.879 105.433 95.7066 105.671C95.6677 105.729 95.6252 105.784 95.5791 105.836C95.5548 105.864 95.5289 105.891 95.5013 105.916C95.4394 105.974 95.3715 106.026 95.2986 106.07C95.2457 106.099 95.1902 106.123 95.1329 106.142C95.0789 106.161 95.0216 106.169 94.9646 106.164C94.9076 106.16 94.8521 106.145 94.8014 106.118L94.7682 106.099C94.6893 106.034 94.6349 105.944 94.6139 105.844C94.602 105.787 94.596 105.728 94.5961 105.669C94.5955 105.584 94.6058 105.498 94.6267 105.414C94.6347 105.38 94.6445 105.345 94.656 105.311C94.6764 105.242 94.7024 105.175 94.7338 105.11C94.8518 104.842 95.0477 104.615 95.2961 104.459C95.3626 104.413 95.4391 104.382 95.5195 104.371C95.5998 104.359 95.6818 104.366 95.7589 104.392L95.792 104.41C95.8607 104.461 95.9149 104.529 95.9495 104.608C95.9841 104.686 95.998 104.772 95.9897 104.857Z" fill="#CAD2DA"/>
<path d="M96.1605 104.932C96.1477 105.226 96.0488 105.509 95.8762 105.746C95.8356 105.804 95.7909 105.86 95.7423 105.912C95.7184 105.94 95.6929 105.966 95.6658 105.991C95.6035 106.049 95.5351 106.101 95.4618 106.145C95.4089 106.174 95.3535 106.199 95.296 106.218C95.242 106.236 95.1848 106.244 95.1278 106.24C95.0708 106.235 95.0153 106.22 94.9646 106.193L94.9314 106.174C94.8529 106.109 94.7986 106.019 94.7771 105.919C94.7658 105.862 94.7598 105.803 94.7593 105.745C94.7591 105.659 94.7698 105.573 94.7912 105.49C94.7987 105.455 94.8081 105.42 94.8192 105.386C94.8394 105.317 94.8659 105.25 94.8982 105.185C95.0158 104.917 95.2113 104.69 95.4593 104.535C95.526 104.488 95.6027 104.458 95.6833 104.446C95.7639 104.434 95.8461 104.441 95.9234 104.467L95.9552 104.485C96.0254 104.535 96.0811 104.603 96.1171 104.682C96.1531 104.76 96.1681 104.847 96.1605 104.932Z" fill="#E4E4EA"/>
<path d="M95.7334 105.302L100.173 107.865L107.508 104.04L107.884 104.255L100.248 108.239C100.222 108.253 100.192 108.261 100.162 108.261C100.132 108.261 100.102 108.253 100.076 108.239L95.3585 105.515C95.4847 105.443 95.6071 105.367 95.7334 105.302Z" fill="#757575"/>
<path d="M110.415 105.697L110.336 103.516C110.361 103.174 110.131 102.834 109.642 102.589C109.62 102.577 109.596 102.567 109.572 102.557C109.537 102.538 109.5 102.523 109.463 102.511C109.439 102.499 109.415 102.489 109.39 102.481C109.18 102.404 108.961 102.35 108.74 102.32C108.65 102.306 108.56 102.297 108.468 102.291C108.122 102.266 107.774 102.284 107.431 102.344C107.258 102.373 107.088 102.415 106.921 102.472C106.864 102.492 106.808 102.513 106.752 102.535C106.648 102.577 106.546 102.627 106.45 102.685C106.019 102.94 105.812 103.262 105.83 103.577L105.912 105.848C105.917 106.008 105.967 106.163 106.056 106.295C106.172 106.463 106.325 106.602 106.502 106.702C106.524 106.718 106.547 106.732 106.572 106.742C106.585 106.747 106.597 106.754 106.608 106.763C106.64 106.781 106.677 106.798 106.711 106.814C106.803 106.857 106.898 106.894 106.995 106.925C107.209 106.995 107.43 107.042 107.653 107.064C107.95 107.099 108.249 107.099 108.546 107.064C108.555 107.064 108.565 107.064 108.574 107.064C108.608 107.063 108.643 107.059 108.677 107.053L108.771 107.035C108.844 107.024 108.915 107.008 108.986 106.989C108.995 106.984 109.004 106.979 109.012 106.972C109.04 106.972 109.063 106.96 109.09 106.953C109.144 106.939 109.195 106.921 109.25 106.902C109.437 106.838 109.616 106.752 109.784 106.647C109.884 106.586 109.978 106.513 110.062 106.431C110.075 106.421 110.087 106.41 110.099 106.399C110.199 106.312 110.279 106.204 110.334 106.083C110.388 105.962 110.416 105.83 110.415 105.697Z" fill="#E4E4EA"/>
<path d="M106.596 104.423C106.692 104.474 106.792 104.516 106.895 104.55C106.947 104.567 107.003 104.587 107.058 104.604C107.218 104.649 107.382 104.682 107.547 104.703C107.874 104.74 108.203 104.736 108.528 104.689C108.613 104.675 108.698 104.661 108.783 104.639C108.988 104.593 109.188 104.526 109.38 104.438L109.45 104.403C109.48 104.386 109.517 104.369 109.55 104.347C109.57 104.337 109.589 104.325 109.607 104.31C110.424 103.8 110.397 103.023 109.547 102.571C109.526 102.56 109.504 102.549 109.482 102.541C109.449 102.522 109.415 102.507 109.38 102.495C109.357 102.483 109.334 102.473 109.31 102.464C109.113 102.388 108.908 102.334 108.699 102.305C108.615 102.291 108.529 102.283 108.444 102.277C108.118 102.252 107.79 102.27 107.468 102.332C107.303 102.362 107.141 102.407 106.983 102.465C106.928 102.486 106.876 102.506 106.823 102.529C106.724 102.571 106.629 102.622 106.538 102.68C106.538 102.68 106.538 102.68 106.531 102.68C105.725 103.201 105.755 103.975 106.596 104.423Z" fill="#CAD2DA"/>
<path d="M121.898 139.009V146.449L113.614 141.812V134.372L121.898 139.009Z" fill="#B5BEC6"/>
<path d="M127.018 126.726L113.614 134.376L121.902 139.012L135.316 131.373L127.018 126.726Z" fill="#E4E4EA"/>
<path d="M135.312 131.368L121.899 139.009V146.445L135.312 138.803V131.368Z" fill="#F2F3F4"/>
<path d="M131.823 138.29L132.442 141.853C132.448 141.88 132.463 141.904 132.485 141.921C132.507 141.939 132.534 141.947 132.562 141.947C132.59 141.946 132.616 141.935 132.637 141.916C132.658 141.898 132.671 141.873 132.675 141.845L133.058 138.38L131.823 138.29Z" fill="#757575"/>
<path d="M133.305 135.118C133.022 134.625 132.432 134.544 131.798 134.908C130.898 135.427 130.165 136.693 130.166 137.734C130.155 138 130.216 138.264 130.341 138.499C130.626 138.99 131.218 139.077 131.846 138.712C132.748 138.192 133.478 136.927 133.481 135.882C133.49 135.618 133.43 135.357 133.305 135.125V135.118Z" fill="#757575"/>
<path d="M131.092 138.071L132.622 138.944L132.956 138.367C133.39 138.002 133.683 137.496 133.783 136.938L134.116 136.359L132.586 135.483C132.396 135.372 132.131 135.39 131.839 135.558C131.257 135.895 130.782 136.713 130.784 137.386C130.782 137.723 130.898 137.955 131.092 138.071Z" fill="#A8A8A8"/>
<path d="M133.365 138.874C132.78 139.208 132.308 138.937 132.309 138.264C132.311 137.59 132.782 136.769 133.365 136.435C133.948 136.101 134.421 136.368 134.423 137.043C134.426 137.719 133.95 138.539 133.365 138.874Z" fill="#E4E4EA"/>
<path d="M98.7156 129.179L115.14 138.54V141.725L98.7156 132.368V129.179Z" fill="#0088A8"/>
<path d="M115.14 138.54V141.729L140.381 127.348V124.161L115.14 138.54Z" fill="#00BDEA"/>
<path d="M98.7156 125.201L115.14 134.562V138.969L98.7156 129.611V125.201Z" fill="#5E5E5E"/>
<path d="M115.14 134.562V138.974L140.381 124.594V120.183L115.14 134.562Z" fill="#A8A8A8"/>
<path d="M110.418 167.371L147.117 145.99" stroke="#757575" stroke-width="10" stroke-linecap="round" stroke-linejoin="round"/>
<path d="M98.7156 125.205L115.14 134.565L140.377 120.181L123.963 110.824L98.7156 125.205Z" fill="#757575"/>
<path d="M108.721 120.648L123.141 128.877" stroke="#C2C2C2" stroke-linecap="round" stroke-linejoin="round"/>
<path d="M117.253 115.668L131.673 123.897" stroke="#C2C2C2" stroke-linecap="round" stroke-linejoin="round"/>
<path d="M95.6173 163.398L109.062 174.763L112.117 172.998V149.229L95.6173 139.702V163.398Z" fill="#F2F3F4"/>
<path d="M92.5637 141.544V141.548L77.5467 132.878L77.548 124.43L63.129 116.104L62.1103 123.012L61.1145 134.476L61.0508 135.191V147.043L77.5455 156.569L77.5467 153.507L92.5637 162.177V165.239L109.062 174.763V171.703V151.075V151.07L92.5637 141.544Z" fill="#CAD2DA"/>
<path d="M63.129 116.104L66.1827 114.263L80.6029 122.59L77.548 124.43L63.129 116.104Z" fill="#E4E4EA"/>
<path d="M77.5685 132.892L80.603 131.036L112.117 149.229L109.062 151.07L77.5685 132.892Z" fill="#E4E4EA"/>
<path d="M72.6916 144.298C72.995 144.474 73.2424 144.333 73.2424 143.979V131.875C73.2317 131.683 73.1762 131.497 73.0803 131.331C72.9844 131.165 72.8508 131.024 72.6903 130.92C72.383 130.742 72.137 130.885 72.137 131.24V143.343C72.1464 143.535 72.2016 143.722 72.2981 143.888C72.3946 144.054 72.5296 144.195 72.6916 144.298Z" fill="#B5BEC6"/>
<path d="M72.9058 144.387C73.2118 144.565 73.4578 144.422 73.4578 144.065V131.962C73.448 131.771 73.3928 131.585 73.2968 131.419C73.2008 131.252 73.0668 131.112 72.9058 131.008C72.5998 130.832 72.3524 130.972 72.3524 131.326V143.429C72.3623 143.621 72.4176 143.808 72.5138 143.974C72.61 144.141 72.7443 144.283 72.9058 144.387Z" fill="#757575"/>
<path d="M73.2284 139.437L73.8748 139.252H73.8774L73.8952 140.111L72.7528 140.768V139.904L72.9925 139.664L73.0155 139.642L73.2284 139.437Z" fill="#A8A8A8"/>
<path d="M70.8097 138.77V139.632L72.7528 140.768V139.904L70.8097 138.77Z" fill="#5E5E5E"/>
<path d="M70.8097 138.77L71.933 138.118L73.8748 139.252L72.7451 139.905L70.8097 138.77Z" fill="#757575"/>
<path d="M161.119 166.544V170.748L187.992 186.263V182.06L161.119 166.544Z" fill="#6CAE6E"/>
<path d="M187.992 182.06L161.119 166.544L172.972 159.701L199.845 175.217L187.992 182.06Z" fill="#7EC980"/>
<path d="M199.845 175.217V179.421L187.992 186.263V182.06L199.845 175.217Z" fill="#90E692"/>
<path d="M191.23 170.21L179.403 176.971L170.636 171.949L182.463 165.186L191.23 170.21Z" fill="white"/>
<path d="M170.636 171.949V176.243L179.403 181.305V176.971L170.636 171.949Z" fill="#B5BEC6"/>
<path d="M155.416 164.648V168.853L182.289 184.368V180.164L155.416 164.648Z" fill="#6CAE6E"/>
<path d="M182.289 180.164L155.416 164.648L167.269 157.805L194.143 173.321L182.289 180.164Z" fill="#7EC980"/>
<path d="M194.143 173.321V177.525L182.289 184.368V180.164L194.143 173.321Z" fill="#90E692"/>
<path d="M185.528 168.314L173.701 175.075L164.933 170.053L176.76 163.291L185.528 168.314Z" fill="white"/>
<path d="M164.933 170.053V174.347L173.701 179.409V175.075L164.933 170.053Z" fill="#B5BEC6"/>
<path d="M153.78 160.106V164.311L180.653 179.826V175.621L153.78 160.106Z" fill="#6CAE6E"/>
<path d="M180.653 175.621L153.78 160.106L165.633 153.263L192.506 168.778L180.653 175.621Z" fill="#7EC980"/>
<path d="M192.506 168.778V172.983L180.653 179.826V175.621L192.506 168.778Z" fill="#90E692"/>
<path d="M183.892 163.771L172.065 170.534L163.297 165.51L175.124 158.748L183.892 163.771Z" fill="white"/>
<path d="M163.297 165.51V169.805L172.065 174.866V170.534L163.297 165.51Z" fill="#B5BEC6"/>
<path d="M134.417 180.11V184.314L161.29 199.829V195.625L134.417 180.11Z" fill="#6CAE6E"/>
<path d="M161.29 195.625L134.417 180.11L146.269 173.266L173.142 188.782L161.29 195.625Z" fill="#7EC980"/>
<path d="M173.142 188.782V192.987L161.29 199.829V195.625L173.142 188.782Z" fill="#90E692"/>
<path d="M164.529 183.775L152.702 190.537L143.933 185.514L155.76 178.751L164.529 183.775Z" fill="white"/>
<path d="M143.933 185.514V189.808L152.702 194.871V190.537L143.933 185.514Z" fill="#B5BEC6"/>
<path d="M138.517 172.983V177.187L165.391 192.702V188.497L138.517 172.983Z" fill="#6CAE6E"/>
<path d="M165.391 188.497L138.517 172.983L150.371 166.139L177.244 181.654L165.391 188.497Z" fill="#7EC980"/>
<path d="M177.244 181.654V185.859L165.391 192.702V188.497L177.244 181.654Z" fill="#90E692"/>
<path d="M168.629 176.647L156.802 183.41L148.034 178.387L159.861 171.625L168.629 176.647Z" fill="white"/>
<path d="M148.034 178.387V182.681L156.802 187.744V183.41L148.034 178.387Z" fill="#B5BEC6"/>
<path d="M139.82 166.742V170.947L166.693 186.462V182.257L139.82 166.742Z" fill="#6CAE6E"/>
<path d="M166.693 182.257L139.82 166.742L151.674 159.899L178.547 175.415L166.693 182.257Z" fill="#7EC980"/>
<path d="M178.547 175.414V179.619L166.693 186.462V182.257L178.547 175.414Z" fill="#90E692"/>
<path d="M169.932 170.408L158.105 177.17L149.337 172.147L161.164 165.384L169.932 170.408Z" fill="white"/>
<path d="M149.337 172.147V176.441L158.105 181.503V177.17L149.337 172.147Z" fill="#B5BEC6"/>
<path d="M145.571 159.701V163.905L172.444 179.421V175.217L145.571 159.701Z" fill="#6CAE6E"/>
<path d="M172.444 175.217L145.571 159.701L157.423 152.858L184.296 168.374L172.444 175.217Z" fill="#7EC980"/>
<path d="M184.296 168.374V172.578L172.444 179.421V175.217L184.296 168.374Z" fill="#90E692"/>
<path d="M175.681 163.367L163.854 170.128L155.087 165.105L166.914 158.344L175.681 163.367Z" fill="white"/>
<path d="M155.087 165.105V169.4L163.854 174.462V170.128L155.087 165.105Z" fill="#B5BEC6"/>
<path d="M103.559 185.319L103.391 187.609L110.398 191.58L110.565 189.289L103.559 185.319Z" fill="#0088A8"/>
<path d="M123.62 191.27L123.452 193.562L121.319 195.711L119.58 194.106L123.62 191.27Z" fill="#0088A8"/>
<path d="M107.815 203.523C107.896 203.476 115.936 198.715 122.262 195.182C123.027 194.758 123.452 194.172 123.452 193.562C123.452 192.951 123.021 192.367 122.26 191.941C122.165 191.889 112.832 186.686 108.912 184.419L103.391 187.606C105.11 188.599 107.843 190.142 110.404 191.578C105.421 191.394 99.1134 190.609 94.3488 188.147C88.6457 185.199 86.1454 180.344 86.9155 173.715L79.1253 173.413C78.2328 181.095 81.2303 186.972 88.0362 190.902C88.4085 191.116 88.791 191.325 89.1837 191.528C95.4733 194.764 103.367 195.816 109.584 196.071C105.556 198.401 102.274 200.345 102.222 200.375L107.815 203.523Z" fill="#0088A8"/>
<path d="M107.984 201.233C108.064 201.186 116.104 196.425 122.431 192.892C123.196 192.468 123.62 191.882 123.62 191.27C123.62 190.658 123.189 190.076 122.428 189.65C122.334 189.598 113.001 184.394 109.08 182.127L103.559 185.315C105.278 186.307 108.01 187.85 110.565 189.285C105.584 189.102 99.2766 188.318 94.512 185.854C88.8089 182.908 86.3086 178.051 87.0787 171.422L79.2885 171.12C78.396 178.802 81.3935 184.68 88.1994 188.609C88.5717 188.824 88.9542 189.033 89.3469 189.237C95.6352 192.473 103.53 193.525 109.747 193.78C105.719 196.109 102.437 198.052 102.385 198.083L107.984 201.233Z" fill="#00BDEA"/>
<path d="M102.391 198.087L102.223 200.378L107.815 203.524L107.984 201.233L102.391 198.087Z" fill="#0088A8"/>
<path d="M153.951 125.631V127.885L155.262 128.514L155.141 126.263L153.951 125.631Z" fill="#0088A8"/>
<path d="M169.588 117.923C169.507 117.971 161.467 122.731 155.141 126.263C154.376 126.689 153.951 127.273 153.951 127.885C153.951 128.497 154.382 129.08 155.143 129.506C155.238 129.558 164.571 134.761 168.491 137.028L174.012 133.841C172.293 132.847 169.561 131.305 167 129.869C171.981 130.053 178.288 130.838 183.053 133.301C188.756 136.248 191.256 141.104 190.486 147.733L198.277 148.035C199.169 140.353 196.172 134.476 189.366 130.546C188.993 130.332 188.611 130.123 188.218 129.919C181.93 126.683 174.035 125.631 167.818 125.376C171.846 123.045 175.128 121.102 175.18 121.071L169.588 117.923Z" fill="#0088A8"/>
<path d="M169.588 115.668C169.507 115.716 161.467 120.477 155.141 124.009C154.376 124.435 153.951 125.019 153.951 125.631C153.951 126.243 154.382 126.826 155.143 127.251C155.238 127.304 164.571 132.507 168.491 134.774L174.012 131.586C172.293 130.593 169.561 129.05 167 127.615C171.981 127.798 178.288 128.584 183.053 131.047C188.756 133.994 191.256 138.849 190.486 145.479L198.277 145.781C199.169 138.099 196.172 132.221 189.366 128.292C188.993 128.076 188.611 127.868 188.218 127.664C181.93 124.429 174.035 123.377 167.818 123.122C171.846 120.791 175.128 118.848 175.18 118.817L169.588 115.668Z" fill="#00BDEA"/>
<path d="M175.18 118.815V121.069L171.311 123.341L167.818 123.119L175.18 118.815Z" fill="#0088A8"/>
<path d="M168.491 134.77V137.024L174.012 133.838V131.584L168.491 134.77Z" fill="#0088A8"/>
<defs>
<linearGradient id="paint0_linear_465_3590" x1="117.478" y1="60.2594" x2="125.406" y2="74.054" gradientUnits="userSpaceOnUse">
<stop stop-color="#F9F9F9"/>
<stop offset="0.08" stop-color="#F4F5F6"/>
<stop offset="0.71" stop-color="#CED4DE"/>
<stop offset="1" stop-color="#DCE0E7"/>
</linearGradient>
<linearGradient id="paint1_linear_465_3590" x1="117.68" y1="60.1256" x2="125.596" y2="73.9002" gradientUnits="userSpaceOnUse">
<stop stop-color="#DCE0E7"/>
<stop offset="0.29" stop-color="#CED4DE"/>
<stop offset="0.89" stop-color="#E3E6EB"/>
</linearGradient>
<linearGradient id="paint2_linear_465_3590" x1="97.8121" y1="79.7871" x2="96.2757" y2="77.126" gradientUnits="userSpaceOnUse">
<stop offset="0.15" stop-color="#414243"/>
<stop offset="1" stop-color="#4F5051"/>
</linearGradient>
<linearGradient id="paint3_linear_465_3590" x1="98.2061" y1="79.5567" x2="96.671" y2="76.8978" gradientUnits="userSpaceOnUse">
<stop offset="0.15" stop-color="#414243"/>
<stop offset="1" stop-color="#4F5051"/>
</linearGradient>
</defs>
</svg>
