<svg width="256" height="255" viewBox="0 0 256 255" fill="none" xmlns="http://www.w3.org/2000/svg">
<path d="M127.922 203.008C194.899 203.008 249.195 171.661 249.195 132.991C249.195 94.3223 194.899 62.9748 127.922 62.9748C60.945 62.9748 6.64929 94.3223 6.64929 132.991C6.64929 171.661 60.945 203.008 127.922 203.008Z" fill="#F7F7F7"/>
<path d="M172.8 90.1119L169.203 96.1707L162.751 88.6252L161.373 87.0124L163.385 87.5581L172.8 90.1119Z" fill="#CFCFCF"/>
<path d="M163.385 87.5581L162.751 88.6252L161.373 87.0124L163.385 87.5581Z" fill="#333333"/>
<path d="M37.9327 115.074L118.107 76.3304L215.116 143.239L136.893 182.468L37.9327 115.074Z" fill="#CFCFCF"/>
<path d="M49.5403 115.963L129.715 77.2191L230.843 134.82L148.501 183.356L49.5403 115.963Z" fill="#E6E6E6"/>
<path d="M150.616 177.346L45.3188 116.552L119.16 73.9194L224.458 134.713L150.616 177.346Z" fill="white"/>
<path d="M159.083 80.4678L132.802 65.294L159.082 50.1203L185.364 65.294L159.083 80.4678Z" fill="#FFD24C"/>
<path d="M83.7193 207.24L65.6985 196.835C61.8964 194.64 61.8964 189.153 65.6985 186.957L83.7193 176.553C84.5861 176.053 85.5693 175.789 86.5702 175.789C87.5711 175.789 88.5544 176.053 89.4211 176.553L107.443 186.958C111.244 189.153 111.244 194.64 107.443 196.835L89.4224 207.24C88.5554 207.74 87.572 208.004 86.5709 208.004C85.5698 208.004 84.5863 207.74 83.7193 207.24Z" fill="#E3AD0E"/>
<path d="M83.7193 205.548L65.6985 195.143C61.8964 192.948 61.8964 187.461 65.6985 185.266L83.7193 174.861C84.5863 174.361 85.5694 174.098 86.5702 174.098C87.571 174.098 88.5542 174.361 89.4211 174.861L107.443 185.266C111.244 187.461 111.244 192.948 107.443 195.144L89.4224 205.548C88.5554 206.048 87.572 206.312 86.5709 206.312C85.5698 206.312 84.5863 206.048 83.7193 205.548Z" fill="#FFD24C"/>
<path d="M97.196 171.368C97.2356 171.225 97.3235 171.032 97.372 170.893C97.4536 170.707 97.604 170.418 97.7545 170.42C98.1352 170.483 98.512 170.569 98.8829 170.675C101.418 171.369 103.855 173.179 104.587 175.801C105.735 180.404 102.223 184.661 98.9696 187.47C98.6483 187.75 98.2874 188.038 97.9496 188.302C97.8947 188.344 97.8514 188.379 97.7787 188.43L96.5483 186.323C96.5764 186.314 96.6325 186.288 96.6758 186.267C99.6173 184.779 102.614 182.042 103.266 178.695C104.071 174.823 100.217 173.68 97.2611 172.83C97.2113 172.815 97.1756 172.732 97.1527 172.575C97.1337 172.393 97.126 172.211 97.1297 172.028C97.1297 171.952 97.1297 171.83 97.1297 171.757L97.1858 171.374L97.196 171.368Z" fill="#009ABF"/>
<path d="M98.1191 168.146V191.024C98.1191 192.45 96.9907 193.874 94.7365 194.962C94.3795 195.134 94.0034 195.292 93.6145 195.437C89.9272 196.808 84.9165 196.958 80.941 195.887C80.0691 195.657 79.2202 195.347 78.405 194.962C78.0645 194.798 77.7333 194.616 77.4131 194.416C76.8339 194.066 76.3126 193.629 75.8678 193.119C75.3042 192.45 75.0237 191.736 75.0225 191.024V168.146H98.1191Z" fill="#00BDEA"/>
<path d="M80.941 170.36V195.887C80.0691 195.657 79.2202 195.347 78.405 194.962C78.0645 194.798 77.7333 194.616 77.4131 194.416V170.36H80.941Z" fill="#B0F0FF"/>
<path d="M98.1192 168.146V191.024C98.1192 192.45 96.9908 193.874 94.7366 194.962C94.3796 195.134 94.0035 195.292 93.6146 195.437L92.9644 168.152L98.1192 168.146Z" fill="#009ABF"/>
<path d="M97.1679 170.362C96.6069 170.986 95.7948 171.572 94.7365 172.083C90.2268 174.25 82.9147 174.25 78.4051 172.083C77.3455 171.573 76.5346 170.986 75.9736 170.362C74.144 168.322 74.9536 165.872 78.4051 164.209C82.9135 162.033 90.2256 162.035 94.7365 164.209C98.1854 165.877 98.9976 168.327 97.1679 170.362Z" fill="#009ABF"/>
<path d="M97.1679 170.614C96.6069 171.239 95.7948 171.824 94.7365 172.334C90.2268 174.509 82.9147 174.509 78.4051 172.334C77.3455 171.824 76.5346 171.239 75.9736 170.614C74.144 168.574 74.9536 166.125 78.4051 164.461C82.9135 162.286 90.2256 162.287 94.7365 164.461C98.1854 166.133 98.9976 168.579 97.1679 170.614Z" stroke="#B0F0FF" stroke-width="5" stroke-miterlimit="10"/>
<path d="M97.168 170.362C96.607 170.986 95.7948 171.572 94.7365 172.083C90.2269 174.25 82.9147 174.25 78.4051 172.083C77.3455 171.573 76.5346 170.986 75.9736 170.362C76.5346 169.737 77.3455 169.152 78.4051 168.64C82.9135 166.465 90.2256 166.465 94.7353 168.64C95.7948 169.152 96.607 169.737 97.168 170.362Z" fill="#333333"/>
<path d="M172.853 94.1591C173.839 92.451 173.839 90.6048 172.853 90.0354C171.867 89.4661 170.268 90.3893 169.282 92.0974C168.296 93.8055 168.296 95.6517 169.282 96.2211C170.268 96.7904 171.867 95.8672 172.853 94.1591Z" fill="#CFCFCF"/>
<path d="M213.879 115.804L170.458 90.7902C170.458 90.7902 171.304 89.8824 172.444 89.9092L215.86 114.922C215.86 114.922 214.632 114.878 213.879 115.804Z" fill="#00BDEA"/>
<path d="M213.594 114.175L214.177 115.991L216.479 115.025L216.188 112.619" fill="#76E5FF"/>
<path d="M170.345 90.6742L213.763 115.688C213.763 115.688 212.145 117.362 212.105 119.085L168.573 93.84C168.573 93.84 168.716 92.6185 170.345 90.6742Z" fill="#76E5FF"/>
<path d="M169.571 96.0942L213.104 121.223C211.918 120.912 212.11 119.012 212.11 119.012L168.578 93.6513C168.578 93.6513 168.069 95.2667 169.571 96.0942Z" fill="#009ABF"/>
<path d="M213.595 114.175L198.935 105.712L201.528 104.156L216.188 112.619L213.595 114.175Z" fill="#009ABF"/>
<path d="M148.984 69.9886L149.02 66.6876L148.777 66.8712C149.316 66.9732 149.808 67.2451 150.181 67.6471C150.555 68.0491 150.789 68.56 150.851 69.105L151.225 69.0553C151.101 68.5563 150.978 68.0578 150.856 67.5597C150.812 67.385 150.747 67.167 150.816 66.9898C150.885 66.8125 151.118 66.759 151.29 66.7093L154.251 65.8487L154.01 65.6625L153.987 66.5435L154.315 66.4084C153.763 65.9188 154.028 65.0403 154.506 64.5979C155.191 63.9604 156.304 64.0649 157.157 64.1452C157.571 64.1848 158.028 64.093 158.075 63.6008C158.093 63.4045 158.011 63.1928 158.058 63.0003C158.105 62.8078 158.406 62.6816 158.568 62.5795C160.405 61.4604 162.072 60.0829 163.516 58.4893C163.681 58.3083 163.411 58.0367 163.245 58.219C161.83 59.7823 160.198 61.1348 158.4 62.2353C158.201 62.3628 157.964 62.4635 157.813 62.6484C157.748 62.7398 157.703 62.8434 157.679 62.953C157.655 63.0625 157.653 63.1758 157.674 63.2859C157.692 63.4695 157.746 63.7143 157.51 63.764C157.297 63.8086 157.052 63.75 156.838 63.7334C155.945 63.6646 154.85 63.6913 154.173 64.3824C153.594 64.9753 153.355 66.068 154.046 66.6774C154.073 66.7029 154.107 66.7201 154.144 66.7268C154.18 66.7335 154.218 66.7295 154.253 66.7152C154.287 66.7009 154.317 66.677 154.338 66.6464C154.359 66.6157 154.371 66.5795 154.372 66.5423L154.393 65.6625C154.392 65.6333 154.385 65.6046 154.372 65.5786C154.359 65.5525 154.34 65.5298 154.317 65.5121C154.293 65.4944 154.267 65.4822 154.238 65.4765C154.209 65.4707 154.18 65.4716 154.152 65.4789L152.458 65.9698L151.673 66.198C151.411 66.2627 151.152 66.3419 150.899 66.4351C150.441 66.6238 150.36 67.0459 150.449 67.4921C150.561 68.0506 150.722 68.6026 150.858 69.1496C150.909 69.3549 151.253 69.3179 151.241 69.0986C151.178 68.4708 150.916 67.8797 150.492 67.4122C150.068 66.9447 149.506 66.6255 148.887 66.5015C148.859 66.4941 148.829 66.4933 148.8 66.4991C148.771 66.5049 148.744 66.5172 148.721 66.535C148.698 66.5528 148.679 66.5757 148.666 66.6019C148.652 66.6281 148.645 66.657 148.645 66.6863L148.609 69.9873C148.609 70.038 148.629 70.0867 148.665 70.1225C148.701 70.1584 148.75 70.1785 148.8 70.1785C148.851 70.1785 148.9 70.1584 148.936 70.1225C148.971 70.0867 148.992 70.038 148.992 69.9873L148.984 69.9886Z" fill="#333333"/>
<path d="M155.318 72.675C155.012 72.1804 154.895 71.5916 154.989 71.0175L154.709 71.1323C155.715 71.8262 156.446 72.8521 156.772 74.0303C156.788 74.0941 156.839 74.2853 156.741 74.3185C156.68 74.3376 156.594 74.2407 156.56 74.2025C156.409 74.0186 156.319 73.7913 156.305 73.5535C156.248 73.083 156.223 72.5335 156.433 72.0987C156.516 71.9064 156.666 71.7506 156.855 71.6601C157.163 71.5224 157.519 71.5976 157.844 71.5811C158.403 71.5495 158.938 71.3435 159.374 70.992C159.817 70.6291 160.139 70.1399 160.297 69.5895C160.385 69.3179 160.482 69.0591 160.787 68.9852C161.068 68.9176 161.357 68.9201 161.635 68.8271C162.856 68.4191 163.613 67.2333 164.236 66.1814C164.25 66.1561 164.259 66.1279 164.261 66.0988C164.263 66.0698 164.258 66.0406 164.247 66.0136C164.236 65.9866 164.219 65.9624 164.197 65.9429C164.176 65.9234 164.15 65.909 164.122 65.9009C163.472 65.702 162.379 65.456 161.988 66.2299C161.757 66.6863 161.86 67.4883 162.498 67.5355C162.693 67.5368 162.884 67.4834 163.05 67.3812C163.27 67.2639 163.488 67.1364 163.705 67.0102C164.124 66.7628 164.536 66.504 164.941 66.2337C165.73 65.7047 166.489 65.1309 167.213 64.515C167.559 64.2218 167.937 63.8839 168.048 63.4236C168.104 63.2261 168.098 63.016 168.032 62.8218C167.965 62.6276 167.84 62.4585 167.674 62.3373L167.526 62.6867C168.016 62.7806 168.522 62.7354 168.987 62.5563C169.452 62.3771 169.858 62.0711 170.158 61.673C170.306 61.4767 169.974 61.2905 169.828 61.4792C169.573 61.8071 169.233 62.0588 168.846 62.2068C168.458 62.3547 168.037 62.3932 167.628 62.3182C167.584 62.3079 167.538 62.3136 167.497 62.3341C167.457 62.3547 167.425 62.3889 167.407 62.4306C167.39 62.4724 167.387 62.5191 167.401 62.5624C167.414 62.6057 167.442 62.643 167.48 62.6675C167.721 62.8295 167.735 63.1775 167.647 63.4249C167.52 63.7487 167.242 63.9884 166.987 64.2065C166.392 64.7165 165.774 65.1946 165.132 65.6408C164.49 66.0871 163.814 66.5121 163.105 66.9158C162.922 67.0178 162.584 67.2843 162.382 67.0956C162.324 67.027 162.284 66.9458 162.265 66.8587C162.245 66.7715 162.247 66.681 162.27 66.5945C162.42 65.8142 163.519 66.119 164.025 66.2732L163.91 65.9927C163.316 66.9949 162.577 68.2036 161.36 68.5121C161.047 68.5925 160.686 68.5542 160.404 68.7327C160.122 68.9112 160.022 69.2019 159.926 69.4977C159.754 70.0824 159.367 70.58 158.842 70.89C158.58 71.0439 158.289 71.1429 157.987 71.1807C157.618 71.2241 157.238 71.1412 156.875 71.2419C156.354 71.3873 156.055 71.8526 155.953 72.3614C155.901 72.6352 155.883 72.9144 155.9 73.1927C155.899 73.4622 155.936 73.7305 156.011 73.9895C156.091 74.2535 156.263 74.4798 156.496 74.627C156.551 74.6592 156.612 74.6793 156.675 74.6862C156.738 74.693 156.802 74.6864 156.862 74.6668C156.922 74.6471 156.978 74.6149 157.024 74.5722C157.071 74.5295 157.109 74.4774 157.134 74.4192C157.283 74.103 157.082 73.6759 156.963 73.3788C156.826 73.0319 156.655 72.6992 156.453 72.3856C156.044 71.7617 155.517 71.223 154.903 70.7995C154.877 70.7848 154.849 70.7761 154.819 70.7741C154.79 70.7721 154.761 70.7768 154.734 70.7878C154.706 70.7989 154.682 70.8161 154.663 70.838C154.643 70.8599 154.629 70.886 154.621 70.9142C154.501 71.5887 154.632 72.2837 154.988 72.8688C155.115 73.0779 155.448 72.8854 155.318 72.675Z" fill="#333333"/>
<path d="M104.099 132.414L151.612 104.982" stroke="#76E5FF" stroke-linecap="round" stroke-linejoin="round"/>
<path d="M114.917 139.474L162.43 112.042" stroke="#76E5FF" stroke-linecap="round" stroke-linejoin="round"/>
<path d="M125.875 145.242L173.387 117.81" stroke="#76E5FF" stroke-linecap="round" stroke-linejoin="round"/>
<path d="M167.086 138.489L186.135 127.492" stroke="#76E5FF" stroke-linecap="round" stroke-linejoin="round"/>
<path d="M164.359 129.795C166.305 130.906 168.035 132.358 169.468 134.08C170.183 134.94 170.818 135.863 171.365 136.838C171.493 137.068 171.689 137.404 171.349 137.539C171.091 137.621 170.814 137.613 170.562 137.518C170.023 137.344 169.587 136.924 169.208 136.519C167.642 134.837 166.505 132.802 165.893 130.587C165.74 130.036 165.621 129.477 165.539 128.911C165.498 128.633 165.463 128.316 165.628 128.07C165.795 127.861 166.015 127.701 166.265 127.607C167.151 127.204 168.203 127.33 169.07 127.735C171.159 128.709 171.925 131.029 172.273 133.144C172.331 133.392 172.362 133.645 172.366 133.899C172.366 133.964 172.356 134.079 172.293 134.119C172.204 134.176 172.109 134.062 172.063 134C171.887 133.763 171.8 133.431 171.717 133.152C171.623 132.839 171.554 132.52 171.512 132.196C171.455 131.75 171.358 131.108 171.933 130.995C172.399 130.902 172.815 131.158 173.148 131.454C173.548 131.809 173.913 132.219 174.441 132.388C174.921 132.528 175.436 132.487 175.889 132.274C176.928 131.82 177.442 130.76 177.632 129.697C177.733 129.127 177.779 128.548 177.77 127.969C177.778 127.396 177.646 126.829 177.387 126.318C176.945 125.516 175.797 124.933 174.965 125.517C174.77 125.663 174.609 125.849 174.493 126.063C174.378 126.277 174.31 126.514 174.295 126.757C174.243 127.305 174.446 127.847 174.729 128.307C175.341 129.298 176.259 130.144 177.196 130.818C177.441 130.992 177.693 131.159 177.953 131.31C178.213 131.46 178.493 131.588 178.795 131.547C179.334 131.473 179.592 130.926 179.782 130.48C180.511 128.773 180.754 126.897 180.484 125.061C180.45 124.819 180.081 124.922 180.116 125.163C180.294 126.437 180.219 127.734 179.892 128.979C179.751 129.578 179.537 130.158 179.255 130.705C179.14 130.914 178.976 131.149 178.718 131.172C178.422 131.199 178.125 130.972 177.889 130.823C176.843 130.178 175.933 129.334 175.212 128.339C174.892 127.882 174.631 127.351 174.679 126.78C174.72 126.313 174.988 125.836 175.462 125.704C175.936 125.571 176.419 125.789 176.751 126.104C177.163 126.494 177.326 127.073 177.372 127.622C177.414 128.21 177.39 128.801 177.299 129.383C177.234 129.964 177.048 130.525 176.755 131.03C176.478 131.483 176.053 131.825 175.551 131.997C175.31 132.082 175.051 132.107 174.798 132.069C174.545 132.032 174.305 131.933 174.099 131.781C173.669 131.473 173.343 131.016 172.86 130.775C172.477 130.587 171.982 130.52 171.585 130.713C171.048 130.978 171.066 131.597 171.123 132.115C171.19 132.765 171.359 133.399 171.624 133.996C171.722 134.214 171.889 134.45 172.134 134.506C172.244 134.531 172.36 134.517 172.46 134.465C172.56 134.413 172.639 134.327 172.682 134.223C172.784 133.997 172.751 133.749 172.717 133.512C172.676 133.226 172.63 132.94 172.577 132.656C172.174 130.504 171.245 128.242 169.096 127.332C168.179 126.949 167.118 126.842 166.185 127.235C165.675 127.448 165.203 127.782 165.138 128.37C165.123 128.674 165.149 128.98 165.216 129.277C165.264 129.563 165.32 129.847 165.387 130.13C165.922 132.414 166.996 134.537 168.518 136.322C169.19 137.11 170.176 138.213 171.344 137.944C171.469 137.923 171.586 137.87 171.684 137.79C171.782 137.71 171.858 137.605 171.903 137.487C171.996 137.191 171.838 136.901 171.697 136.649C171.415 136.147 171.11 135.659 170.783 135.186C169.48 133.303 167.85 131.669 165.971 130.361C165.512 130.042 165.04 129.745 164.554 129.469C164.51 129.443 164.458 129.436 164.409 129.448C164.36 129.461 164.318 129.493 164.292 129.537C164.267 129.581 164.259 129.633 164.272 129.682C164.285 129.731 164.317 129.773 164.36 129.799L164.359 129.795Z" fill="#333333"/>
<path d="M130.741 102.997L99.4923 121.038L91.0173 116.145L122.266 98.1036L130.741 102.997Z" fill="#76E5FF"/>
<path d="M216.353 119.008C217.331 117.314 217.331 115.484 216.353 114.919C215.376 114.355 213.791 115.27 212.813 116.964C211.835 118.657 211.835 120.488 212.813 121.052C213.79 121.616 215.375 120.701 216.353 119.008Z" fill="#00BDEA"/>
<path d="M217.779 119.642L214.608 117.682C214.608 117.682 214.975 117.289 215.47 117.3L218.642 119.261C218.48 119.26 218.318 119.293 218.17 119.359C218.021 119.424 217.888 119.521 217.779 119.642Z" fill="#42CAEA"/>
<path d="M214.557 117.683L217.729 119.643C217.729 119.643 217.027 120.371 217.009 121.119L213.787 119.058C213.787 119.058 213.85 118.527 214.557 117.683Z" fill="#76E5FF"/>
<path d="M214.221 120.137L217.442 122.145C216.932 122.01 217.012 121.069 217.012 121.069L213.79 119.072C213.79 119.072 213.569 119.777 214.221 120.137Z" fill="#009ABF"/>
<path d="M218.635 121.055C219.067 120.307 219.067 119.498 218.634 119.248C218.202 118.999 217.501 119.403 217.069 120.151C216.637 120.9 216.637 121.709 217.07 121.958C217.502 122.208 218.203 121.804 218.635 121.055Z" fill="#00BDEA"/>
<path d="M104.634 94.9939L89.3573 103.813C87.9803 104.609 85.7465 104.609 84.3695 103.813L81.2075 101.989C79.8293 101.194 79.8305 99.9039 81.2075 99.1096L98.2288 89.2844L104.634 94.9939Z" fill="#2FBAE5"/>
<path d="M93.13 99.6553L91.5592 100.562L89.1533 98.4211L90.5329 101.155L89.5702 101.709L86.0895 100.067L88.5732 102.286L87.9357 102.654L84.395 99.5074L86.2004 98.4657L88.9519 99.8019L87.7776 97.5554L89.5957 96.5048L93.13 99.6553ZM91.6345 97.3067C91.764 97.0921 91.9266 96.8993 92.1164 96.7355C92.3517 96.5293 92.6081 96.3485 92.8814 96.1962C93.1429 96.0411 93.4177 95.9097 93.7025 95.8035C93.9214 95.7225 94.1498 95.6702 94.3821 95.6479C94.5718 95.6307 94.7631 95.6449 94.9482 95.69C95.1194 95.734 95.2837 95.8014 95.4365 95.8902C95.5298 95.9439 95.6193 96.004 95.7043 96.07C95.7828 96.1229 95.8586 96.18 95.9312 96.2408L97.1552 97.3322L96.0166 97.9888L95.4365 97.8014L95.3932 97.8257C95.4056 98.0133 95.3534 98.1996 95.2453 98.3535C95.1226 98.5255 94.9626 98.6676 94.7773 98.7691C94.6565 98.8384 94.5282 98.8936 94.3948 98.9336C94.2521 98.977 94.105 99.0043 93.9562 99.0152C93.7995 99.0233 93.6424 99.0121 93.4883 98.9821C93.3242 98.9474 93.1667 98.8867 93.0217 98.8023C92.7769 98.6608 92.6494 98.5103 92.6392 98.3535C92.639 98.2616 92.6571 98.1705 92.6923 98.0856C92.7276 98.0007 92.7793 97.9236 92.8444 97.8588C93.0207 97.662 93.2232 97.4904 93.4462 97.3488C93.7012 97.178 93.9741 97.0109 94.2533 96.8503L94.085 96.7151C94.018 96.661 93.9473 96.6116 93.8734 96.5672C93.7792 96.5157 93.6755 96.484 93.5686 96.4741C93.4342 96.4604 93.2992 96.4933 93.1861 96.5672C93.0204 96.6629 92.9477 96.7623 92.9668 96.8656C92.997 96.9814 93.067 97.083 93.1645 97.1524L92.1317 97.7479L91.6345 97.3067ZM94.5083 97.0862L94.3808 97.1601C94.2681 97.2197 94.1677 97.3001 94.085 97.3973C94.03 97.4553 93.9951 97.5295 93.9856 97.6089C93.9854 97.6759 94.0079 97.7411 94.0493 97.7938C94.0952 97.8538 94.1529 97.9037 94.2189 97.9404C94.3213 98.0024 94.4383 98.0363 94.558 98.0386C94.6618 98.0401 94.7642 98.0146 94.8551 97.9646C94.9001 97.9415 94.9398 97.9093 94.9716 97.87C95.0035 97.8307 95.0268 97.7852 95.04 97.7364C95.0526 97.6866 95.0498 97.6341 95.0321 97.5859C95.0143 97.5376 94.9824 97.4959 94.9405 97.4661L94.5083 97.0862ZM97.7188 94.4163L97.6614 93.5238L98.4761 93.0546L98.5105 94.554L101.15 95.0232L99.6504 95.8889L98.2211 95.6339V96.7126L97.4077 97.1818L97.4421 95.4949L95.0017 95.0576L96.4948 94.1957L97.7188 94.4163Z" fill="white"/>
<path d="M106.027 92.2093L104.59 93.0393L102.192 90.9075L103.648 90.0724L106.027 92.2093ZM102.899 89.431C102.99 89.4754 103.064 89.5473 103.111 89.6363C103.148 89.7035 103.159 89.7823 103.14 89.8569C103.121 89.9388 103.079 90.0136 103.019 90.0724C102.947 90.1486 102.863 90.2135 102.772 90.2649C102.585 90.373 102.378 90.4399 102.163 90.4613C101.949 90.4836 101.733 90.4362 101.548 90.3261C101.46 90.2814 101.386 90.2135 101.335 90.1298C101.315 90.0979 101.301 90.0622 101.295 90.0249C101.289 89.9877 101.291 89.9496 101.3 89.913C101.323 89.8297 101.367 89.7537 101.428 89.6924C101.503 89.6144 101.589 89.5471 101.683 89.4923C101.867 89.3861 102.073 89.3208 102.285 89.301C102.498 89.2768 102.714 89.3224 102.899 89.431ZM106.041 89.2105C106.047 89.0933 106.07 88.9777 106.111 88.8675C106.165 88.7491 106.234 88.6381 106.316 88.5373C106.435 88.3972 106.579 88.2808 106.741 88.1943C106.939 88.0717 107.166 88.0027 107.399 87.9941C107.596 87.984 107.793 88.0217 107.972 88.1038L108.014 88.0796C108.025 87.9562 108.054 87.8351 108.1 87.72C108.152 87.6032 108.218 87.4935 108.297 87.3936C108.403 87.263 108.533 87.1547 108.68 87.0749C108.923 86.9338 109.198 86.8562 109.479 86.8492C109.74 86.8302 110 86.8874 110.229 87.0137C110.363 87.0952 110.488 87.1896 110.604 87.2954C110.745 87.4229 110.9 87.5581 111.064 87.7073L112.147 88.6763L110.753 89.4808L109.288 88.1943L109.13 88.0515C109.087 88.011 109.039 87.9751 108.989 87.9444C108.922 87.9061 108.846 87.8851 108.769 87.8832C108.687 87.8773 108.606 87.8959 108.535 87.9368C108.495 87.9564 108.46 87.9851 108.433 88.0205C108.406 88.0559 108.387 88.097 108.379 88.1407C108.367 88.2042 108.36 88.2686 108.359 88.3333L110.091 89.8633L108.768 90.6283L107.307 89.338C107.256 89.2972 107.206 89.2551 107.159 89.2105C107.111 89.1676 107.059 89.1296 107.003 89.097C106.934 89.057 106.856 89.0342 106.776 89.0307C106.697 89.0228 106.618 89.0402 106.549 89.0804C106.511 89.1003 106.477 89.128 106.451 89.1619C106.424 89.1957 106.404 89.2349 106.394 89.2768C106.382 89.3398 106.375 89.4038 106.373 89.468L108.11 91.0082L106.667 91.8421L104.268 89.7128L105.416 89.0473L105.997 89.236L106.041 89.2105ZM112.426 85.003L113.869 84.1704L116.261 86.3022L115.114 86.9639L114.533 86.7765L114.491 86.8007C114.511 86.9781 114.466 87.1566 114.364 87.3031C114.239 87.4882 114.071 87.6407 113.876 87.748C113.609 87.9049 113.307 87.9925 112.998 88.003C112.717 88.0181 112.437 87.9531 112.191 87.8156C112.054 87.7341 111.926 87.6384 111.809 87.53C111.672 87.4025 111.542 87.2827 111.42 87.1743L110.337 86.2066L111.773 85.3766L113.076 86.5368C113.104 86.5648 113.14 86.5955 113.182 86.6312L113.31 86.737L113.423 86.8352C113.454 86.8588 113.487 86.8805 113.521 86.9002C113.591 86.941 113.668 86.9687 113.748 86.9818C113.832 86.9896 113.917 86.9699 113.989 86.9257C114.026 86.9065 114.06 86.8798 114.086 86.8474C114.113 86.8149 114.133 86.7774 114.145 86.737C114.162 86.6731 114.167 86.6064 114.159 86.5406L112.426 85.003ZM116.27 83.3021C116.276 83.1849 116.299 83.0692 116.34 82.9591C116.468 82.6702 116.69 82.433 116.97 82.286C117.168 82.1634 117.395 82.0944 117.628 82.0858C117.825 82.0758 118.022 82.1134 118.202 82.1954L118.244 82.1712C118.253 82.0478 118.282 81.9266 118.328 81.8116C118.381 81.6952 118.448 81.5857 118.527 81.4852C118.632 81.3547 118.762 81.2464 118.909 81.1665C119.152 81.0251 119.428 80.9479 119.709 80.9421C119.969 80.9224 120.23 80.9791 120.458 81.1053C120.592 81.1869 120.718 81.2813 120.833 81.3871C120.975 81.512 121.129 81.6493 121.294 81.7989L122.376 82.7679L120.988 83.5724L119.523 82.286L119.359 82.1432C119.316 82.1027 119.269 82.0668 119.218 82.036C119.151 81.9976 119.076 81.9766 118.999 81.9749C118.917 81.9691 118.836 81.9878 118.765 82.0284C118.725 82.0481 118.69 82.0767 118.663 82.1121C118.637 82.1475 118.618 82.1887 118.61 82.2324C118.597 82.2959 118.59 82.3603 118.588 82.4249L120.322 83.9549L118.999 84.7199L117.545 83.4296C117.493 83.3888 117.443 83.3467 117.396 83.3021C117.348 83.2587 117.296 83.2206 117.24 83.1887C117.172 83.1485 117.094 83.1257 117.015 83.1224C116.936 83.1145 116.856 83.1319 116.788 83.1721C116.749 83.1917 116.715 83.2194 116.689 83.2533C116.662 83.2872 116.642 83.3264 116.632 83.3684C116.62 83.4315 116.612 83.4954 116.61 83.5597L118.344 85.0999L116.897 85.935L114.499 83.8058L115.647 83.1389L116.227 83.3276L116.27 83.3021Z" fill="#4D4D4D"/>
</svg>
