<svg width="255" height="255" viewBox="0 0 255 255" fill="none" xmlns="http://www.w3.org/2000/svg">
<path d="M127.944 226.147C191.481 226.147 242.988 196.409 242.988 159.726C242.988 123.042 191.481 93.3045 127.944 93.3045C64.4064 93.3045 12.8992 123.042 12.8992 159.726C12.8992 196.409 64.4064 226.147 127.944 226.147Z" fill="#F7F7F7"/>
<path d="M230.052 78.2799L159.361 119.094L76.5485 71.2814L147.24 30.4674L230.052 78.2799Z" fill="#F7F7F7"/>
<path d="M221.193 78.1843L159.792 113.634L88.842 72.3881L85.4747 70.431L146.876 34.9809L221.193 78.1843Z" fill="#E0E0E0"/>
<path d="M146.876 34.9809V39.3044L88.842 72.3881L85.4747 70.431L146.876 34.9809Z" fill="#C2C2C2"/>
<path d="M230.052 142.175L159.315 182.765V118.87L230.052 78.2799V142.175Z" fill="#E0E0E0"/>
<path d="M146.875 34.9809V39.3044L217.546 80.2906L221.193 78.1843L146.875 34.9809Z" fill="#9E9E9E"/>
<path d="M148.596 64.9345L124.102 79.0768L107.292 69.3715L131.787 55.2292L148.596 64.9345Z" fill="#F7F7F7"/>
<path d="M148.634 72.9211L123.964 87.1641V79.138L148.634 64.895V72.9211Z" fill="#C2C2C2"/>
<path d="M123.964 87.1985L107.255 77.5519V69.2363L123.964 78.883V87.1985Z" fill="#9E9E9E"/>
<path d="M159.315 182.965L76.6454 135.235V71.4128L159.315 119.142V182.965Z" fill="#9E9E9E"/>
<path d="M142.477 173.176L97.192 147.03V100.212L142.477 126.358V173.176Z" fill="#C2C2C2"/>
<path d="M120.175 147.237L111.022 152.522V142.001L120.175 136.717V147.237Z" fill="#E8AF07"/>
<path d="M111.036 142.044L101.89 136.764L111.036 131.484L120.18 136.764L111.036 142.044Z" fill="#EBC147"/>
<path d="M111.016 152.505L101.939 147.265V136.783L111.016 142.025V152.505Z" fill="#FFD24D"/>
<path d="M115.361 148.388L112.283 150.164V148.623L115.361 146.847V148.388Z" fill="#FFD24D"/>
<path d="M117.431 139.864L114.93 141.357V139.815L117.431 138.323V139.864Z" fill="#EBC147"/>
<path d="M104.434 147.05L102.672 146.033V143.43L104.434 144.447V147.05Z" fill="#E8AF07"/>
<path d="M107.095 148.656L105.333 147.64V145.038L107.095 146.054V148.656Z" fill="#E8AF07"/>
<path d="M114.871 139.842L105.75 134.575L108.31 133.097L117.431 138.363L114.871 139.842Z" fill="#FFD24D"/>
<path d="M107.231 133.837L116.257 139.054L116.181 140.611" stroke="#E8AF07" stroke-width="2" stroke-miterlimit="10"/>
<path d="M129.827 152.999L120.672 158.284V147.762L129.827 142.477V152.999Z" fill="#E8AF07"/>
<path d="M120.686 147.806L111.542 142.525L120.686 137.245L129.832 142.526L120.686 147.806Z" fill="#EBC147"/>
<path d="M120.666 158.266L111.589 153.025V142.545L120.666 147.785V158.266Z" fill="#FFD24D"/>
<path d="M125.011 154.149L121.935 155.926V154.385L125.011 152.607V154.149Z" fill="#FFD24D"/>
<path d="M127.082 145.625L124.582 147.117V145.576L127.082 144.084V145.625Z" fill="#EBC147"/>
<path d="M114.085 152.811L112.324 151.794V149.192L114.085 150.208V152.811Z" fill="#E8AF07"/>
<path d="M116.745 154.418L114.985 153.4V150.798L116.745 151.814V154.418Z" fill="#E8AF07"/>
<path d="M124.522 145.602L115.401 140.337L117.96 138.859L127.082 144.125L124.522 145.602Z" fill="#FFD24D"/>
<path d="M116.883 139.597L125.908 144.816L125.831 146.371" stroke="#E8AF07" stroke-width="2" stroke-miterlimit="10"/>
<path d="M124.756 138.465L115.602 143.75V133.229L124.756 127.944V138.465Z" fill="#E8AF07"/>
<path d="M115.616 133.272L106.47 127.992L115.616 122.712L124.76 127.992L115.616 133.272Z" fill="#EBC147"/>
<path d="M115.595 143.733L106.519 138.492V128.011L115.595 133.252V143.733Z" fill="#FFD24D"/>
<path d="M119.941 139.616L116.864 141.392V139.851L119.941 138.075V139.616Z" fill="#FFD24D"/>
<path d="M122.011 131.092L119.511 132.585V131.043L122.011 129.55V131.092Z" fill="#EBC147"/>
<path d="M109.014 138.278L107.253 137.261V134.658L109.014 135.675V138.278Z" fill="#E8AF07"/>
<path d="M111.675 139.884L109.914 138.868V136.264L111.675 137.282V139.884Z" fill="#E8AF07"/>
<path d="M119.451 131.069L110.331 125.803L112.89 124.325L122.011 129.591L119.451 131.069Z" fill="#FFD24D"/>
<path d="M111.812 125.065L120.837 130.282L120.76 131.838" stroke="#E8AF07" stroke-width="2" stroke-miterlimit="10"/>
<path d="M148.112 178.409L138.958 183.694V173.173L148.112 167.888V178.409Z" fill="#E8AF07"/>
<path d="M138.971 173.216L129.827 167.937L138.971 162.657L148.117 167.937L138.971 173.216Z" fill="#EBC147"/>
<path d="M138.952 183.678L129.874 178.436V167.956L138.952 173.196V183.678Z" fill="#FFD24D"/>
<path d="M143.296 179.561L140.219 181.337V179.795L143.296 178.019V179.561Z" fill="#FFD24D"/>
<path d="M145.367 171.036L142.866 172.528V170.986L145.367 169.495V171.036Z" fill="#EBC147"/>
<path d="M132.369 178.222L130.608 177.206V174.602L132.369 175.618V178.222Z" fill="#E8AF07"/>
<path d="M135.03 179.829L133.269 178.812V176.209L135.03 177.226V179.829Z" fill="#E8AF07"/>
<path d="M142.808 171.013L133.686 165.747L136.246 164.27L145.367 169.535L142.808 171.013Z" fill="#FFD24D"/>
<path d="M135.168 165.008L144.192 170.227L144.117 171.782" stroke="#E8AF07" stroke-width="2" stroke-miterlimit="10"/>
<path d="M148.112 167.232L138.958 172.516V161.995L148.112 156.71V167.232Z" fill="#E8AF07"/>
<path d="M138.971 162.038L129.827 156.759L138.971 151.479L148.117 156.759L138.971 162.038Z" fill="#EBC147"/>
<path d="M138.952 172.5L129.874 167.258V156.778L138.952 162.018V172.5Z" fill="#FFD24D"/>
<path d="M143.296 168.383L140.219 170.159V168.617L143.296 166.841V168.383Z" fill="#FFD24D"/>
<path d="M145.367 159.858L142.866 161.35V159.81L145.367 158.317V159.858Z" fill="#EBC147"/>
<path d="M132.369 167.044L130.608 166.028V163.424L132.369 164.442V167.044Z" fill="#E8AF07"/>
<path d="M135.03 168.651L133.269 167.634V165.031L135.03 166.048V168.651Z" fill="#E8AF07"/>
<path d="M142.808 159.835L133.686 154.57L136.246 153.092L145.367 158.358L142.808 159.835Z" fill="#FFD24D"/>
<path d="M135.168 153.831L144.192 159.049L144.117 160.604" stroke="#E8AF07" stroke-width="2" stroke-miterlimit="10"/>
<path d="M85.6876 140.374L76.5344 145.659V135.137L85.6876 129.852V140.374Z" fill="#E8AF07"/>
<path d="M76.5484 135.181L67.4028 129.901L76.5484 124.621L85.6927 129.901L76.5484 135.181Z" fill="#EBC147"/>
<path d="M76.528 145.642L67.4513 140.4V129.92L76.528 135.16V145.642Z" fill="#FFD24D"/>
<path d="M80.8733 141.524L77.7954 143.301V141.76L80.8733 139.984V141.524Z" fill="#FFD24D"/>
<path d="M82.9438 133L80.4423 134.492V132.951L82.9438 131.459V133Z" fill="#EBC147"/>
<path d="M69.9465 140.186L68.1844 139.17V136.567L69.9465 137.583V140.186Z" fill="#E8AF07"/>
<path d="M72.6061 141.793L70.8453 140.777V138.173L72.6061 139.19V141.793Z" fill="#E8AF07"/>
<path d="M80.3837 132.977L71.2623 127.712L73.8225 126.234L82.9439 131.5L80.3837 132.977Z" fill="#FFD24D"/>
<path d="M72.7439 126.973L81.7696 132.191L81.6931 133.746" stroke="#E8AF07" stroke-width="2" stroke-miterlimit="10"/>
<path d="M85.6876 129.196L76.5344 134.481V123.959L85.6876 118.674V129.196Z" fill="#E8AF07"/>
<path d="M76.5484 124.003L67.4028 118.723L76.5484 113.443L85.6927 118.723L76.5484 124.003Z" fill="#EBC147"/>
<path d="M76.528 134.464L67.4513 129.223V118.742L76.528 123.982V134.464Z" fill="#FFD24D"/>
<path d="M80.8733 130.347L77.7954 132.123V130.582L80.8733 128.806V130.347Z" fill="#FFD24D"/>
<path d="M82.9438 121.822L80.4423 123.314V121.774L82.9438 120.281V121.822Z" fill="#EBC147"/>
<path d="M69.9465 129.008L68.1844 127.992V125.389L69.9465 126.406V129.008Z" fill="#E8AF07"/>
<path d="M72.6061 130.615L70.8453 129.599V126.995L72.6061 128.013V130.615Z" fill="#E8AF07"/>
<path d="M80.3837 121.799L71.2623 116.534L73.8225 115.056L82.9439 120.322L80.3837 121.799Z" fill="#FFD24D"/>
<path d="M72.7439 115.796L81.7696 121.013L81.6931 122.568" stroke="#E8AF07" stroke-width="2" stroke-miterlimit="10"/>
<path d="M222.7 138.284L206.766 147.483V134.706L222.7 125.506V138.284Z" fill="#4BC462"/>
<path d="M222.765 125.47L206.933 134.612L201.082 131.366L216.916 122.224L222.765 125.47Z" fill="#68CF7C"/>
<path d="M206.712 147.579L201.082 144.327V131.366L206.712 134.616V147.579Z" fill="#3EA352"/>
<path d="M214.567 139.114C215.603 137.32 215.602 135.381 214.566 134.783C213.53 134.185 211.851 135.154 210.815 136.948C209.779 138.742 209.779 140.682 210.815 141.28C211.851 141.878 213.531 140.909 214.567 139.114Z" fill="#68CF7C"/>
<path d="M196.513 152.828L180.578 162.028V149.25L196.513 140.051V152.828Z" fill="#4BC462"/>
<path d="M196.578 140.015L180.745 149.157L174.896 145.911L190.728 136.769L196.578 140.015Z" fill="#68CF7C"/>
<path d="M180.525 162.123L174.896 158.873V145.911L180.525 149.161V162.123Z" fill="#3EA352"/>
<path d="M188.379 153.659C189.414 151.865 189.414 149.926 188.378 149.328C187.342 148.73 185.662 149.699 184.627 151.493C183.591 153.287 183.591 155.227 184.627 155.825C185.663 156.423 187.343 155.453 188.379 153.659Z" fill="#68CF7C"/>
<path d="M101.193 144.381L97.1244 146.73V116.619L101.193 114.271V144.381Z" fill="#E0E0E0"/>
<path d="M142.477 146.225L97.192 120.08V100.212L142.477 126.358V146.225Z" fill="#757575"/>
<path d="M97.1143 114.668L142.398 140.814" stroke="white" stroke-width="3" stroke-linecap="round" stroke-linejoin="round"/>
<path d="M97.192 110.146L142.477 136.291" stroke="white" stroke-width="3" stroke-linecap="round" stroke-linejoin="round"/>
<path d="M97.3335 105.418L142.619 131.563" stroke="white" stroke-width="3" stroke-linecap="round" stroke-linejoin="round"/>
<path d="M81.0925 194.736L86.9333 198.108L88.3435 196.956L82.4211 193.593L81.0925 194.736Z" fill="#ABABAB"/>
<path d="M94.183 204.418C94.183 201.957 92.4553 198.964 90.3235 197.733C89.2041 197.088 88.1968 197.056 87.493 197.528L85.9528 198.229L83.9128 199.427L85.1177 199.379C84.9833 199.794 84.9178 200.228 84.9239 200.665C84.9239 203.125 86.6515 206.118 88.7833 207.348C89.0264 207.49 89.2826 207.609 89.5483 207.703L89.2933 208.02V208.864L91.7477 207.462C92.31 207.006 94.183 205.504 94.183 204.418Z" fill="#636363"/>
<path d="M89.5915 208.731C91.099 207.861 91.0992 205.039 89.5919 202.428C88.0846 199.817 85.6407 198.407 84.1332 199.277C82.6257 200.147 82.6256 202.969 84.1328 205.58C85.6401 208.19 88.084 209.601 89.5915 208.731Z" fill="#9E9E9E"/>
<path d="M88.5367 207.602C89.6027 206.986 89.6029 204.991 88.5371 203.145C87.4714 201.299 85.7433 200.301 84.6773 200.917C83.6113 201.532 83.6112 203.528 84.6769 205.374C85.7427 207.219 87.4708 208.217 88.5367 207.602Z" fill="#ABABAB"/>
<path d="M72.9504 193.611C72.9504 191.151 71.2228 188.158 69.091 186.928C67.9728 186.281 66.9655 186.249 66.2605 186.721L64.2205 187.917L65.4266 187.871C65.2911 188.286 65.2252 188.719 65.2315 189.155C65.2315 191.616 66.9604 194.61 69.091 195.84C69.3341 195.982 69.5903 196.1 69.856 196.193L69.601 196.511V197.356L71.5492 196.238C71.7337 196.169 71.9059 196.072 72.0592 195.948C72.6151 195.498 72.9504 194.693 72.9504 193.611Z" fill="#636363"/>
<path d="M69.8998 197.221C71.4073 196.35 71.4075 193.528 69.9002 190.918C68.393 188.307 65.9491 186.896 64.4416 187.767C62.9341 188.637 62.9339 191.459 64.4412 194.07C65.9484 196.68 68.3924 198.091 69.8998 197.221Z" fill="#9E9E9E"/>
<path d="M69.1004 195.836C70.1664 195.221 70.1666 193.225 69.1009 191.379C68.0351 189.533 66.307 188.536 65.241 189.151C64.1751 189.767 64.1749 191.762 65.2406 193.608C66.3064 195.454 68.0345 196.452 69.1004 195.836Z" fill="#ABABAB"/>
<path d="M45.821 178.301C45.821 175.84 44.0934 172.848 41.9616 171.616C40.8421 170.971 39.8361 170.939 39.1311 171.411L37.0911 172.607L38.2959 172.561C38.1615 172.976 38.0961 173.409 38.1021 173.845C38.1021 176.306 39.8298 179.299 41.9616 180.53C42.2049 180.671 42.4611 180.789 42.7266 180.883L42.4716 181.2V182.046L44.421 180.922C44.6052 180.853 44.7773 180.756 44.931 180.633C45.4844 180.187 45.821 179.392 45.821 178.301Z" fill="#636363"/>
<path d="M42.7702 181.911C44.2777 181.04 44.2779 178.219 42.7706 175.608C41.2634 172.997 38.8194 171.586 37.3119 172.457C35.8045 173.327 35.8043 176.149 37.3115 178.76C38.8188 181.37 41.2627 182.781 42.7702 181.911Z" fill="#9E9E9E"/>
<path d="M41.9708 180.526C43.0368 179.911 43.037 177.915 41.9712 176.07C40.9055 174.224 39.1774 173.226 38.1114 173.841C37.0454 174.457 37.0452 176.452 38.111 178.298C39.1767 180.144 40.9048 181.142 41.9708 180.526Z" fill="#ABABAB"/>
<path d="M77.288 197.718L104.137 182.273V150.002L77.288 165.468V197.718Z" fill="#ABABAB"/>
<path d="M29.6846 137.978L77.3568 165.503L104.137 150.042L56.4634 122.517L29.6846 137.978Z" fill="#F2F2F2"/>
<path d="M29.6846 170.228L77.2816 197.708V165.458L29.6846 137.978V170.228Z" fill="#D1D1D1"/>
<path d="M98.152 149.199L94.4583 147.067L71.9316 160.074L75.624 162.206L98.152 149.199Z" fill="#D1D1D1"/>
<path d="M89.6962 144.307L86.0038 142.175L63.4758 155.182L67.1695 157.313L89.6962 144.307Z" fill="#D1D1D1"/>
<path d="M82.0858 139.88L78.3934 137.747L55.8667 150.753L59.5591 152.887L82.0858 139.88Z" fill="#D1D1D1"/>
<path d="M73.5496 134.972L69.8559 132.84L47.3292 145.846L51.0216 147.978L73.5496 134.972Z" fill="#D1D1D1"/>
<path d="M64.1618 129.507L60.4694 127.374L37.9414 140.38L41.6351 142.512L64.1618 129.507Z" fill="#D1D1D1"/>
<path d="M57.097 124.953L34.5359 137.978" stroke="#ABABAB" stroke-width="7" stroke-linecap="round" stroke-linejoin="round"/>
<path d="M70.5496 190.435L73.9194 192.381V168.083L70.5496 166.138V190.435Z" fill="#ABABAB"/>
<path d="M62.1371 185.45L65.5082 187.396V163.098L62.1371 161.152V185.45Z" fill="#ABABAB"/>
<path d="M53.726 180.021L57.0971 181.967V157.669L53.726 155.723V180.021Z" fill="#ABABAB"/>
<path d="M45.3148 175.528L48.6846 177.475V153.177L45.3148 151.232V175.528Z" fill="#ABABAB"/>
<path d="M36.9023 170.997L40.2734 172.942V148.645L36.9023 146.699V170.997Z" fill="#ABABAB"/>
<path d="M57.0971 157.794L53.726 155.847V180.145" stroke="#757575" stroke-width="3" stroke-miterlimit="10"/>
<path d="M48.6846 153.177L45.3148 151.232V175.528" stroke="#757575" stroke-width="3" stroke-miterlimit="10"/>
<path d="M40.0936 148.645L36.7225 146.699V170.997" stroke="#757575" stroke-width="3" stroke-miterlimit="10"/>
<path d="M31.9706 142.315V169.133" stroke="#ABABAB" stroke-width="7" stroke-linecap="round" stroke-linejoin="round"/>
<path d="M89.6962 144.392L86.0038 142.261L63.4758 155.267" stroke="white" stroke-width="3" stroke-miterlimit="10"/>
<path d="M98.152 149.199L75.624 162.205" stroke="#ABABAB" stroke-width="3" stroke-miterlimit="10"/>
<path d="M89.6963 144.307L67.1696 157.313" stroke="#ABABAB" stroke-width="3" stroke-miterlimit="10"/>
<path d="M82.2299 139.936L78.5362 137.805L56.0095 150.811" stroke="white" stroke-width="3" stroke-miterlimit="10"/>
<path d="M73.3839 134.972L69.6903 132.84L47.1636 145.846" stroke="white" stroke-width="3" stroke-miterlimit="10"/>
<path d="M64.0777 129.494L60.3853 127.362L37.8573 140.369" stroke="white" stroke-width="3" stroke-miterlimit="10"/>
<path d="M82.0858 139.88L59.5591 152.887" stroke="#ABABAB" stroke-width="3" stroke-miterlimit="10"/>
<path d="M73.4948 134.943L50.9668 147.95" stroke="#ABABAB" stroke-width="3" stroke-miterlimit="10"/>
<path d="M64.1695 129.309L41.6415 142.315" stroke="#ABABAB" stroke-width="3" stroke-miterlimit="10"/>
<path d="M98.152 149.199L94.4583 147.067L71.9316 160.074" fill="#D1D1D1"/>
<path d="M73.9194 168.083L70.5496 166.138V190.435" stroke="#757575" stroke-width="3" stroke-linecap="round" stroke-linejoin="round"/>
<path d="M65.3845 163.098L62.0134 161.152V185.45" stroke="#757575" stroke-width="3" stroke-miterlimit="10"/>
<path d="M98.0857 149.213L94.3933 147.081L71.8654 160.088" stroke="white" stroke-width="3" stroke-miterlimit="10"/>
<path d="M102.219 180.174L98.476 182.335V158.071L102.219 155.91V180.174Z" fill="#757575"/>
<path d="M95.7857 183.994L92.041 186.155V161.891L95.7857 159.729V183.994Z" fill="#757575"/>
<path d="M89.6963 187.54L85.9529 189.701V165.436L89.6963 163.275V187.54Z" fill="#757575"/>
<path d="M82.9655 191.432L79.2208 193.593V169.33L82.9655 167.168V191.432Z" fill="#757575"/>
<path d="M79.2208 169.33L82.9655 167.168V191.432" stroke="#616161" stroke-width="3" stroke-linecap="round" stroke-linejoin="round"/>
<path d="M85.9529 165.557L89.6963 163.396V187.661" stroke="#616161" stroke-width="3" stroke-linecap="round" stroke-linejoin="round"/>
<path d="M92.1991 161.659L95.9425 159.496V183.761" stroke="#616161" stroke-width="3" stroke-linecap="round" stroke-linejoin="round"/>
<path d="M98.476 158.026L102.219 155.864V180.128" stroke="#616161" stroke-width="3" stroke-linecap="round" stroke-linejoin="round"/>
<path d="M96.2804 194.588V204.291" stroke="black" stroke-width="3" stroke-linecap="round" stroke-linejoin="round"/>
<path d="M112.596 172.992L94.6432 183.359L82.3943 176.327L100.349 165.962L112.596 172.992Z" fill="#00BDEA"/>
<path d="M119.243 197.55L101.597 207.738V198.036L119.243 187.848V197.55Z" fill="#00BDEA"/>
<path d="M119.243 200.245L101.597 210.432V207.653L119.243 197.466V200.245Z" fill="#00A3C9"/>
<path d="M94.6433 183.359L101.597 198.036L119.243 187.848L112.597 172.992L94.6433 183.359Z" fill="#60CFEA"/>
<path d="M97.9965 185.338L102.448 194.114C102.519 194.256 102.62 194.381 102.742 194.483C102.864 194.585 103.006 194.661 103.158 194.707C103.311 194.752 103.471 194.766 103.629 194.747C103.787 194.728 103.939 194.678 104.077 194.598L116.6 187.368C116.855 187.22 117.045 186.983 117.133 186.701C117.22 186.42 117.198 186.116 117.072 185.85L112.826 176.955C112.756 176.809 112.657 176.679 112.535 176.574C112.413 176.468 112.271 176.389 112.116 176.341C111.962 176.293 111.8 176.278 111.639 176.295C111.479 176.313 111.324 176.364 111.184 176.445L98.4556 183.794C98.1964 183.944 98.0045 184.187 97.9191 184.475C97.8338 184.762 97.8615 185.071 97.9965 185.338Z" fill="white"/>
<path d="M101.597 198.036L94.6432 183.358L93.2139 182.593V182.507L82.3943 176.26V193.29C82.3942 193.53 82.457 193.766 82.5765 193.974C82.6959 194.183 82.8679 194.356 83.0751 194.477L88.7438 197.792C90.106 198.589 91.2357 199.73 92.0208 201.099C92.8059 202.468 93.219 204.019 93.219 205.598L101.586 210.427V205.242L101.597 205.25V198.036Z" fill="#00A3C9"/>
<path d="M92.8672 202.456L101.234 207.287" stroke="#00BDEA" stroke-width="3" stroke-linecap="round" stroke-linejoin="round"/>
<path d="M101.586 202.118L104.295 200.558C104.869 200.226 105.528 200.07 106.19 200.109C106.852 200.148 107.489 200.379 108.02 200.776L110.419 202.561L101.596 207.74L101.586 202.118Z" fill="#FFD24D"/>
<path d="M93.6552 185.571L83.5903 179.76V188.241L93.6552 194.055L96.8848 195.915C97.0178 195.991 97.1713 196.022 97.3233 196.005C97.4754 195.988 97.6182 195.924 97.7313 195.821C97.8444 195.718 97.9221 195.582 97.9533 195.432C97.9844 195.282 97.9675 195.127 97.9048 194.987L93.6552 185.571Z" fill="#E0E0E0"/>
<path d="M96.7368 196.396L93.9139 198.025V193.279L96.7368 191.649V196.396Z" fill="#60CFEA"/>
<path d="M97.0504 196.526L94.2275 198.155V193.41L97.0504 191.779V196.526Z" fill="#00BDEA"/>
<path d="M70.7892 182.808L48.6846 170.047V161.678L72.3996 175.371C72.6455 175.513 72.8495 175.718 72.9912 175.964C73.1329 176.21 73.2072 176.49 73.2066 176.774V181.413C73.2053 181.696 73.13 181.973 72.9883 182.217C72.8465 182.461 72.6432 182.664 72.3986 182.805C72.154 182.946 71.8767 183.021 71.5943 183.021C71.3119 183.022 71.0344 182.948 70.7892 182.808Z" fill="white"/>
<path d="M96.7368 191.649L97.0504 191.779L94.2276 193.41L93.9139 193.279L96.7368 191.649Z" fill="#60CFEA"/>
<path d="M93.9139 193.279V198.025L94.2276 198.155V193.41L93.9139 193.279Z" fill="#00A3C9"/>
<path d="M119.238 192.27L115.915 194.183C115.205 194.592 114.684 195.264 114.464 196.054L113.118 200.889L119.238 197.356V192.27Z" fill="#FFD24D"/>
<path d="M51.8427 172.102L37.0183 163.543C35.6809 162.778 34.5958 160.895 34.5958 159.351V155.805C34.5958 154.262 35.6783 153.638 37.0183 154.403L53.5334 163.937L51.8427 172.102Z" fill="#2FBAE5"/>
<path d="M42.3428 164.694L40.8128 163.815L41.4503 160.755L39.8234 163.24L38.8888 162.701L38.5803 158.978L37.9211 162.142L37.3027 161.785L38.2297 157.285L39.9815 158.296L40.1932 161.258L41.5115 159.181L43.2774 160.201L42.3428 164.694ZM43.591 162.3C43.8343 162.304 44.0752 162.348 44.305 162.427C44.5923 162.525 44.8684 162.654 45.1287 162.81C45.3862 162.954 45.6299 163.121 45.8567 163.31C46.031 163.454 46.1858 163.62 46.317 163.804C46.4243 163.955 46.5053 164.123 46.5567 164.3C46.6031 164.466 46.6262 164.638 46.6255 164.81C46.6255 164.915 46.6187 165.019 46.6051 165.123C46.5988 165.215 46.5873 165.306 46.5707 165.397L46.2481 166.955L45.1427 166.317L45.0152 165.739L44.9744 165.716C44.8239 165.815 44.644 165.86 44.4644 165.843C44.2605 165.824 44.0635 165.759 43.8881 165.653C43.7713 165.585 43.6627 165.504 43.5643 165.411C43.4581 165.313 43.364 165.202 43.2838 165.082C43.2007 164.955 43.1334 164.818 43.0836 164.674C43.0329 164.519 43.0075 164.357 43.0084 164.195C43.0084 163.919 43.0721 163.739 43.2009 163.655C43.3553 163.566 43.5386 163.542 43.7109 163.588C43.9615 163.639 44.2039 163.725 44.4313 163.843C44.7016 163.978 44.9719 164.123 45.2422 164.279C45.2511 164.231 45.2626 164.164 45.2766 164.077C45.2898 163.993 45.2967 163.908 45.297 163.822C45.2952 163.718 45.2717 163.616 45.2281 163.521C45.1747 163.399 45.0799 163.299 44.9604 163.24C44.7997 163.146 44.6812 163.134 44.6034 163.2C44.5211 163.282 44.4701 163.389 44.4593 163.505L43.4572 162.926L43.591 162.3ZM45.1708 164.603L45.0433 164.531C44.9376 164.467 44.8208 164.424 44.699 164.404C44.6237 164.385 44.5445 164.392 44.4733 164.423C44.4159 164.455 44.371 164.505 44.3458 164.566C44.317 164.633 44.3027 164.706 44.3038 164.78C44.3011 164.896 44.3297 165.011 44.3866 165.113C44.4363 165.2 44.5073 165.274 44.5932 165.327C44.6342 165.353 44.6804 165.371 44.7288 165.379C44.7771 165.386 44.8265 165.383 44.8737 165.37C44.9221 165.357 44.9653 165.33 44.9973 165.292C45.0293 165.253 45.0485 165.206 45.0522 165.156L45.1708 164.603ZM48.9728 166.005L49.6932 165.526L50.4837 165.982L49.2406 166.739L50.1267 169.185L48.6706 168.345L48.1951 167.025L47.2885 167.549L46.4993 167.093L47.9337 166.303L47.1164 164.04L48.5661 164.877L48.9728 166.005Z" fill="white"/>
<path d="M54.8582 171.921L53.4646 171.115L54.0894 168.067L55.4919 168.88L54.8582 171.921ZM55.6755 167.944C55.6818 168.042 55.6577 168.139 55.6066 168.222C55.568 168.286 55.5063 168.331 55.4345 168.35C55.3563 168.373 55.273 168.373 55.1948 168.35C55.0955 168.326 55.0004 168.288 54.913 168.235C54.7314 168.131 54.5744 167.989 54.4527 167.819C54.3301 167.65 54.2653 167.446 54.2679 167.237C54.2629 167.141 54.284 167.047 54.329 166.963C54.3468 166.931 54.3706 166.904 54.399 166.882C54.4275 166.86 54.4601 166.844 54.4948 166.835C54.5754 166.813 54.6603 166.813 54.7409 166.835C54.8453 166.863 54.945 166.906 55.0367 166.963C55.2151 167.066 55.3694 167.206 55.4893 167.374C55.6104 167.54 55.6757 167.739 55.6755 167.944ZM57.3852 170.478C57.4863 170.425 57.5952 170.389 57.7078 170.371C57.8353 170.358 57.9638 170.362 58.0903 170.382C58.2654 170.415 58.4331 170.479 58.585 170.572C58.784 170.68 58.9518 170.837 59.0721 171.028C59.1758 171.19 59.2392 171.373 59.2569 171.564L59.299 171.587C59.4075 171.536 59.5232 171.501 59.642 171.485C59.7655 171.471 59.8902 171.474 60.013 171.493C60.1733 171.517 60.3272 171.574 60.4656 171.658C60.7026 171.794 60.9013 171.988 61.0432 172.222C61.1856 172.431 61.2641 172.678 61.2689 172.931C61.2656 173.083 61.2472 173.235 61.2141 173.383C61.1784 173.563 61.1363 173.758 61.0866 173.97L60.7984 175.349L59.4456 174.569L59.8167 172.713C59.8307 172.643 59.8447 172.574 59.8575 172.507C59.8704 172.451 59.8777 172.394 59.8791 172.337C59.8787 172.262 59.8594 172.188 59.823 172.122C59.7888 172.051 59.7342 171.992 59.6662 171.952C59.6301 171.928 59.589 171.913 59.5461 171.907C59.5032 171.902 59.4597 171.907 59.4189 171.921C59.3592 171.94 59.3015 171.966 59.2467 171.996L58.8005 174.196L57.5166 173.455L57.899 171.604C57.908 171.54 57.9195 171.476 57.9335 171.417C57.9467 171.356 57.9535 171.294 57.9539 171.231C57.9546 171.153 57.9358 171.077 57.899 171.008C57.868 170.938 57.8152 170.88 57.7486 170.842C57.7133 170.82 57.6735 170.805 57.632 170.799C57.5904 170.792 57.548 170.795 57.5076 170.807C57.4486 170.827 57.3915 170.852 57.3368 170.882L56.8829 173.086L55.4804 172.277L56.1064 169.228L57.2246 169.875L57.3521 170.453L57.3852 170.478ZM64.0152 173.8L65.4177 174.61L64.7802 177.655L63.6684 177.017L63.5409 176.438L63.4989 176.414C63.3575 176.515 63.1843 176.56 63.0118 176.542C62.7957 176.527 62.5863 176.46 62.4011 176.348C62.1384 176.201 61.9163 175.991 61.7547 175.737C61.6071 175.509 61.5262 175.244 61.5213 174.972C61.5243 174.817 61.5427 174.663 61.5762 174.512C61.6182 174.335 61.6539 174.168 61.6871 174.012L61.9752 172.632L63.3688 173.437L63.0258 175.094C63.0169 175.131 63.0067 175.176 62.9978 175.23L62.971 175.388L62.943 175.531C62.9408 175.569 62.9408 175.607 62.943 175.645C62.9423 175.724 62.9562 175.801 62.9838 175.875C63.0184 175.949 63.0761 176.01 63.1482 176.049C63.1821 176.072 63.2204 176.087 63.2606 176.094C63.3009 176.101 63.3421 176.099 63.3816 176.089C63.4442 176.074 63.5029 176.046 63.5537 176.006L64.0152 173.8ZM67.32 176.211C67.4211 176.158 67.53 176.122 67.6426 176.104C67.7701 176.092 67.8986 176.095 68.0251 176.116C68.2002 176.148 68.3679 176.213 68.5198 176.306C68.7188 176.413 68.8866 176.571 69.0069 176.762C69.1104 176.923 69.1742 177.107 69.193 177.298L69.2338 177.321C69.3423 177.27 69.458 177.235 69.5768 177.219C69.7003 177.205 69.825 177.207 69.9478 177.226C70.1081 177.251 70.262 177.307 70.4004 177.392C70.6374 177.528 70.8361 177.722 70.978 177.956C71.121 178.165 71.1999 178.412 71.2049 178.666C71.2011 178.818 71.1823 178.969 71.1489 179.117C71.1132 179.297 71.0711 179.492 71.0214 179.704L70.7332 181.083L69.3804 180.303L69.7515 178.446C69.7655 178.376 69.7795 178.307 69.7923 178.241C69.8052 178.185 69.8125 178.128 69.8139 178.07C69.8133 177.996 69.7945 177.922 69.7591 177.856C69.7247 177.785 69.6696 177.726 69.601 177.687C69.5651 177.662 69.524 177.647 69.4811 177.641C69.4382 177.636 69.3945 177.64 69.3537 177.655C69.294 177.674 69.2363 177.699 69.1815 177.73L68.7353 179.929L67.4475 179.188L67.83 177.337C67.839 177.273 67.8504 177.21 67.8645 177.151C67.8777 177.09 67.8845 177.027 67.8849 176.965C67.8856 176.887 67.8668 176.81 67.83 176.742C67.7989 176.672 67.7462 176.614 67.6796 176.576C67.6442 176.553 67.6045 176.538 67.5629 176.532C67.5214 176.526 67.479 176.529 67.4386 176.54C67.3796 176.56 67.3225 176.586 67.2678 176.616L66.81 178.82L65.4075 178.01L66.0323 174.962L67.1505 175.608L67.278 176.187L67.32 176.211Z" fill="#4D4D4D"/>
<path d="M220.172 112.126L169.196 141.556V122.761L220.172 93.33V112.126Z" fill="white"/>
<path d="M194.684 108.175V126.618" stroke="#9E9E9E" stroke-width="3" stroke-linecap="round" stroke-linejoin="round"/>
<path d="M169.196 141.556L220.172 112.126V93.33" stroke="#9E9E9E" stroke-width="3" stroke-linecap="round" stroke-linejoin="round"/>
</svg>
