<svg width="255" height="255" viewBox="0 0 255 255" fill="none" xmlns="http://www.w3.org/2000/svg">
<path d="M127.78 236.755C191.317 236.755 242.824 207.014 242.824 170.327C242.824 133.64 191.317 103.9 127.78 103.9C64.2439 103.9 12.7372 133.64 12.7372 170.327C12.7372 207.014 64.2439 236.755 127.78 236.755Z" fill="#F7F7F7"/>
<path d="M146.383 160.318V162.346C146.383 162.728 146.179 163.085 145.847 163.276L145.681 163.378L144.7 161.045L146.383 160.318Z" fill="#C2C2C2"/>
<path d="M145.567 163.468L127.793 173.731L127.245 174.05C126.901 174.254 126.467 174.229 126.149 173.986L105.06 158.176L120.551 148.894L145.516 161.708C146.013 161.963 146.204 162.575 145.949 163.072C145.873 163.238 145.732 163.378 145.567 163.468Z" fill="#C2C2C2"/>
<path d="M104.894 157.934L105.799 152.337L122.859 142.494L120.551 148.894L104.894 157.934Z" fill="#757575"/>
<path d="M127.781 171.487V173.731L127.232 174.05C127.016 174.178 126.76 174.216 126.518 174.165V171.487H127.781Z" fill="#E0E0E0"/>
<path d="M107.189 158.011L109.127 149.851L105.799 152.35L104.626 157.462C104.524 157.896 104.703 158.355 105.06 158.623L126.505 174.203V171.717L107.189 158.011Z" fill="#9E9E9E"/>
<path d="M107.227 158.049L108.757 150.845L125.817 140.99L123.19 148.895L107.227 158.049Z" fill="#C2C2C2"/>
<path d="M59.1345 174.382L62.5005 176.46L67.4602 168.249L59.1345 169.116V174.382Z" fill="#C2C2C2"/>
<path d="M226.72 151.661V151.75C226.708 152.515 226.3 153.204 225.637 153.586L207.659 163.965C206.996 164.347 206.18 164.347 205.517 163.978L205.492 163.965L163.06 139.472C162.027 138.873 161.67 137.547 162.269 136.514C162.46 136.183 162.728 135.915 163.06 135.724L181.037 125.345C181.713 124.963 182.529 124.963 183.205 125.345L225.637 149.838C225.764 149.902 225.879 149.991 225.981 150.08C226.44 150.475 226.708 151.049 226.72 151.661Z" fill="#9E9E9E"/>
<path d="M175.465 107.406C175.491 108.298 175.019 109.127 174.254 109.561L63.393 173.566L61.7737 174.509C60.6135 175.172 59.1345 174.777 58.4715 173.617C58.2675 173.272 58.1528 172.864 58.1528 172.469L56.0235 89.658V89.5177C56.049 88.6762 56.508 87.924 57.2347 87.5032L169.702 22.5547C170.863 21.8917 172.342 22.287 173.017 23.4472C173.221 23.8042 173.336 24.1995 173.336 24.5947L173.4 27.1702L173.527 31.9387L175.465 107.406Z" fill="#9E9E9E"/>
<path d="M226.72 151.661V151.75C226.708 152.515 226.3 153.204 225.637 153.586L207.659 163.965V161.848L226.415 148.996C226.899 149.417 226.708 151.075 226.72 151.661Z" fill="#C2C2C2"/>
<path d="M162.193 135.443L161.976 137.942L163.251 138.121L162.193 135.443Z" fill="#9E9E9E"/>
<path d="M176.383 27.4634L173.272 31.9387L65.6625 90.831L61.0725 93.3427L59.0962 91.9785L55.7557 89.6707V89.5304C55.7812 88.6889 56.2402 87.9367 56.967 87.516L58.038 86.9039L59.4277 86.1007L169.46 22.5802C172.214 20.8207 176.332 24.7987 176.371 26.6347L176.383 27.4634Z" fill="#F7F7F7"/>
<path d="M62.0287 89.4157L59.0962 91.9784L55.7557 89.6707V89.5304C55.7812 88.6889 56.2402 87.9367 56.967 87.5159L58.038 86.9039L62.0287 89.4157Z" fill="#E0E0E0"/>
<path d="M178.487 109.42C178.513 110.313 178.041 111.142 177.276 111.575L64.7827 176.524C63.6225 177.187 62.1435 176.791 61.4805 175.631C61.2765 175.287 61.1617 174.879 61.1617 174.484L61.098 171.908L59.0325 91.6852C59.007 90.7927 59.4787 89.9639 60.2437 89.5304L171.105 25.5254L172.724 24.5819C173.884 23.9189 175.363 24.3142 176.039 25.4744C176.243 25.8314 176.358 26.2267 176.358 26.6219L176.383 27.4762L178.487 109.42Z" fill="#E0E0E0"/>
<path d="M172.163 97.4992L114.878 130.573L91.0988 144.304L67.1925 158.1L65.1653 92.3099L96.492 74.2304L125.116 57.7064L170.136 31.7219L172.163 97.4992Z" fill="white"/>
<path d="M118.855 117.682L114.559 115.808L114.291 113.513L118.855 117.682Z" fill="#3EA352"/>
<path d="M127.908 91.7744L131.758 93.4702L127.092 93.9929L127.908 91.7744Z" fill="#3EA352"/>
<path d="M131.044 98.2132C131.044 104.422 126.684 111.958 121.316 115.056C115.948 118.154 111.588 115.642 111.588 109.446C111.588 106.258 112.735 102.727 114.571 99.6284C115.668 97.7542 117.032 96.0584 118.626 94.5794C119.442 93.8272 120.347 93.1642 121.303 92.6032C126.697 89.5049 131.044 92.0167 131.044 98.2132Z" fill="#3EA352"/>
<path d="M124.899 98.277L121.329 102.663L114.584 99.6285C115.681 97.7542 117.045 96.0585 118.639 94.5795L124.899 98.277Z" fill="#68CF7C"/>
<path d="M131.776 109.36C135.575 102.78 135.575 95.6682 131.775 93.4748C127.976 91.2813 121.817 94.8371 118.018 101.417C114.219 107.997 114.219 115.109 118.018 117.302C121.817 119.496 127.977 115.94 131.776 109.36Z" fill="#4BC462"/>
<path d="M128.437 135.395C129.772 133.084 129.771 130.585 128.435 129.814C127.1 129.043 124.935 130.291 123.601 132.602C122.267 134.914 122.267 137.412 123.603 138.183C124.938 138.954 127.103 137.706 128.437 135.395Z" fill="#C2C2C2"/>
<path d="M127.971 135.148C129.306 132.837 129.305 130.338 127.969 129.567C126.634 128.796 124.469 130.045 123.135 132.356C121.801 134.667 121.801 137.165 123.137 137.937C124.472 138.708 126.637 137.459 127.971 135.148Z" fill="white"/>
<path d="M207.659 160.688V163.965C206.996 164.347 206.18 164.347 205.517 163.978V161.134L207.659 160.688Z" fill="#E0E0E0"/>
<path d="M93.738 102.446L93.891 102C94.0695 102.076 94.2735 102.089 94.503 102.051C94.7325 102.013 94.962 101.923 95.1787 101.796C95.4082 101.668 95.6122 101.515 95.8035 101.324C95.9947 101.133 96.1477 100.929 96.2625 100.712C96.3772 100.495 96.441 100.279 96.441 100.062C96.441 99.7814 96.3517 99.6284 96.1605 99.5902C95.9692 99.5519 95.7015 99.6284 95.37 99.8197L94.4902 100.33V99.9217L95.3572 99.4244C95.6505 99.2587 95.88 99.0547 96.033 98.8252C96.1987 98.5829 96.2752 98.3407 96.2752 98.0857C96.2752 97.9072 96.2242 97.7797 96.135 97.7032C96.0457 97.6267 95.9182 97.6012 95.7525 97.6267C95.5995 97.6522 95.421 97.7159 95.217 97.8179C95.0257 97.9199 94.8217 98.0729 94.605 98.2514C94.3882 98.4427 94.197 98.6594 93.993 98.9144L93.8527 98.5829C94.095 98.2769 94.35 98.0092 94.6177 97.7924C94.8855 97.5757 95.1405 97.4099 95.3827 97.2824C95.625 97.1677 95.8545 97.1039 96.0585 97.0912C96.2625 97.0912 96.4155 97.1422 96.5302 97.2442C96.645 97.3462 96.7087 97.5247 96.7087 97.7669C96.7087 97.9964 96.6577 98.2259 96.5557 98.4554C96.4537 98.6849 96.3135 98.9017 96.135 99.0929C95.9565 99.2842 95.7397 99.4499 95.4975 99.5902L95.523 99.4244C95.8035 99.2714 96.033 99.1822 96.237 99.1567C96.441 99.1439 96.594 99.1949 96.7087 99.3097C96.8235 99.4244 96.8745 99.6157 96.8745 99.8579C96.8745 100.087 96.8235 100.317 96.7215 100.559C96.6195 100.801 96.4792 101.018 96.3135 101.248C96.135 101.464 95.9437 101.668 95.727 101.847C95.5102 102.025 95.2807 102.166 95.0512 102.28C94.809 102.395 94.5795 102.472 94.35 102.497C94.146 102.548 93.9292 102.523 93.738 102.446Z" fill="black"/>
<path d="M98.736 100.177C98.5065 100.304 98.3025 100.381 98.1367 100.393C97.971 100.406 97.8307 100.355 97.7415 100.253C97.6522 100.151 97.6012 99.9982 97.6012 99.7942C97.6012 99.603 97.6395 99.4245 97.716 99.2205C97.7925 99.0292 97.92 98.8252 98.0985 98.634C98.277 98.4427 98.5065 98.2642 98.7997 98.0857L99.8707 97.4737V97.8307L98.8125 98.4427C98.5192 98.6085 98.3025 98.7997 98.1877 98.9782C98.073 99.1695 98.0092 99.348 98.0092 99.5265C98.0092 99.7305 98.073 99.858 98.2132 99.8962C98.3535 99.9345 98.5447 99.8835 98.787 99.7432C99.0292 99.603 99.2205 99.4245 99.399 99.2077C99.5647 98.991 99.6922 98.736 99.7687 98.4555L99.858 98.736C99.7815 99.0165 99.6412 99.2842 99.45 99.5392C99.2715 99.7942 99.0292 100.011 98.736 100.177ZM99.807 99.5265V98.736L99.7942 98.6212V97.308C99.7942 97.002 99.7177 96.8107 99.5775 96.7342C99.4245 96.6577 99.2077 96.696 98.9145 96.8745C98.7105 96.9892 98.5192 97.1422 98.3407 97.3207C98.1622 97.4992 98.0092 97.6905 97.8817 97.8945L97.6905 97.6395C97.8435 97.3972 98.0347 97.1677 98.2515 96.9637C98.4682 96.7597 98.6977 96.5812 98.9527 96.441C99.348 96.2115 99.6667 96.1477 99.8835 96.2497C100.1 96.3517 100.215 96.6322 100.215 97.104V99.3097L99.807 99.5265Z" fill="black"/>
<path d="M101.056 98.8125L101.911 96.951L102.344 96.696L101.515 98.5447L101.056 98.8125ZM103.326 97.512V96.2242L103.402 96.288L102.357 96.8872C101.962 97.1167 101.643 97.1932 101.426 97.1295C101.197 97.0657 101.095 96.8362 101.095 96.4537C101.095 96.0457 101.209 95.676 101.452 95.3317C101.694 94.9875 102.013 94.707 102.408 94.4775L103.708 93.7252V97.2825L103.326 97.512ZM103.326 96.084V94.2225L103.402 94.3245L102.421 94.8855C102.127 95.0512 101.911 95.2425 101.745 95.4592C101.592 95.676 101.503 95.931 101.503 96.2115C101.503 96.7342 101.796 96.8362 102.382 96.5047L103.402 95.9182L103.326 96.084Z" fill="black"/>
<path d="M104.894 96.6067V93.0495L106.258 92.259C106.603 92.055 106.883 91.9785 107.087 92.0167C107.291 92.055 107.393 92.2207 107.393 92.5267C107.393 92.82 107.291 93.1005 107.1 93.3555C106.909 93.6232 106.654 93.84 106.335 94.0312L106.411 93.84C106.781 93.6232 107.049 93.5467 107.227 93.6105C107.406 93.6742 107.482 93.8527 107.482 94.146C107.482 94.452 107.38 94.7452 107.189 95.0257C106.998 95.3062 106.692 95.5612 106.284 95.8035L104.894 96.6067ZM105.302 94.3882L106.233 93.8527C106.475 93.7125 106.654 93.5595 106.781 93.381C106.909 93.2025 106.972 93.0112 106.972 92.82C106.972 92.6287 106.909 92.514 106.781 92.4885C106.654 92.463 106.475 92.514 106.233 92.6542L105.302 93.1897V94.3882ZM105.302 95.9947L106.284 95.4337C106.552 95.2807 106.743 95.115 106.883 94.9492C107.023 94.7835 107.087 94.5795 107.087 94.3627C107.087 94.146 107.023 94.0185 106.909 93.993C106.781 93.9675 106.59 94.0185 106.335 94.1715L105.302 94.758V95.9947Z" fill="black"/>
<path d="M108.49 94.5412V90.9839L108.91 90.7417V94.2989L108.49 94.5412ZM108.77 92.7944V92.3864L109.765 91.8127V92.2207L108.77 92.7944ZM109.867 92.0167L109.471 92.1697L110.708 89.6962L111.167 89.4412L109.867 92.0167ZM110.759 93.2407L109.484 92.2079L109.828 91.7744L111.256 92.9602L110.759 93.2407Z" fill="black"/>
<path d="M112.71 92.1442C112.481 92.2717 112.277 92.3482 112.111 92.3609C111.945 92.3737 111.805 92.3227 111.716 92.2207C111.626 92.1187 111.575 91.9657 111.575 91.7617C111.575 91.5704 111.614 91.3919 111.69 91.1879C111.767 90.9967 111.894 90.7927 112.073 90.6014C112.251 90.4102 112.481 90.2317 112.774 90.0532L113.845 89.4412V89.7982L112.787 90.4102C112.493 90.5759 112.277 90.7672 112.162 90.9457C112.047 91.1369 111.983 91.3154 111.983 91.4939C111.983 91.6979 112.047 91.8254 112.187 91.8637C112.328 91.9019 112.519 91.8509 112.761 91.7107C113.003 91.5704 113.195 91.3919 113.373 91.1752C113.539 90.9584 113.666 90.7034 113.743 90.4229L113.832 90.7034C113.756 90.9839 113.615 91.2517 113.424 91.5067C113.246 91.7744 113.003 91.9784 112.71 92.1442ZM113.781 91.5067V90.7162L113.768 90.6014V89.2882C113.768 88.9822 113.692 88.7909 113.552 88.7144C113.399 88.6379 113.182 88.6762 112.889 88.8547C112.685 88.9694 112.493 89.1224 112.315 89.3009C112.136 89.4794 111.983 89.6707 111.856 89.8747L111.665 89.6197C111.818 89.3774 112.009 89.1479 112.226 88.9439C112.442 88.7399 112.672 88.5614 112.927 88.4212C113.322 88.1917 113.641 88.1279 113.858 88.2299C114.074 88.3319 114.189 88.6124 114.189 89.0842V91.2899L113.781 91.5067Z" fill="black"/>
<path d="M116.841 89.7472V86.19L119.621 84.5835V88.1407L119.2 88.383V85.119L119.302 85.1827L117.147 86.4195L117.249 86.2282V89.505L116.841 89.7472Z" fill="black"/>
<path d="M120.819 88.7782V83.8949L121.214 83.6655V84.7364L121.176 85.476L121.24 86.1644V88.536L120.819 88.7782ZM122.413 86.5724C122.145 86.7254 121.903 86.7892 121.686 86.7764C121.469 86.7637 121.304 86.6489 121.176 86.4577C121.049 86.2664 120.985 85.9732 120.985 85.578C120.985 85.1955 121.049 84.8257 121.176 84.4814C121.304 84.1372 121.469 83.8312 121.686 83.5762C121.903 83.3084 122.145 83.1044 122.413 82.9514C122.706 82.7857 122.974 82.7092 123.203 82.7219C123.433 82.7347 123.624 82.8494 123.752 83.0407C123.879 83.2319 123.956 83.5124 123.956 83.8694C123.956 84.2264 123.892 84.5835 123.752 84.9405C123.624 85.2847 123.433 85.6035 123.203 85.8967C122.974 86.1772 122.706 86.4067 122.413 86.5724ZM122.387 86.1644C122.604 86.0369 122.808 85.8712 122.974 85.6544C123.152 85.4377 123.28 85.1954 123.382 84.9277C123.484 84.6599 123.535 84.3922 123.535 84.1117C123.535 83.8312 123.484 83.6272 123.382 83.4742C123.28 83.3212 123.14 83.2447 122.974 83.2192C122.795 83.2065 122.604 83.2574 122.387 83.3849C122.171 83.5124 121.967 83.6782 121.788 83.9077C121.61 84.1244 121.469 84.3667 121.38 84.6344C121.278 84.9022 121.227 85.17 121.227 85.4505C121.227 85.731 121.278 85.935 121.38 86.0879C121.482 86.241 121.622 86.3302 121.788 86.343C121.967 86.343 122.158 86.2919 122.387 86.1644Z" fill="black"/>
<path d="M124.861 85.1317V81.5744L125.281 81.3322V84.1627L127.347 80.1464L127.717 79.9297V83.4869L127.296 83.7292V80.8987L125.243 84.9149L124.861 85.1317Z" fill="black"/>
<path d="M128.915 82.7984V79.2411L129.336 78.9989V80.5671L131.287 79.4451V77.8769L131.708 77.6346V81.1919L131.287 81.4341V79.8659L129.336 80.9879V82.5561L128.915 82.7984Z" fill="black"/>
<path d="M132.638 80.6565L133.493 78.795L133.926 78.54L133.097 80.3887L132.638 80.6565ZM134.908 79.356V78.0682L134.984 78.132L133.939 78.7312C133.544 78.9607 133.225 79.0372 133.008 78.9735C132.779 78.9097 132.677 78.6802 132.677 78.2977C132.677 77.8897 132.791 77.52 133.034 77.1757C133.276 76.8315 133.595 76.551 133.99 76.3215L135.29 75.5692V79.1265L134.908 79.356ZM134.908 77.9407V76.0792L134.984 76.1812L134.003 76.7422C133.709 76.908 133.493 77.0992 133.327 77.316C133.174 77.5327 133.085 77.7877 133.085 78.0682C133.085 78.591 133.378 78.693 133.964 78.3615L134.984 77.775L134.908 77.9407Z" fill="black"/>
<path d="M137.063 78.1192V74.8425L137.165 74.9062L135.89 75.6457V75.225L138.656 73.6312V74.052L137.381 74.7915L137.483 74.6002V77.8642L137.063 78.1192Z" fill="black"/>
<path d="M140.123 76.3979C139.893 76.5254 139.689 76.6019 139.523 76.6147C139.358 76.6274 139.217 76.5764 139.128 76.4744C139.039 76.3724 138.988 76.2194 138.988 76.0154C138.988 75.8242 139.026 75.6457 139.103 75.4417C139.179 75.2504 139.307 75.0464 139.485 74.8551C139.664 74.6639 139.893 74.4854 140.186 74.3069L141.257 73.6949V74.0519L140.199 74.6639C139.906 74.8296 139.689 75.0209 139.574 75.1994C139.46 75.3907 139.396 75.5691 139.396 75.7476C139.396 75.9516 139.46 76.0792 139.6 76.1174C139.74 76.1557 139.931 76.1047 140.174 75.9644C140.416 75.8242 140.607 75.6456 140.786 75.4289C140.951 75.2121 141.079 74.9572 141.155 74.6767L141.245 74.9572C141.168 75.2377 141.028 75.5054 140.837 75.7604C140.671 76.0154 140.416 76.2194 140.123 76.3979ZM141.194 75.7476V74.9572L141.181 74.8424V73.5292C141.181 73.2232 141.104 73.0319 140.964 72.9554C140.811 72.8789 140.594 72.9172 140.301 73.0957C140.097 73.2104 139.906 73.3634 139.727 73.5419C139.549 73.7204 139.396 73.9117 139.268 74.1157L139.077 73.8607C139.23 73.6184 139.421 73.3889 139.638 73.1849C139.855 72.9809 140.084 72.8024 140.339 72.6622C140.735 72.4327 141.053 72.3689 141.27 72.4709C141.487 72.5729 141.602 72.8534 141.602 73.3251V75.5309L141.194 75.7476Z" fill="black"/>
<path d="M142.876 74.8042C142.787 74.8552 142.711 74.8552 142.66 74.8297C142.596 74.7914 142.57 74.7277 142.57 74.6384C142.57 74.5364 142.596 74.4344 142.66 74.3324C142.724 74.2304 142.8 74.1539 142.876 74.1029C142.966 74.0519 143.042 74.0392 143.093 74.0774C143.144 74.1157 143.183 74.1794 143.183 74.2814C143.183 74.3707 143.157 74.4727 143.093 74.5747C143.042 74.6767 142.966 74.7532 142.876 74.8042ZM142.711 73.4399L142.634 70.1632L143.131 69.8827L143.042 73.2614L142.711 73.4399Z" fill="black"/>
<path d="M125.065 110.989C125.001 110.989 124.924 110.976 124.861 110.963L120.271 109.905C119.786 109.79 119.493 109.306 119.62 108.821C119.735 108.349 120.207 108.056 120.679 108.158L124.516 109.038L128.494 98.8379C128.635 98.3662 129.132 98.0984 129.604 98.2387C130.075 98.3789 130.343 98.8762 130.203 99.3479C130.19 99.3862 130.177 99.4372 130.152 99.4754L125.893 110.415C125.766 110.759 125.434 110.989 125.065 110.989Z" fill="white"/>
<path d="M205.492 161.848L163.06 137.356C162.027 136.756 161.67 135.43 162.269 134.398C162.46 134.066 162.728 133.798 163.06 133.607L181.037 123.229C181.713 122.846 182.529 122.846 183.205 123.229L225.637 147.721C226.669 148.321 227.026 149.647 226.427 150.679C226.236 151.011 225.968 151.279 225.637 151.47L207.659 161.848C206.996 162.231 206.167 162.231 205.492 161.848Z" fill="white"/>
<path d="M221.365 146.956L213.843 151.304L208.042 154.657L205.364 156.2L205.211 156.289L203.031 157.552C202.967 157.59 202.878 157.59 202.814 157.552L182.784 145.987L174.675 141.308L163.914 135.099C163.812 135.035 163.774 134.908 163.825 134.806C163.85 134.767 163.876 134.742 163.914 134.716L166.77 133.059L170.863 130.7L171.041 130.598L176.906 127.207L182.236 124.134C182.299 124.096 182.389 124.096 182.452 124.134L194.386 131.019L199.563 134.002L221.365 146.587C221.467 146.638 221.518 146.778 221.455 146.88C221.442 146.905 221.404 146.944 221.365 146.956Z" fill="#00BDEA"/>
<path d="M214.557 155.41C215.993 155.41 217.158 154.736 217.158 153.905C217.158 153.074 215.993 152.401 214.557 152.401C213.121 152.401 211.956 153.074 211.956 153.905C211.956 154.736 213.121 155.41 214.557 155.41Z" fill="#C2C2C2"/>
<path d="M214.57 155.537C216.006 155.537 217.171 154.864 217.171 154.033C217.171 153.202 216.006 152.528 214.57 152.528C213.133 152.528 211.969 153.202 211.969 154.033C211.969 154.864 213.133 155.537 214.57 155.537Z" fill="#E0E0E0"/>
<path d="M145.885 161.198L127.615 171.742C127.27 171.934 126.85 171.921 126.531 171.691L107.189 158.049L123.28 148.767L145.822 159.413C146.332 159.655 146.548 160.255 146.306 160.752C146.204 160.943 146.064 161.096 145.885 161.198Z" fill="white"/>
<path d="M49.215 195.827L56.8395 208.067L89.5305 190.192L84.0607 176.46L49.215 195.827Z" fill="white"/>
<path d="M56.8395 208.067L79.1647 211.242L109.114 193.953L89.5305 190.192L56.8395 208.067Z" fill="#E0E0E0"/>
<path d="M109.114 193.953L122.859 205.619L90.8182 224.629L79.1647 211.242L109.114 193.953Z" fill="white"/>
<path d="M50.1967 197.421L47.1877 199.423L54.825 209.941L77.163 210.949L56.8395 208.067L50.1967 197.421Z" fill="#C2C2C2"/>
<path d="M67.32 185.755L81.9315 174.445L82.977 177.059L67.32 185.755Z" fill="#C2C2C2"/>
<path d="M170.136 31.7219L172.163 97.4992L67.1925 158.1" stroke="#9E9E9E" stroke-width="5" stroke-linecap="round" stroke-linejoin="round"/>
<path d="M172.163 185.015L150.463 172.495L172.163 159.961L193.864 172.495L172.163 185.015Z" fill="#E8AF07"/>
<path d="M172.163 183.026L150.463 170.493L172.163 157.972L193.864 170.493L172.163 183.026Z" fill="#FFD24D"/>
<path d="M164.169 134.563L181.433 124.784C181.981 124.465 182.669 124.465 183.218 124.784L221.366 146.587" stroke="#7BB0BD" stroke-width="3" stroke-linecap="round" stroke-linejoin="round"/>
<path d="M59.772 202.457L82.3395 189.49" stroke="#00BDEA" stroke-width="3" stroke-linecap="round" stroke-linejoin="round"/>
<path d="M86.547 212.236L109.114 199.27" stroke="#00BDEA" stroke-width="3" stroke-linecap="round" stroke-linejoin="round"/>
<path d="M69.3727 205.759L91.9275 192.793" stroke="#5FB9CF" stroke-width="3" stroke-linecap="round" stroke-linejoin="round"/>
<path d="M76.2195 207.2L98.787 194.233" stroke="#5FB9CF" stroke-width="3" stroke-linecap="round" stroke-linejoin="round"/>
<path d="M145.222 62.4367L128.8 71.91C127.321 72.7642 126.123 72.0757 126.123 70.3545V66.4275C126.123 64.719 127.321 62.6407 128.8 61.7865L147.097 51.2295L145.222 62.4367Z" fill="#2FBAE5"/>
<path d="M134.691 66.3766L133.008 67.3583L133.709 63.1636L131.911 67.9958L130.879 68.5951L130.534 64.8721L129.808 69.2198L129.119 69.6151L130.152 63.4441L132.09 62.3221L132.319 65.3311L133.786 61.3403L135.736 60.2056L134.691 66.3766ZM136.068 62.1308C136.31 61.8503 136.578 61.5953 136.858 61.3531C137.139 61.1108 137.445 60.9068 137.776 60.7156C138.031 60.5626 138.299 60.4351 138.58 60.3331C138.745 60.2693 138.924 60.2566 139.09 60.2948C139.217 60.3331 139.306 60.4223 139.357 60.5371C139.408 60.6901 139.434 60.8558 139.434 61.0088C139.434 61.1363 139.421 61.2638 139.408 61.3786C139.396 61.5188 139.383 61.6336 139.37 61.7228L139.013 63.8648L137.789 64.5661L137.649 64.0816L137.598 64.1071C137.445 64.4003 137.254 64.6681 137.024 64.9103C136.833 65.1143 136.629 65.2928 136.387 65.4331C136.272 65.4968 136.157 65.5478 136.03 65.5733C135.928 65.5988 135.826 65.5988 135.724 65.5733C135.634 65.5351 135.545 65.4713 135.507 65.3821C135.443 65.2418 135.418 65.1016 135.418 64.9486C135.418 64.6553 135.494 64.3621 135.634 64.1071C135.787 63.8393 135.979 63.5843 136.208 63.3676C136.45 63.1253 136.718 62.9213 137.011 62.7301C137.305 62.5388 137.611 62.3476 137.904 62.1818C137.917 62.1181 137.929 62.0288 137.942 61.9141C137.955 61.8121 137.968 61.7101 137.968 61.6081C137.968 61.5188 137.942 61.4296 137.891 61.3658C137.84 61.3021 137.751 61.3148 137.598 61.3913C137.432 61.4806 137.292 61.6336 137.203 61.7993C137.126 61.9651 137.062 62.1436 137.05 62.3221L135.94 62.9596L136.068 62.1308ZM137.827 62.6663L137.687 62.7428C137.547 62.8193 137.419 62.9213 137.305 63.0361C137.203 63.1253 137.126 63.2401 137.05 63.3548C136.986 63.4568 136.948 63.5588 136.909 63.6736C136.884 63.7628 136.871 63.8648 136.858 63.9668C136.858 64.1071 136.884 64.1963 136.948 64.2346C137.024 64.2601 137.113 64.2601 137.177 64.2091C137.305 64.1326 137.407 64.0178 137.483 63.9031C137.585 63.7628 137.649 63.6098 137.687 63.4313L137.827 62.6663ZM142.035 59.3513L142.838 57.8978L143.718 57.3878L142.341 59.8103L143.323 61.3913L141.703 62.3221L141.168 61.4678L140.161 63.2018L139.281 63.7118L140.875 60.9961L139.969 59.5298L141.576 58.5991L142.035 59.3513Z" fill="white"/>
<path d="M148.563 58.3823L147.02 59.2748L147.709 55.0928L149.264 54.1875L148.563 58.3823ZM149.455 52.9253C149.455 53.0655 149.43 53.193 149.379 53.3205C149.328 53.448 149.264 53.5755 149.188 53.6903C149.111 53.805 149.022 53.907 148.92 53.9963C148.831 54.0855 148.716 54.162 148.614 54.2258C148.461 54.3278 148.282 54.3788 148.104 54.3533C147.964 54.3278 147.9 54.1875 147.9 53.9453C147.9 53.8178 147.925 53.6903 147.964 53.5628C148.002 53.4353 148.066 53.3078 148.142 53.2058C148.219 53.091 148.308 52.989 148.423 52.887C148.525 52.7978 148.627 52.7085 148.754 52.6448C148.894 52.5428 149.073 52.4918 149.251 52.5173C149.392 52.5555 149.455 52.6958 149.455 52.9253ZM151.355 53.55C151.47 53.3715 151.585 53.193 151.712 53.0145C151.84 52.8488 151.98 52.6958 152.133 52.5428C152.299 52.377 152.477 52.2368 152.681 52.122C152.923 51.9818 153.102 51.9435 153.217 52.0073C153.344 52.0838 153.421 52.2113 153.421 52.3643L153.459 52.3388C153.574 52.1475 153.701 51.969 153.841 51.7905C153.969 51.6248 154.109 51.4718 154.249 51.3315C154.402 51.1785 154.568 51.0383 154.747 50.9363C155.014 50.7833 155.218 50.745 155.384 50.8215C155.55 50.898 155.639 51.051 155.639 51.3188C155.639 51.51 155.614 51.7013 155.575 51.8925C155.537 52.1348 155.486 52.4025 155.435 52.6958L155.116 54.5955L153.612 55.4625L154.02 52.938C154.033 52.836 154.045 52.7468 154.071 52.6575C154.084 52.581 154.096 52.5173 154.096 52.4408C154.109 52.377 154.084 52.3133 154.033 52.275C153.994 52.2368 153.931 52.2495 153.854 52.2878C153.739 52.3643 153.65 52.4535 153.574 52.5683C153.497 52.6958 153.433 52.7978 153.382 52.8743L152.885 55.8833L151.457 56.6993L151.878 54.162C151.891 54.0855 151.903 53.9963 151.916 53.907C151.929 53.8305 151.942 53.754 151.942 53.6775C151.954 53.6138 151.929 53.55 151.878 53.499C151.84 53.4608 151.789 53.4608 151.712 53.5118C151.61 53.5755 151.508 53.6775 151.444 53.7795C151.368 53.907 151.304 54.009 151.253 54.0855L150.756 57.1073L149.2 57.9998L149.902 53.8305L151.138 53.1165L151.279 53.601L151.355 53.55ZM158.712 48.7433L160.267 47.8508L159.566 52.0328L158.329 52.7468L158.189 52.2623L158.151 52.2878C157.998 52.5683 157.819 52.8233 157.615 53.0528C157.424 53.2695 157.195 53.4608 156.94 53.6265C156.634 53.805 156.391 53.856 156.226 53.7795C156.06 53.703 155.971 53.5118 155.971 53.2313C155.971 53.04 155.996 52.8488 156.034 52.6575C156.085 52.4025 156.124 52.173 156.162 51.969L156.481 50.0693L158.023 49.1768L157.641 51.459C157.628 51.51 157.615 51.5738 157.615 51.6375L157.59 51.8543L157.564 52.0455C157.564 52.0965 157.552 52.1475 157.552 52.1858C157.552 52.2623 157.564 52.326 157.603 52.3898C157.641 52.428 157.705 52.4153 157.781 52.377C157.883 52.3133 157.972 52.224 158.036 52.122C158.113 52.02 158.176 51.918 158.227 51.8033L158.712 48.7433ZM162.358 47.1878C162.473 47.0093 162.588 46.8308 162.715 46.6523C162.843 46.4865 162.983 46.3335 163.136 46.1805C163.302 46.0148 163.48 45.8745 163.684 45.7598C163.927 45.6195 164.105 45.5813 164.22 45.645C164.347 45.7215 164.424 45.849 164.424 46.002L164.475 45.9765C164.59 45.7853 164.717 45.6068 164.857 45.4283C164.985 45.2625 165.125 45.1095 165.265 44.9693C165.418 44.8163 165.584 44.676 165.763 44.574C166.03 44.421 166.234 44.3828 166.4 44.4593C166.566 44.523 166.655 44.6888 166.655 44.9565C166.655 45.1478 166.63 45.339 166.591 45.5303C166.553 45.7725 166.502 46.0403 166.451 46.3335L166.132 48.2333L164.628 49.1003L165.036 46.5758C165.049 46.4738 165.061 46.3845 165.087 46.2953C165.1 46.2188 165.112 46.155 165.112 46.0785C165.125 46.0148 165.1 45.951 165.049 45.9128C165.01 45.8745 164.947 45.8873 164.87 45.9255C164.755 46.002 164.666 46.0913 164.59 46.206C164.513 46.3335 164.449 46.4355 164.398 46.512L163.901 49.521L162.473 50.3498L162.894 47.8125C162.907 47.736 162.919 47.6468 162.932 47.5575C162.945 47.481 162.958 47.4045 162.958 47.328C162.97 47.2643 162.945 47.2005 162.894 47.1495C162.856 47.1113 162.805 47.1113 162.728 47.1623C162.626 47.226 162.524 47.328 162.46 47.43C162.384 47.5575 162.32 47.6595 162.269 47.736L161.772 50.7705L160.216 51.663L160.905 47.481L162.142 46.767L162.282 47.2515L162.358 47.1878Z" fill="#4D4D4D"/>
</svg>
