<svg width="255" height="255" viewBox="0 0 255 255" fill="none" xmlns="http://www.w3.org/2000/svg">
<path d="M127.5 241.776C194.477 241.776 248.773 210.428 248.773 171.759C248.773 133.09 194.477 101.742 127.5 101.742C60.5228 101.742 6.22705 133.09 6.22705 171.759C6.22705 210.428 60.5228 241.776 127.5 241.776Z" fill="#F7F7F7"/>
<path d="M193.976 155.989L71.1476 226.903V129.378L193.976 58.4639V155.989Z" fill="#00BDEA"/>
<path d="M193.976 58.4639L70.8684 129.708L56.5144 121.421L179.623 50.1764L193.976 58.4639Z" fill="#009ABF"/>
<path d="M56.5144 121.421L38.5713 207.914L60.7397 207.416L66.7182 127.234L56.5144 121.421Z" fill="#00BDEA"/>
<path d="M179.623 50.1764L56.5144 121.421" stroke="#B0F0FF" stroke-width="5" stroke-linecap="round" stroke-linejoin="round"/>
<path d="M60.7397 207.416L71.1476 226.903L70.8683 129.708L66.7182 127.234L60.7397 207.416Z" fill="#B0F0FF"/>
<path d="M163.974 76.0537L74.6665 127.616V60.2144L163.974 8.65343V76.0537Z" fill="#CFCFCF"/>
<path d="M171.249 71.59L82.0884 123.067L82.7157 57.9615L171.245 6.8493L171.249 71.59Z" fill="#E6E6E6"/>
<path d="M168.486 73.213L79.1788 124.775V63.6289L168.486 12.0666V73.213Z" fill="white"/>
<path d="M56.5143 121.421C56.5143 121.421 28.4885 144.687 44.3891 179.872L56.5143 121.421Z" fill="#009ABF"/>
<path d="M178.599 217.9C197.008 217.9 211.932 209.284 211.932 198.655C211.932 188.027 197.008 179.41 178.599 179.41C160.19 179.41 145.267 188.027 145.267 198.655C145.267 209.284 160.19 217.9 178.599 217.9Z" fill="#F7F7F7" stroke="#00BDEA" stroke-width="7" stroke-linecap="round" stroke-linejoin="round"/>
<path d="M178.728 213.95C193.497 213.95 205.47 207.037 205.47 198.51C205.47 189.982 193.497 183.07 178.728 183.07C163.959 183.07 151.986 189.982 151.986 198.51C151.986 207.037 163.959 213.95 178.728 213.95Z" fill="#F7F7F7" stroke="#00BDEA" stroke-width="7" stroke-linecap="round" stroke-linejoin="round"/>
<path d="M204.555 190.563L164.966 213.42L152.902 206.456L192.492 183.599L204.555 190.563Z" fill="#F7F7F7" stroke="#00BDEA" stroke-width="7" stroke-linecap="round" stroke-linejoin="round"/>
<path d="M185.015 151.079L164.475 162.937V149.51L185.015 137.652V151.079Z" fill="#DBAC1C"/>
<path d="M108.148 196.975L87.6078 208.834V195.408L108.148 183.549V196.975Z" fill="#DBAC1C"/>
<path d="M185.736 151.43L165.195 163.289V149.862L185.736 138.003V151.43Z" fill="#FFD24C"/>
<path d="M108.867 197.327L88.3269 209.185V195.76L108.867 183.901V197.327Z" fill="#FFD24C"/>
<path d="M104.453 178.474L89.7448 186.966V134.511L104.453 126.02V178.474Z" stroke="white" stroke-miterlimit="10"/>
<path d="M178.6 133.583L163.891 142.076V93.6947L178.6 85.2032V133.583Z" stroke="white" stroke-miterlimit="10"/>
<path d="M104.453 134.727L118.552 127.017L131.665 130.007C131.665 130.007 162.035 138.975 160.195 144.968C158.355 150.96 138.338 141.511 138.338 141.511" stroke="white" stroke-miterlimit="10"/>
<path d="M131.512 150.21C131.512 150.21 154.366 156.618 157.28 153.091C160.195 149.563 152.42 146.487 152.42 146.487" stroke="white" stroke-miterlimit="10"/>
<path d="M127.5 157.874C127.5 157.874 150.353 164.281 153.268 160.753C156.182 157.225 148.41 154.148 148.41 154.148" stroke="white" stroke-miterlimit="10"/>
<path d="M144.723 161.508C146.492 161.813 146.817 163.979 145.93 165.054C143.422 168.09 123.759 162.577 123.759 162.577L117.555 161.508L104.452 171.836" stroke="white" stroke-miterlimit="10"/>
<path d="M163.891 102.783L137.333 105.56C134.692 105.837 132.171 106.803 130.02 108.36C127.87 109.917 126.165 112.011 125.077 114.433C121.125 123.23 115.303 136.521 114.8 139.44C114.035 143.888 124.922 143.121 129.678 132.692C134.433 122.262 139.953 121.495 139.953 121.495" fill="#00BDEA"/>
<path d="M163.891 102.783L137.333 105.56C134.692 105.837 132.171 106.803 130.02 108.36C127.87 109.917 126.165 112.011 125.077 114.433C121.125 123.23 115.303 136.521 114.8 139.44C114.035 143.888 124.922 143.121 129.678 132.692C134.433 122.262 139.953 121.495 139.953 121.495" stroke="white" stroke-miterlimit="10"/>
<path d="M163.891 138.289L157.154 140.533" stroke="white" stroke-miterlimit="10"/>
<path d="M93.8502 89.2373V80.1848L94.9467 79.5473V88.5998L93.8502 89.2373ZM94.6152 84.8143V83.677L97.155 82.2082V83.3468L94.6152 84.8143ZM97.2825 82.875L96.2625 83.2817L99.0675 77.1719L100.266 76.4796L97.2825 82.875ZM99.1249 86.19L96.2804 83.3723L97.1869 82.2018L100.401 85.4543L99.1249 86.19Z" fill="#333333"/>
<path d="M105.06 82.875C104.554 83.1865 103.99 83.3941 103.403 83.4857C102.949 83.558 102.484 83.4843 102.075 83.2753C101.688 83.057 101.381 82.7188 101.202 82.3114C100.976 81.789 100.869 81.2229 100.888 80.6539C100.891 79.9697 100.997 79.2898 101.202 78.6369C101.634 77.2453 102.386 75.9741 103.397 74.9254C103.887 74.4103 104.447 73.9669 105.06 73.6083C105.567 73.2964 106.13 73.0876 106.718 72.9937C107.169 72.9206 107.632 72.9934 108.038 73.2016C108.427 73.421 108.733 73.7631 108.907 74.1744C109.128 74.7009 109.233 75.2688 109.215 75.8395C109.213 76.5268 109.109 77.2099 108.907 77.8668C108.697 78.5553 108.406 79.2163 108.038 79.8354C107.669 80.4638 107.226 81.0455 106.718 81.5681C106.228 82.0777 105.67 82.5174 105.06 82.875ZM105.049 81.7275C105.497 81.467 105.906 81.1437 106.264 80.7674C106.636 80.3779 106.96 79.9447 107.228 79.4771C107.497 79.012 107.711 78.5169 107.865 78.0019C108.015 77.5105 108.093 76.9998 108.095 76.486C108.109 76.0595 108.03 75.635 107.865 75.2416C107.734 74.9361 107.511 74.6787 107.228 74.5046C106.936 74.339 106.597 74.2752 106.265 74.3236C105.834 74.3862 105.42 74.5368 105.05 74.766C104.605 75.0249 104.2 75.3461 103.846 75.7197C103.472 76.1113 103.147 76.5467 102.877 77.0164C102.608 77.4827 102.395 77.9786 102.24 78.4941C102.089 78.9833 102.012 79.4919 102.01 80.0037C101.997 80.4322 102.075 80.8587 102.24 81.2545C102.367 81.5617 102.591 81.8193 102.877 81.9889C103.173 82.1485 103.513 82.2084 103.846 82.1597C104.273 82.0996 104.682 81.9525 105.05 81.7275H105.049Z" fill="#333333"/>
<path d="M112.15 78.6675L111.031 79.3139V70.2614L112.15 69.615V78.6675ZM116.753 71.975L112.036 74.6971V73.5726L116.753 70.8505V71.975ZM116.652 67.0153L117.773 66.3688V75.4213L116.652 76.0678V67.0153Z" fill="#333333"/>
<path d="M121.816 73.0906V64.8274L122.095 65.002L119.139 66.7093V65.5847L125.602 61.8528V62.985L122.645 64.6922L122.914 64.2001V72.4633L121.816 73.0906Z" fill="#333333"/>
<path d="M126.968 70.1173V61.0648L130.028 59.299C130.714 58.9029 131.3 58.6904 131.787 58.6615C132.273 58.6326 132.646 58.7792 132.906 59.1013C133.167 59.4243 133.298 59.9135 133.299 60.5689C133.298 61.2263 133.164 61.8768 132.906 62.4814C132.634 63.1184 132.256 63.7044 131.787 64.2141C131.277 64.7703 130.684 65.2435 130.028 65.6166L127.587 67.0191L128.097 66.1266V69.476L126.968 70.1173ZM128.088 66.2503L127.578 65.8945L129.985 64.5048C130.637 64.1503 131.196 63.646 131.614 63.0334C131.975 62.4948 132.169 61.8612 132.169 61.2127C132.169 60.5659 131.984 60.1728 131.614 60.0334C131.245 59.894 130.702 60.0308 129.985 60.4439L127.584 61.8375L128.094 60.9004L128.088 66.2503Z" fill="#333333"/>
<path d="M133.374 66.4186L136.925 55.3159L138.033 54.6784L141.595 61.6743L140.418 62.3539L137.249 55.8514L137.697 55.5964L134.528 65.7543L133.374 66.4186ZM134.886 63.2821L135.188 62.0734L139.601 59.5234L139.926 60.3712L134.886 63.2821Z" fill="#333333"/>
<path d="M142.95 60.8889V51.8364L144.047 51.1989V60.2514L142.95 60.8889ZM143.715 56.4672V55.335L146.258 53.8675V55.0048L143.715 56.4672ZM146.393 54.5203L145.363 54.9347L148.168 48.8236L149.366 48.1313L146.393 54.5203ZM148.23 57.8442L145.386 55.0252L146.292 53.8547L149.506 57.1073L148.23 57.8442Z" fill="#333333"/>
<path d="M152.179 55.5607V47.3025L152.458 47.4772L149.501 49.1844V48.0547L155.964 44.3228V45.4486L153.008 47.1559L153.277 46.6637V54.927L152.179 55.5607Z" fill="#333333"/>
<path d="M93.7189 100.459L157.141 63.9999" stroke="#76E5FF" stroke-linecap="round" stroke-linejoin="round"/>
<path d="M93.7189 108.171L157.141 71.7137" stroke="#76E5FF" stroke-linecap="round" stroke-linejoin="round"/>
<path d="M70.8683 129.708L193.976 58.4639L179.623 50.1764" stroke="#B0F0FF" stroke-width="5" stroke-linecap="round" stroke-linejoin="round"/>
</svg>
