<svg width="256" height="255" viewBox="0 0 256 255" fill="none" xmlns="http://www.w3.org/2000/svg">
<path d="M129.511 224.538C193.048 224.538 244.555 194.8 244.555 158.117C244.555 121.433 193.048 91.6954 129.511 91.6954C65.9735 91.6954 14.4663 121.433 14.4663 158.117C14.4663 194.8 65.9735 224.538 129.511 224.538Z" fill="#F7F7F7"/>
<path d="M89.7321 174.073L72.3424 164.033L89.7321 153.993L107.122 164.034L89.7321 174.073Z" fill="white"/>
<path d="M72.3424 164.033V165.806L89.7334 175.847L89.7321 174.073L72.3424 164.033Z" fill="#9E9E9E"/>
<path d="M89.7322 174.073L107.122 164.034V165.807L89.7335 175.847L89.7322 174.073Z" fill="#E0E0E0"/>
<path d="M42.1389 90.233L144.152 31.3357L149.417 34.3141L47.4047 93.2114L42.1389 90.233Z" fill="#A8EAFA"/>
<path d="M149.417 34.3141L144.152 31.3357L186.041 43.016L191.306 45.9943L149.417 34.3141Z" fill="#F5F5F5"/>
<path d="M149.417 106.042L47.4047 164.939V93.2114L149.417 34.3141L191.306 45.9943L149.417 106.042Z" fill="#69D1EA"/>
<path d="M176.233 56.188C176.233 60.1864 173.428 65.0492 169.963 67.0497C167.117 68.6932 164.714 67.8912 163.947 65.3336C163.771 64.7143 163.685 64.0726 163.692 63.4287C163.692 59.4303 166.497 54.5675 169.963 52.567C171.383 51.7472 172.694 51.5355 173.744 51.8492C175.257 52.298 176.233 53.8292 176.233 56.188Z" fill="#029EC4"/>
<path d="M174.001 53.7553C174.001 57.7537 171.196 62.6165 167.729 64.6157C166.309 65.4368 164.998 65.6472 163.947 65.3336C163.771 64.7143 163.685 64.0726 163.692 63.4287C163.692 59.4303 166.497 54.5675 169.963 52.567C171.383 51.7472 172.694 51.5355 173.744 51.8492C173.922 52.4687 174.008 53.1108 174.001 53.7553Z" fill="white"/>
<path d="M164.159 60.4172C164.159 60.4172 237.687 56.8931 225.387 29.835C216.334 9.91185 178.012 40.7796 178.012 40.7796" stroke="#029EC4" stroke-linecap="round" stroke-linejoin="round"/>
<path d="M70.1634 140.488L69.9084 118.725C69.8319 112.223 69.1434 105.25 71.9484 99.1657C73.0959 96.6807 74.7228 94.0657 77.0726 92.5523C78.2877 91.772 79.7769 91.3563 81.1667 91.9288C82.1867 92.3508 82.9517 93.2038 83.477 94.16C84.701 96.3862 84.7673 99.1491 84.497 101.614C84.154 104.755 83.0792 107.833 81.5645 110.599C80.0154 113.454 77.9806 116.018 75.5516 118.175C73.5524 119.935 71.163 121.49 68.4919 121.937C67.5229 122.098 67.9334 123.573 68.8986 123.412C71.4588 122.989 73.7717 121.579 75.7696 119.981C78.15 118.078 80.176 115.716 81.8233 113.158C83.6627 110.336 84.9667 107.199 85.67 103.905C86.2667 101.016 86.4426 97.8422 85.494 95.0041C84.678 92.5573 82.8522 90.3478 80.1199 90.1412C77.0471 89.9079 74.5099 92.3712 72.8282 94.6458C70.8608 97.2991 69.5527 100.446 68.9101 103.677C68.2203 107.14 68.2828 110.659 68.3249 114.171L68.636 140.488C68.6474 141.471 70.1774 141.474 70.166 140.488H70.1634Z" fill="white"/>
<path d="M65.7571 131.509L76.6341 125.228C77.4858 124.736 76.717 123.414 75.8615 123.907L64.9844 130.188C64.1315 130.68 64.9016 132.002 65.7571 131.509Z" fill="white"/>
<path d="M65.7571 135.072L76.7221 128.743C77.5751 128.251 76.805 126.929 75.9494 127.422L64.9844 133.75C64.1315 134.242 64.9016 135.566 65.7571 135.072Z" fill="white"/>
<path d="M99.2513 123.641L98.9938 101.872C98.9173 95.37 98.2288 88.397 101.034 82.3127C102.181 79.8277 103.808 77.2127 106.158 75.6993C107.373 74.919 108.864 74.5033 110.252 75.0758C111.272 75.4978 112.037 76.3508 112.562 77.3071C113.786 79.5332 113.853 82.2961 113.582 84.7607C113.239 87.9023 112.166 90.9802 110.656 93.7456C109.107 96.6009 107.072 99.1642 104.642 101.32C102.643 103.082 100.253 104.635 97.5823 105.084C96.6133 105.245 97.0239 106.72 97.9891 106.559C100.549 106.135 102.863 104.726 104.86 103.128C107.242 101.235 109.269 98.8686 110.915 96.3097C112.752 93.4868 114.055 90.3499 114.757 87.0557C115.352 84.1666 115.522 80.9931 114.581 78.1562C113.763 75.7095 111.938 73.4999 109.205 73.2934C106.134 73.06 103.595 75.5233 101.914 77.7979C99.95 80.4525 98.6393 83.5979 97.9954 86.8275C97.3057 90.2904 97.3681 93.8094 97.4102 97.322L97.7213 123.639C97.7328 124.622 99.2628 124.625 99.2513 123.639V123.641Z" fill="white"/>
<path d="M94.85 114.661L105.722 108.375C106.575 107.883 105.805 106.561 104.949 107.054L94.0723 113.339C93.2206 113.831 93.9894 115.154 94.8449 114.661H94.85Z" fill="white"/>
<path d="M94.85 118.223L105.815 111.895C106.668 111.403 105.898 110.08 105.05 110.574L94.085 116.902C93.2333 117.394 94.0021 118.718 94.8576 118.223H94.85Z" fill="white"/>
<path d="M126.651 108.361L126.396 86.5993C126.319 80.0904 125.631 73.1238 128.436 67.0395C129.583 64.5545 131.21 61.9395 133.56 60.4261C134.775 59.6445 136.266 59.2301 137.654 59.8026C138.674 60.2246 139.439 61.0776 139.965 62.0326C141.189 64.26 141.255 67.0229 140.985 69.4875C140.642 72.6291 139.568 75.707 138.058 78.4712C136.51 81.327 134.474 83.8908 132.044 86.0472C130.045 87.8092 127.656 89.3622 124.985 89.811C124.016 89.9717 124.426 91.4455 125.391 91.2862C127.951 90.8616 130.266 89.4527 132.262 87.8551C134.643 85.9516 136.67 83.589 138.316 81.0313C140.151 78.2095 141.451 75.0745 142.152 71.7825C142.748 68.8933 142.917 65.7199 141.976 62.883C141.159 60.4363 139.333 58.2267 136.601 58.0189C133.53 57.7868 130.991 60.2488 129.309 62.5234C127.342 65.178 126.035 68.3247 125.391 71.5555C124.702 75.0184 124.764 78.5375 124.806 82.0488L125.117 108.366C125.129 109.35 126.659 109.353 126.647 108.366L126.651 108.361Z" fill="white"/>
<path d="M122.245 99.3812L133.122 93.1018C133.975 92.6096 133.205 91.2875 132.349 91.7809L121.472 98.0603C120.62 98.5524 121.389 99.8759 122.245 99.3812Z" fill="white"/>
<path d="M122.245 102.945L133.21 96.617C134.063 96.1235 133.292 94.8013 132.445 95.2948L121.48 101.624C120.628 102.116 121.397 103.438 122.252 102.945H122.245Z" fill="white"/>
<path d="M42.1389 161.961L47.4047 164.939V93.2114L42.1389 90.233V161.961Z" fill="#029EC4"/>
<path d="M90.65 165.065L84.9277 161.776L85.7081 161.796L83.9654 162.797L83.2111 162.364L85.4393 161.083L91.5084 164.571L90.65 165.065Z" fill="#029EC4"/>
<path d="M111.058 161.924L93.6681 151.883L111.057 141.844L128.448 151.884L111.058 161.924Z" fill="white"/>
<path d="M93.6681 151.883V153.657L111.058 163.697V161.924L93.6681 151.883Z" fill="#9E9E9E"/>
<path d="M111.058 161.924L128.448 151.884V153.658L111.058 163.697V161.924Z" fill="#E0E0E0"/>
<path d="M109.849 154.421L109.259 154.082L109.346 151.292C109.357 151.046 109.337 150.848 109.285 150.699C109.233 150.543 109.158 150.416 109.06 150.32C108.961 150.217 108.849 150.129 108.722 150.056C108.409 149.877 108.054 149.799 107.655 149.822C107.256 149.845 106.846 149.978 106.424 150.22C106.1 150.406 105.863 150.606 105.713 150.818C105.557 151.028 105.496 151.252 105.531 151.491L104.43 151.536C104.366 151.234 104.45 150.926 104.681 150.614C104.913 150.295 105.262 150.001 105.73 149.732C106.152 149.49 106.589 149.319 107.04 149.219C107.485 149.116 107.918 149.089 108.34 149.139C108.768 149.186 109.155 149.309 109.502 149.508C109.698 149.621 109.866 149.747 110.005 149.887C110.144 150.026 110.248 150.199 110.317 150.405C110.386 150.611 110.418 150.868 110.412 151.177L110.334 153.664L109.788 153.589L113.456 151.481L114.21 151.915L109.849 154.421Z" fill="#029EC4"/>
<path d="M131.635 149.982L114.245 139.943L131.635 129.902L149.025 139.943L131.635 149.982Z" fill="white"/>
<path d="M114.245 139.943V141.716L131.635 151.756V149.982L114.245 139.943Z" fill="#9E9E9E"/>
<path d="M131.635 149.982L149.025 139.943V141.716L131.635 151.756V149.982Z" fill="#E0E0E0"/>
<path d="M133.082 141.476C132.655 141.722 132.172 141.923 131.634 142.079C131.103 142.232 130.597 142.316 130.117 142.333L129.831 141.71C130.224 141.703 130.643 141.642 131.088 141.526C131.533 141.409 131.941 141.245 132.311 141.032C132.762 140.773 133.016 140.517 133.074 140.265C133.131 140.006 132.996 139.782 132.666 139.592C132.348 139.41 131.973 139.333 131.539 139.363C131.106 139.386 130.629 139.547 130.109 139.846L129.623 140.125L129.016 139.777L128.6 137.465L129.068 137.594L125.747 139.503L124.993 139.069L128.999 136.767L129.588 137.106L130.004 139.408L129.285 139.513L129.571 139.348C130.305 138.926 131.019 138.705 131.712 138.685C132.412 138.662 133.016 138.797 133.525 139.089C133.866 139.285 134.094 139.513 134.209 139.772C134.325 140.031 134.296 140.307 134.123 140.599C133.949 140.885 133.603 141.177 133.082 141.476Z" fill="#029EC4"/>
<path d="M151.9 138.168L134.51 128.129L151.899 118.088L169.29 128.129L151.9 138.168Z" fill="white"/>
<path d="M134.51 128.129V129.902L151.9 139.943V138.168L134.51 128.129Z" fill="#9E9E9E"/>
<path d="M151.9 138.168L169.29 128.129V129.902L151.9 139.943V138.168Z" fill="#E0E0E0"/>
<path d="M109.701 186.085L92.3102 176.046L109.7 166.005L127.09 176.046L109.701 186.085Z" fill="white"/>
<path d="M92.3102 176.046L92.3115 177.819L109.701 187.859V186.085L92.3102 176.046Z" fill="#9E9E9E"/>
<path d="M109.701 186.085L127.09 176.046L127.091 177.819L109.701 187.859V186.085Z" fill="#E0E0E0"/>
<path d="M105.74 178.024L105.133 177.675L104.266 173.609L105.202 173.071L106.095 177.122L105.514 177.296L110.361 174.511L111.106 174.939L105.74 178.024ZM110.604 176.942L109.112 176.085L108.393 175.642L107.075 174.884L107.89 174.416L111.445 176.459L110.604 176.942Z" fill="#029EC4"/>
<path d="M131.026 173.935L113.636 163.896L131.026 153.856L148.415 163.896L131.026 173.935Z" fill="white"/>
<path d="M113.636 163.896V165.67L131.026 175.709V173.935L113.636 163.896Z" fill="#9E9E9E"/>
<path d="M131.026 173.935L148.415 163.896V165.67L131.026 175.709V173.935Z" fill="#E0E0E0"/>
<path d="M131.941 165.293C131.513 165.539 131.03 165.74 130.493 165.896C129.961 166.049 129.455 166.133 128.975 166.15L128.689 165.527C129.082 165.521 129.501 165.459 129.947 165.343C130.392 165.227 130.796 165.064 131.16 164.854C131.623 164.589 131.88 164.328 131.932 164.072C131.984 163.816 131.845 163.594 131.516 163.404C131.29 163.275 131.039 163.194 130.762 163.16C130.484 163.127 130.166 163.164 129.808 163.27C129.449 163.37 129.036 163.554 128.568 163.823L127.189 164.615L124.337 162.607L127.762 160.639L128.516 161.073L125.412 162.856L125.438 162.353L127.692 163.938L126.825 163.958L127.996 163.285C128.603 162.936 129.169 162.7 129.695 162.577C130.221 162.454 130.707 162.425 131.152 162.488C131.591 162.547 131.99 162.68 132.348 162.886C132.695 163.086 132.929 163.316 133.05 163.579C133.166 163.838 133.14 164.115 132.972 164.411C132.805 164.7 132.461 164.994 131.941 165.293Z" fill="#029EC4"/>
<path d="M151.603 161.995L134.213 151.955L151.603 141.915L168.993 151.955L151.603 161.995Z" fill="white"/>
<path d="M134.213 151.955V153.728L151.603 163.769V161.995L134.213 151.955Z" fill="#9E9E9E"/>
<path d="M151.603 161.995L168.993 151.955V153.728L151.603 163.769V161.995Z" fill="#E0E0E0"/>
<path d="M153.744 153.089C153.206 153.398 152.628 153.594 152.01 153.677C151.391 153.76 150.758 153.732 150.111 153.592C149.464 153.446 148.816 153.187 148.169 152.815C147.481 152.42 147.022 152.016 146.79 151.604C146.559 151.192 146.539 150.792 146.73 150.403C146.92 150.015 147.296 149.659 147.857 149.337C148.146 149.171 148.449 149.03 148.767 148.913C149.091 148.794 149.409 148.714 149.721 148.674L150.068 149.252C149.802 149.279 149.547 149.339 149.305 149.432C149.068 149.521 148.839 149.629 148.62 149.755C148.001 150.111 147.704 150.505 147.727 150.936C147.744 151.365 148.131 151.797 148.888 152.232C149.01 152.302 149.16 152.381 149.339 152.471C149.519 152.561 149.712 152.639 149.92 152.705H149.331C149.151 152.503 149.065 152.297 149.071 152.087C149.076 151.872 149.166 151.664 149.339 151.465C149.513 151.259 149.753 151.068 150.059 150.892C150.464 150.659 150.897 150.496 151.359 150.403C151.822 150.31 152.281 150.292 152.738 150.348C153.189 150.402 153.602 150.536 153.978 150.752C154.365 150.975 154.608 151.224 154.706 151.499C154.804 151.775 154.77 152.051 154.602 152.327C154.434 152.602 154.148 152.856 153.744 153.089ZM153.007 152.705C153.273 152.553 153.455 152.391 153.553 152.222C153.657 152.049 153.68 151.88 153.622 151.714C153.559 151.544 153.409 151.392 153.172 151.255C152.813 151.049 152.406 150.958 151.949 150.981C151.487 151.001 151.042 151.134 150.614 151.38C150.336 151.539 150.146 151.709 150.042 151.888C149.938 152.068 149.914 152.244 149.972 152.416C150.03 152.582 150.172 152.73 150.397 152.86C150.605 152.979 150.854 153.059 151.143 153.099C151.426 153.136 151.729 153.124 152.053 153.064C152.377 153.004 152.695 152.885 153.007 152.705Z" fill="#029EC4"/>
<path d="M171.868 150.181L154.478 140.14L171.868 130.101L189.257 140.14L171.868 150.181Z" fill="#67CF7C"/>
<path d="M154.478 140.14V141.914L171.868 151.955V150.181L154.478 140.14Z" fill="#368F48"/>
<path d="M171.868 150.181L189.257 140.14V141.915L171.868 151.955V150.181Z" fill="#4BC462"/>
<path d="M129.511 198.282L112.121 188.241L129.511 178.202L146.901 188.242L129.511 198.282Z" fill="white"/>
<path d="M112.121 188.241V190.016L129.511 200.055V198.282L112.121 188.241Z" fill="#9E9E9E"/>
<path d="M129.511 198.282L146.901 188.242V190.016L129.511 200.055V198.282Z" fill="#E0E0E0"/>
<path d="M130.072 190.023L126.942 185.264L127.558 185.359L123.951 187.432L123.96 186.939L125.468 187.806L124.636 188.284L122.798 187.228L127.376 184.597L127.965 184.936L130.991 189.495L130.072 190.023Z" fill="#029EC4"/>
<path d="M150.837 186.132L133.446 176.092L150.835 166.052L168.225 176.093L150.837 186.132Z" fill="white"/>
<path d="M133.446 176.092L133.447 177.866L150.837 187.906V186.132L133.446 176.092Z" fill="#9E9E9E"/>
<path d="M150.837 186.132L168.225 176.093L168.226 177.866L150.837 187.906V186.132Z" fill="#E0E0E0"/>
<path d="M152.032 176.872C151.54 177.154 151.043 177.357 150.54 177.48C150.038 177.602 149.555 177.644 149.092 177.604C148.624 177.561 148.208 177.435 147.844 177.225C147.486 177.019 147.275 176.792 147.211 176.543C147.147 176.287 147.231 176.02 147.462 175.741C147.688 175.458 148.055 175.171 148.564 174.879C149.072 174.586 149.572 174.375 150.064 174.246C150.555 174.11 151.023 174.06 151.468 174.096C151.913 174.133 152.312 174.252 152.665 174.455C153.029 174.664 153.248 174.903 153.323 175.173C153.393 175.438 153.318 175.717 153.098 176.01C152.878 176.302 152.523 176.589 152.032 176.872ZM151.329 176.468C151.815 176.189 152.095 175.915 152.17 175.646C152.246 175.37 152.113 175.134 151.772 174.938C151.436 174.746 151.035 174.674 150.566 174.724C150.098 174.767 149.621 174.928 149.136 175.207C148.656 175.483 148.379 175.756 148.303 176.025C148.223 176.29 148.35 176.52 148.685 176.712C149.026 176.908 149.433 176.986 149.907 176.946C150.376 176.903 150.85 176.744 151.329 176.468ZM149.032 175.148C148.569 175.413 148.116 175.604 147.671 175.721C147.22 175.834 146.792 175.873 146.387 175.84C145.977 175.804 145.61 175.692 145.286 175.506C144.945 175.31 144.743 175.091 144.679 174.849C144.616 174.599 144.682 174.342 144.879 174.076C145.075 173.811 145.39 173.553 145.824 173.304C146.263 173.051 146.714 172.869 147.176 172.756C147.639 172.643 148.087 172.605 148.52 172.641C148.948 172.674 149.332 172.789 149.673 172.985C149.997 173.171 150.191 173.382 150.254 173.618C150.312 173.85 150.24 174.098 150.038 174.36C149.829 174.619 149.494 174.882 149.032 175.148ZM148.477 174.829C148.899 174.586 149.142 174.347 149.205 174.111C149.275 173.872 149.159 173.666 148.858 173.493C148.552 173.317 148.188 173.251 147.766 173.294C147.344 173.337 146.931 173.475 146.526 173.708C146.122 173.94 145.885 174.176 145.815 174.415C145.752 174.651 145.873 174.857 146.179 175.033C146.48 175.206 146.832 175.275 147.237 175.242C147.647 175.206 148.061 175.068 148.477 174.829Z" fill="#029EC4"/>
<path d="M171.414 174.19L154.024 164.151L171.412 154.111L188.804 164.151L171.414 174.19Z" fill="white"/>
<path d="M154.024 164.151V165.925L171.414 175.964V174.19L154.024 164.151Z" fill="#9E9E9E"/>
<path d="M171.414 174.19L188.804 164.151V165.925L171.414 175.964V174.19Z" fill="#E0E0E0"/>
<path d="M166.511 161.797C167.06 161.481 167.641 161.284 168.254 161.204C168.872 161.121 169.505 161.152 170.152 161.298C170.794 161.441 171.438 161.699 172.086 162.071C172.774 162.466 173.233 162.87 173.464 163.282C173.696 163.694 173.719 164.092 173.534 164.478C173.349 164.863 172.97 165.22 172.398 165.549C172.115 165.712 171.811 165.853 171.488 165.972C171.17 166.089 170.852 166.168 170.534 166.212L170.187 165.634C170.453 165.6 170.707 165.541 170.95 165.454C171.193 165.361 171.424 165.252 171.644 165.125C172.256 164.773 172.554 164.383 172.537 163.954C172.514 163.522 172.123 163.089 171.366 162.654C171.245 162.584 171.095 162.504 170.915 162.415C170.736 162.325 170.545 162.245 170.343 162.175L170.924 162.18C171.109 162.38 171.199 162.587 171.193 162.803C171.187 163.013 171.097 163.22 170.924 163.426C170.751 163.625 170.508 163.815 170.196 163.994C169.797 164.223 169.366 164.385 168.904 164.478C168.441 164.571 167.985 164.59 167.534 164.537C167.077 164.481 166.661 164.345 166.286 164.129C165.892 163.903 165.647 163.655 165.549 163.386C165.45 163.111 165.485 162.835 165.653 162.559C165.826 162.28 166.112 162.026 166.511 161.797ZM167.248 162.18C166.988 162.33 166.806 162.491 166.702 162.664C166.598 162.837 166.575 163.006 166.632 163.172C166.696 163.335 166.849 163.486 167.092 163.625C167.45 163.831 167.861 163.924 168.323 163.905C168.78 163.881 169.219 163.748 169.641 163.506C169.918 163.346 170.109 163.177 170.213 162.998C170.323 162.815 170.346 162.639 170.282 162.469C170.225 162.297 170.086 162.147 169.866 162.021C169.652 161.898 169.404 161.818 169.121 161.782C168.837 161.745 168.534 161.757 168.21 161.817C167.887 161.877 167.566 161.998 167.248 162.18Z" fill="#029EC4"/>
<path d="M211.349 173.935L174.289 152.337L191.677 142.298L228.739 163.896L211.349 173.935Z" fill="#FFD24C"/>
<path d="M174.289 152.337V154.111L211.349 175.709V173.935L174.289 152.337Z" fill="#EBC146"/>
<path d="M211.349 173.935L228.739 163.896V165.67L211.349 175.709V173.935Z" fill="#C79910"/>
<path d="M149.479 210.096L132.089 200.055L149.479 190.016L166.868 200.055L149.479 210.096Z" fill="white"/>
<path d="M132.089 200.055V201.829L149.48 211.869L149.479 210.096L132.089 200.055Z" fill="#9E9E9E"/>
<path d="M149.479 210.096L166.868 200.055L166.87 201.83L149.48 211.869L149.479 210.096Z" fill="#E0E0E0"/>
<path d="M170.804 197.946L153.415 187.906L170.803 177.866L188.194 187.906L170.804 197.946Z" fill="white"/>
<path d="M153.415 187.906V189.679L170.804 199.72V197.946L153.415 187.906Z" fill="#9E9E9E"/>
<path d="M170.804 197.946L188.194 187.906V189.68L170.804 199.72V197.946Z" fill="#E0E0E0"/>
<path d="M171.985 188.749C171.511 189.021 170.964 189.195 170.346 189.272C169.733 189.345 169.086 189.312 168.404 189.172C167.728 189.029 167.06 188.768 166.401 188.39C165.742 188.011 165.288 187.627 165.04 187.239C164.797 186.847 164.739 186.475 164.866 186.123C164.999 185.767 165.303 185.453 165.777 185.181C166.245 184.912 166.788 184.739 167.407 184.663C168.025 184.586 168.673 184.619 169.349 184.762C170.025 184.905 170.693 185.166 171.352 185.545C172.011 185.923 172.464 186.307 172.713 186.696C172.961 187.084 173.019 187.456 172.886 187.812C172.753 188.167 172.453 188.479 171.985 188.749ZM171.213 188.305C171.531 188.122 171.722 187.913 171.785 187.677C171.855 187.438 171.782 187.181 171.568 186.905C171.36 186.626 170.999 186.339 170.485 186.043C169.97 185.747 169.47 185.54 168.985 185.42C168.505 185.297 168.057 185.256 167.641 185.295C167.23 185.332 166.866 185.442 166.548 185.624C166.23 185.807 166.037 186.018 165.967 186.257C165.898 186.496 165.967 186.755 166.176 187.034C166.389 187.31 166.754 187.596 167.268 187.891C167.782 188.187 168.28 188.396 168.759 188.519C169.245 188.639 169.696 188.679 170.112 188.639C170.528 188.599 170.895 188.488 171.213 188.305Z" fill="#029EC4"/>
<path d="M191.382 186.005L173.992 175.964L191.382 165.925L208.771 175.965L191.382 186.005Z" fill="white"/>
<path d="M173.992 175.964V177.739L191.382 187.778V186.005L173.992 175.964Z" fill="#9E9E9E"/>
<path d="M191.382 186.005L208.771 175.965V177.739L191.382 187.778V186.005Z" fill="#E0E0E0"/>
<path d="M195.953 158.06L195.268 157.666L199.152 155.434L199.837 155.828L195.953 158.06ZM198.008 159.241L197.323 158.847L201.207 156.615L201.892 157.009L198.008 159.241Z" fill="white"/>
<path d="M173.193 140.838L169.396 138.655L170.124 138.237L173.922 140.419L173.193 140.838ZM170.063 140.853L169.378 140.459L173.263 138.227L173.948 138.62L170.063 140.853Z" fill="white"/>
<path d="M151.644 129.223L150.925 128.809L153.257 127.469L153.976 127.882L151.644 129.223Z" fill="#029EC4"/>
<path d="M149.913 200.616L148.595 199.361L149.211 199.585C149.043 199.681 148.849 199.733 148.63 199.739C148.416 199.743 148.219 199.693 148.04 199.59C147.867 199.49 147.78 199.377 147.78 199.251C147.786 199.122 147.87 199.01 148.031 198.917C148.199 198.821 148.393 198.776 148.612 198.783C148.826 198.786 149.017 198.836 149.185 198.932C149.242 198.965 149.294 199.002 149.341 199.042C149.387 199.075 149.436 199.12 149.488 199.176C149.54 199.226 149.598 199.293 149.661 199.376L150.459 200.302L149.913 200.616Z" fill="#029EC4"/>
<path d="M190.133 178.353L188.208 172.483L188.875 172.099L190.8 177.969L190.133 178.353ZM187.809 176.459C187.531 176.619 187.216 176.72 186.864 176.763C186.511 176.806 186.15 176.791 185.78 176.718C185.416 176.642 185.069 176.509 184.74 176.32C184.41 176.13 184.179 175.931 184.046 175.722C183.919 175.509 183.893 175.301 183.968 175.099C184.043 174.896 184.219 174.715 184.497 174.556C184.78 174.393 185.095 174.292 185.442 174.252C185.795 174.208 186.153 174.225 186.517 174.301C186.881 174.378 187.228 174.511 187.557 174.7C187.887 174.889 188.118 175.089 188.251 175.298C188.384 175.507 188.413 175.713 188.338 175.916C188.268 176.115 188.092 176.296 187.809 176.459ZM187.315 176.175C187.581 176.022 187.688 175.845 187.636 175.642C187.578 175.436 187.367 175.228 187.003 175.019C186.638 174.81 186.28 174.69 185.927 174.66C185.569 174.627 185.257 174.687 184.991 174.84C184.731 174.989 184.627 175.168 184.679 175.378C184.731 175.58 184.939 175.786 185.303 175.996C185.662 176.202 186.02 176.321 186.378 176.354C186.742 176.384 187.055 176.325 187.315 176.175ZM194.511 175.896C194.233 176.055 193.918 176.157 193.566 176.2C193.213 176.243 192.855 176.227 192.491 176.15C192.127 176.074 191.78 175.941 191.45 175.751C191.121 175.562 190.89 175.363 190.757 175.154C190.624 174.944 190.595 174.738 190.67 174.536C190.745 174.333 190.921 174.152 191.199 173.993C191.482 173.83 191.797 173.728 192.144 173.689C192.497 173.645 192.855 173.662 193.219 173.738C193.589 173.812 193.939 173.943 194.268 174.132C194.598 174.321 194.826 174.522 194.953 174.735C195.086 174.944 195.115 175.15 195.04 175.353C194.97 175.552 194.794 175.733 194.511 175.896ZM194.017 175.612C194.277 175.462 194.381 175.286 194.329 175.084C194.277 174.875 194.069 174.665 193.705 174.456C193.346 174.25 192.985 174.132 192.621 174.102C192.262 174.069 191.953 174.127 191.693 174.277C191.433 174.426 191.329 174.605 191.381 174.815C191.433 175.017 191.641 175.223 192.005 175.433C192.369 175.642 192.731 175.763 193.089 175.796C193.447 175.823 193.757 175.761 194.017 175.612Z" fill="#029EC4"/>
</svg>
