<svg width="17" height="16" viewBox="0 0 17 16" fill="none" xmlns="http://www.w3.org/2000/svg">
<path d="M15.1667 0H1.83333C1.47971 0 1.14057 0.140476 0.890524 0.390524C0.640476 0.640573 0.5 0.979711 0.5 1.33333V14.6667C0.5 15.0203 0.640476 15.3594 0.890524 15.6095C1.14057 15.8595 1.47971 16 1.83333 16H15.1667C15.5203 16 15.8594 15.8595 16.1095 15.6095C16.3595 15.3594 16.5 15.0203 16.5 14.6667V1.33333C16.5 0.979711 16.3595 0.640573 16.1095 0.390524C15.8594 0.140476 15.5203 0 15.1667 0ZM7.16667 11.6667L3.83333 8.362L4.89333 7.33333L7.16667 9.564L12.106 4.66667L13.1667 5.718L7.16667 11.6667Z" fill="#2FBAE5"/>
</svg>
