<svg width="48" height="49" viewBox="0 0 48 49" fill="none" xmlns="http://www.w3.org/2000/svg">
<rect y="0.5" width="48" height="48" rx="3" fill="#E4A709"/>
<path d="M36.9568 19.6011C36.4737 13.1796 31.304 7.98543 24.9229 7.5325C17.3378 6.9992 11 13.0992 11 20.7042C11 23.4438 11.8075 25.9787 13.2207 28.0681C14.9151 30.6031 19.7604 37.7624 22.3489 41.6124C23.1564 42.7959 24.8941 42.7959 25.6584 41.6124C28.2396 37.8062 33.0849 30.6104 34.7865 28.0681C36.3944 25.6938 37.2019 22.7497 36.9568 19.6011ZM24 28.2361C19.883 28.2361 16.5302 24.8391 16.5302 20.6677C16.5302 16.4963 19.883 13.0992 24 13.0992C28.1171 13.0992 31.4698 16.489 31.4698 20.6677C31.4698 24.8464 28.1171 28.2361 24 28.2361Z" fill="#F8F8F8"/>
</svg>
