<svg width="40" height="41" viewBox="0 0 40 41" fill="none" xmlns="http://www.w3.org/2000/svg">
<g clip-path="url(#clip0_447_2946)">
<path d="M34.8216 14.4051C34.269 7.1556 28.3556 1.29168 21.0566 0.78034C12.3803 0.178278 5.13086 7.06488 5.13086 15.6504C5.13086 18.7432 6.05457 21.6051 7.67107 23.9638C9.60921 26.8257 15.1515 34.9082 18.1123 39.2546C19.036 40.5906 21.0236 40.5906 21.8979 39.2546C24.8504 34.9577 30.3927 26.8339 32.3391 23.9638C34.1783 21.2834 35.102 17.9597 34.8216 14.4051ZM20.001 24.1535C15.2917 24.1535 11.4566 20.3185 11.4566 15.6092C11.4566 10.8999 15.2917 7.06488 20.001 7.06488C24.7102 7.06488 28.5453 10.8917 28.5453 15.6092C28.5453 20.3267 24.7102 24.1535 20.001 24.1535Z" fill="#232323"/>
</g>
<defs>
<clipPath id="clip0_447_2946">
<rect width="40" height="40" fill="white" transform="translate(0 0.5)"/>
</clipPath>
</defs>
</svg>
