<svg width="48" height="49" viewBox="0 0 48 49" fill="none" xmlns="http://www.w3.org/2000/svg">
<rect y="0.5" width="48" height="48" rx="3" fill="#2FBAE5"/>
<path d="M10.325 14.5C9.8683 14.5 9.44621 14.6374 9.08638 14.864L22.3583 26.3681C23.0571 26.9794 23.9083 26.9794 24.6141 26.3681L37.9067 14.8503C37.5469 14.6305 37.1248 14.5 36.6681 14.5H10.325ZM8.13147 16.0659C8.04844 16.2995 8 16.5467 8 16.8077V32.1923C8 33.4698 9.03795 34.5 10.325 34.5H36.675C37.9621 34.5 39 33.4698 39 32.1923V16.8077C39 16.5467 38.9446 16.2995 38.8685 16.0591L25.6312 27.5288C24.3996 28.5934 22.5797 28.5865 21.348 27.5151L8.13147 16.0659Z" fill="#F8F8F8"/>
</svg>
