<svg width="40" height="41" viewBox="0 0 40 41" fill="none" xmlns="http://www.w3.org/2000/svg">
<path d="M3.22402 7.67188C2.64253 7.67188 2.10508 7.84809 1.64693 8.13883L18.5456 22.8965C19.4355 23.6807 20.5192 23.6807 21.4179 22.8965L38.343 8.12121C37.8848 7.83928 37.3474 7.67188 36.7659 7.67188H3.22402ZM0.431073 9.68069C0.325346 9.98024 0.263672 10.2974 0.263672 10.6322V30.3679C0.263672 32.0067 1.58526 33.3283 3.22402 33.3283H36.7747C38.4135 33.3283 39.735 32.0067 39.735 30.3679V10.6322C39.735 10.2974 39.6646 9.98024 39.5676 9.67187L22.713 24.3855C21.1447 25.7512 18.8275 25.7424 17.2593 24.3679L0.431073 9.68069Z" fill="#232323"/>
</svg>
